<svg width="720" height="640" viewBox="0 0 720 640" fill="black" xmlns="http://www.w3.org/2000/svg">
  <g xmlns="http://www.w3.org/2000/svg" fill="none" fill-rule="evenodd">
    <rect width="720" height="640"/>
  </g>
<g transform="translate(120, 80)"><path xmlns="http://www.w3.org/2000/svg" d="M238.4 48s2.3-2.1 5-1.8c4.1.6 7.2 5 9.6 8.9 2.7 4.3 3.4 9 3 14.8-.2 3.9.8 36.3 1.2 47.6.1 2.1-1.6 3.9-3.8 4l-38.6.7L238.4 48z" fill="#321011"/><path xmlns="http://www.w3.org/2000/svg" d="M226.1 78.8l-7.5 24.5-2.2 5.7s3.2 4.1 10.8 5.7c5.2 1.1 8.7 1.2 11 1 1.9-.2 4.2-.6 3-4.1-1.7-5.2-1.1-8.5-1.1-8.5l2.7-14.7-16.7-9.6z" fill="#ea9d7d"/><linearGradient xmlns="http://www.w3.org/2000/svg" id="hd-A" gradientUnits="userSpaceOnUse" x1="229.186" y1="95.719" x2="236.058" y2="86.871"><stop offset="0" stop-color="#bc5a32" stop-opacity="0"/><stop offset=".99" stop-color="#bc5a32"/></linearGradient><path xmlns="http://www.w3.org/2000/svg" d="M224.9 92c2.5 3.8 6.9 7 9.4 8.2 3.5 1.7 6 2.1 6 2.1l2.2-12.2-16.4-11.3-.9 1.7-.7 2.8c-.1.1-1.9 5.2.4 8.7z" fill="url(#hd-A)"/><use xmlns="http://www.w3.org/2000/svg" xmlns:xlink="http://www.w3.org/1999/xlink" xlink:href="#hd-E" fill="#cf7653"/><g xmlns="http://www.w3.org/2000/svg" fill="#a84d3b"><path d="M228.9 84.6l.2.5.4-.4z"/><path d="M228.9 84l-.3.9 1.1-.2zm5.3 3.8v1.1l1.1-.5zm-2.7-1.7l-.1 1.1 1.1-.4zM230 85l-.2 1.1 1.2-.3z"/><path d="M228.2 83l-.4 1h1.2zm7.5 7.2l-.5-.6-.4.7zm-1.4-1.1l-.6-.8-.3.9zm4.1 2.1l-.7-.7-.2.8zm3 1.1l-.7-.8-.3.9zm-5.3-3.6l-.6-.3v.9zm1.4 3.1l-.5-.5-.3.7zm-3.9-4l-.6-.4-.1.9zm5.3 2.1l-1-.4.1 1.2zm1.9.3l-.8-.1.2.9zm1.3 1.6h-.8l.3.7zm-2.8-.2l-.3-.7-.5.7zm2.4 2.3l.1-.7-.8.2zm-.2 1.3l.1-.7-.8.2zm-1.7 0l-.4.3.5.3zm.3-3.9l-.4.4.6.3zm2.3-.7l-.6-.1.2.6zm-1.9 5.8l-.4.3.6.3zM230.6 86l-.4.3.5.3zm6.7 4.8l-.3-.3-.1.5zm-2.8-.8l.1-.4h-.5zm1.4.9l.2-.4h-.5zm2.1 2l.2.5.5-.4zm2.9-2l-.3.3.4.2z"/><path d="M241.1 90.4l-.5.4.6.3zm-1.2.4l-.4.3.4.2zm.4 7.1l-.4.2.4.3zm-1.1-1.1l.2.4.3-.4zm-.1-2.4l.2.4.3-.4zm1.9.9l-.3-.2-.1.4zm-13.9-4.7l.2.2.2-.3zm1.9-1.2l-.2.2h.3zm2 3.5l-.3-.1.1.4zm-1-1.7l-.2.3h.4zm6.9 3.2l-.1.6.6-.3zm-.9-4.5v.5l.5-.2zm0-1v.5l.6-.3zm-7.7-3.1v.6l.5-.3zm12 7.3l-.5.1.4.4zm-1.5 4.2l-.2-.4-.4.4zm.3-5.2l.3.4.3-.5zm1.6.6l.3.5.3-.6zm1-1.9l-.3.4.5.1zm-.6 3.2l-.4-.3v.6zm-11.3-8.9l-.6.4.7.4zm-2 .8l-.3-.3-.1.5zm-2-1l-.2-.2-.1.4zm-.5 3.1l.1-.4h-.4zm3.8-2.2l.2.4.4-.4zm-1.2-1l.3.6.5-.5zm-.2-2.7l-.4.6.8.1zm3 4.8l-.3.2.4.3zm.8-.4l-.3.2.4.2zm.8.4l-.3.2.3.3zm-1.5 2.7l-.2-.2-.1.4zm-6-3.4l.2.3.3-.4zm2.3-2.3l-.3.2.4.2zm-.1 3.7l-.3-.2-.1.4zm.3-4.1l.2.3.3-.4zm1 .5l.2.4.3-.4zm-2.3-1l-.3.3.4.1zm.3-1l-.3-.2-.1.4zm5.3 5.5v.4l.5-.2zm1.9.8l-.4.1.3.3zm-.8-.8l-.4.1.3.3zm6.7 3l-.4.1.3.3zm-1.5-.6l-.3.1.2.3zm-4.7.7l-.1-.3-.3.3zm5.6 5l-.1-.3-.3.3zm-6.1-6l-.2-.3-.3.3zm2.6-.6v.5l.4-.2zm1.6.4v.4l.4-.2zm1.8.9l-.4.1.3.3zm-1.4 2l-.2-.3-.2.3zm-4.3-.1v.4l.4-.2zm1.9-1l-.3.1.2.3zm3.4.8l-.1-.3-.3.3z"/></g><path xmlns="http://www.w3.org/2000/svg" d="M248.5 56c3.2 1.8 4.3 3.9 5.7 6.6.5 1.4.5 2.6.5 3.7 0 4.2-.3 10.1-.8 13.4-1 5.7-3.7 9.1-6.9 10.1s-9-1.1-12.9-3.1c-3.3-1.7-5.2-3.5-5.7-5.6-.5-2.2-1.5-5-1.5-5l-5.7-3.9s-6-8.5 3.7-15c8.3-5.6 17.2-4 23.6-1.2z" fill="#ea9d7d"/><path xmlns="http://www.w3.org/2000/svg" d="M243.4 90.6c-1.1 0-2-.2-4-.7-3.2-.8-7.7-3.3-10-5.5-2.2-2.2-2-4.3-2-4.4 0-.2 0-.5.2-.5s.3.2.4.4c.1.4.1 2.1 1.9 3.9 2.1 2.1 6.6 4.5 9.6 5.3 3.1.7 3.7.9 6 .7 2.2-.2 3.4-.9 3.4-.9.4-.3.5-.3.3 0-.2.2-1.4 1.2-3.6 1.6-.9.1-1.5.1-2.2.1z" fill="#b76349"/><path xmlns="http://www.w3.org/2000/svg" d="M238.3 68.4a.78.78 0 0 1-.2-1c.1-.1 1.7-2.5 5.3-2.2.4 0 .7.4.7.8s-.4.7-.8.7c-2.7-.2-3.8 1.5-3.9 1.6-.3.3-1 .2-1.1.1zm14.9-1.8c-.1 0-.3 0-.4-.1-.7-.5-1.5-.4-1.6-.4-.4.1-.8-.2-.9-.6s.2-.8.6-.9c.1 0 1.5-.4 2.8.7.3.2.3.7.1 1-.1.2-.4.3-.6.3z" fill="#4f2b23"/><path xmlns="http://www.w3.org/2000/svg" d="M243.8 84.4h0c-3.8-.2-5.4-2.9-5.8-4.4-.1-.4.1-.8.5-.9s.8.1.9.5c0 .1.8 3.1 4.4 3.3.4 0 .7.4.7.7 0 .5-.3.8-.7.8z" fill="#cf7653"/><path xmlns="http://www.w3.org/2000/svg" d="M247 78.9h-.2c-.4 0-.6-.4-.6-.7 0-.4.4-.6.7-.6.2 0 .7 0 .9-.6s-.3-1.5-.5-1.8-.2-.7.1-.9.7-.2.9.1c.1.2 1.2 1.6.8 3-.4 1.2-1.4 1.5-2.1 1.5z" fill="#b4603f"/><g xmlns="http://www.w3.org/2000/svg" fill="#4f2b23"><circle cx="241.8" cy="72.1" r="1.4"/><path d="M241.5 71.7c-.2 0-.7 0-.8-.2-.1-.3.3-.7.6-.8 1-.5 1.8-.4 2.1-.4a.47.47 0 1 1 0 1c-.3 0-.9 0-1.7.3 0 .1-.1.1-.2.1z"/><circle cx="252.2" cy="71.3" r="1.4"/><path d="M251.9 70.9c-.2 0-.8.1-.9-.1-.1-.3.4-.7.7-.9 1-.5 1.8-.4 2.1-.4a.47.47 0 1 1 0 1 4.54 4.54 0 0 0-1.7.3c0 .1-.1.1-.2.1z"/></g><g xmlns="http://www.w3.org/2000/svg" fill="#f4b9a6"><path d="M244.6 76.5l.7-.4-.8-.4zm-7.6-1l-.2-.5-.5.5zm9.7.4l.7.1-.4-1zm-1.6-3.1l.7.5.2-.8zm.4-.9l.9-.5-.8-.6zm1.6 8.1l.8-.4-.7-.7zm2.3-.9l.5-1h-1.1zm-5-3.4l-.7.1.4.7z"/><path d="M245 74.8l-.8.1.5.6zm-.5 3.7l.2.7.7-.5zm.2 1.4l.6.4.3-.7zm3.4 2.5l-.7.1.5.6zm-1.5-15.3l-.3.5h.8zm.3 4.4l-.6-.2.2.7zm.8-2.1l-.6-.2.2.7zm-4.2 2.8l-.2.6.9-.1zm.8-3.1l-.6.3.6.5zm-2.9.7l-.4.1.2.4zm5.5 12.4l-.6.2.4.5zm-.7-.4l-.6.1.4.6zm-4.8-4.3h-.7l.3.6zm1.3 1.3h-.6l.3.6zm-1.7-3.4l-.1.6.7-.2zm3.2-.4l-.1-.5-.6.5zm6 5.8l.3-.4-.6-.1zm-2.2-1.9l.3.1.1-.4zm4.2-3.9l-.1.5.4-.2zm-2.1 1.9l.5.1-.1-.5z"/><path d="M252.3 75.8l.1-.4h-.5zm-12.5-4.6l-.3.4.5.1zm6-2.3l.8-.1-.6-.7zm-.2 8.8l1-.1-.7-.8zm-.6-5.8l-.6-.1.2.6zm-4.9 3.9l.1-.6-.8.3zm4-5.6l.1.7.7-.4zm-.9 1.3l.1.7.8-.3zm.8-.5l-.1.7.8-.4zm5.9.2l.6.3v-.7zm-5 2.8l-.3-.4-.4.5zm2.3 7.6l-.5.1.4.5zm-2.3-4l-.2.4.6-.1zm.3 3l-.2-.5-.3.5zm.9.5l.4-.3-.6-.2zm.3-1l.5-.3-.6-.4zm-.2-.8l.6-.3-.6-.4zm.1-2.6l.4-.3-.5-.4zm-1.3.1l.4.4.3-.5zm4.9 4.6l-.5.1.4.5zm-2.3-5.2l-.3.4.5.2zm.9 5.5l-.4-.4-.3.4zm-3.3 1.5l.1.6.6-.3zm-1.2-3l-.5.2.4.4zm-5-6.3l-.3-.4-.3.5zm5.2 7.7l.4.2.1-.6zm-1.4-1.2l.4.3v-.6zm-1.2 3.9l-.3.4h.6zm-.8-.7l-.5-.1.1.5zm-1-.2h-.5l.1.5zm5.7-7.7l1.1-.2-.8-.9zm-.6-2.5l.2.5.4-.5z"/><path d="M244.9 74.1l.5.9.8-.9zm2.7-1.1l-.7.7 1 .3zm-6.7 1l.1-.4-.6.2zm6.1 0l-.4.3.5.2zm-1.8-3.3l.7-.1-.4-.5zm3.8 1.7l.7-.1-.5-.6zm-4.2-.3l.7-.1-.5-.6zm4.6-2.6l.6-.1-.4-.5zm-2-1.5l-.4.2.5.3zm-4.9 1.3v-.4l-.6.2zm-.1 7.9l-.1.7.8-.2zm-.9-.5l-.6.1.3.6zm1.1 2.9l-.2.6.8-.2zm1.1-2.6v.7l.7-.3zm-.7 1.3v.8l.8-.4zm-.7-2l.1-.6-.6.3zm8.2-3.5l.6-.1-.4-.5zm-2.1-2.2l.2.4.4-.4zm3.9 7.4l.6-.2-.4-.3zm-8.7-8.7v-.4l-.5.2zm3.7 1.5l-.2.6.7-.2zm-.7-1.2l-.2.6.8-.2zm1.4 4.5l.9.6.4-1zm1.2 1.6l1.1-.2-.7-1zm-3.4.3l.4.1v-.3zm.1-2.5l-.3.4.7.1zm1.1-1.2h-.6l.4.6zm1.9.4l-.6.1.3.6z"/><path d="M247.1 73l1-.5-1-.7zm1.8-4.4l.4-.6-.9-.1zm-3 9.9l.4-.6h-.9zm.2-4.4l.9-.4-.8-.6zm1.3-4.1l.3.3.3-.5zm1.2 1.1l-.7.8 1.3.2zm1-1.2l-.3.4.6.1zm.3 3.9l.3.4.3-.5zm-1.3-4.5l-.3.4h.6zm-8.2 4.4l-.7.2.5.5zm2.8-.8l-.4.5h.7zm-.5.8l-.1-.4-.4.3zm-.7.5v-.4l-.5.3z"/></g><use xmlns="http://www.w3.org/2000/svg" xmlns:xlink="http://www.w3.org/1999/xlink" xlink:href="#hd-E" x="-0.2" fill="#cf7653"/><linearGradient xmlns="http://www.w3.org/2000/svg" id="hd-B" gradientUnits="userSpaceOnUse" x1="241.863" y1="64.523" x2="238.292" y2="59.574"><stop offset="0" stop-color="#bc5a32" stop-opacity="0"/><stop offset=".99" stop-color="#bc5a32"/></linearGradient><path xmlns="http://www.w3.org/2000/svg" d="M232 70.4l10.7-6.1c5.9-2.6 11.2-2.3 11.2-2.3s-.8-1.7-2.5-3.8c-1.1-1.3-2.5-2.1-2.5-2.1l-6.1-1.8L232 70.4z" fill="url(#hd-B)"/><path xmlns="http://www.w3.org/2000/svg" d="M227.2 81.4l-.4.3.5.3z" fill="#a84d3b"/><path xmlns="http://www.w3.org/2000/svg" d="M230 45.8c-4.4 1.5-9.8 5.7-15.1 16s-6.4 17.1-7.3 28.8l-2.2 26.7c-.2 2.7 1.9 5 4.6 5h7.9s6.6-19.7 7.6-28.8l2.6-22.3s3.2 2.9 4.6.7c7.5-11.8 16.7-15.6 16.7-15.6l-11-8.3c0 0-4.7-3.5-8.4-2.2z" fill="#321011"/><ellipse xmlns="http://www.w3.org/2000/svg" cx="224.4" cy="75.3" rx="5.3" ry="5.7" fill="#ea9d7d"/><linearGradient xmlns="http://www.w3.org/2000/svg" id="hd-C" gradientUnits="userSpaceOnUse" x1="224.487" y1="78.668" x2="224.824" y2="73.34"><stop offset="0" stop-color="#cc7a5e" stop-opacity="0"/><stop offset=".924" stop-color="#aa5f4b"/></linearGradient><ellipse xmlns="http://www.w3.org/2000/svg" cx="224.7" cy="75.3" rx="2.4" ry="2.5" fill="url(#hd-C)"/><path xmlns="http://www.w3.org/2000/svg" d="M227.9 79.1c-.9 1-2.2 1.5-3.5 1.5-2.7 0-4.9-2.4-4.9-5.3s2.2-5.3 4.9-5.3c1.9 0 3.6 1.2 4.4 2.9 0 0 .2.1.5-.1s.2-.6.2-.6c-1-1.8-2.9-3.1-5-3.1-3.2 0-5.8 2.7-5.8 6.1 0 3.3 2.6 6.1 5.8 6.1 1.4 0 2.5-.4 3.5-1.2l-.1-1z" fill="#b76349"/><g xmlns="http://www.w3.org/2000/svg" fill="#964c38"><path d="M226.9 75.9v-.4l-.4.1zm-1.7-3l-.4.1.3.4z"/><path d="M225.1 73l-.5.6.9.2zm-.9-.1l-.6.2.5.5zm2.6 1.5l-.3.2.4.2zm-.9-.5l-.3.3.4.1z"/><path d="M226.5 74.6l-.2.3.4.2zm-2.2-.8l-.3.2.5.2z"/><path d="M223.8 73.5l-.4.5.7.2zm1.7 1.8l.2.2.1-.3zm1.1-1.2l-.1.2h.3zm.2.9l-.1.3h.3zm-3.6-1.6l-.4.4.6.1zm.8 1.5h-.2l.1.3zm.6.9l-.1-.3-.2.2zm.8-2.5l.2-.2-.3-.2zm-1.2 0l-.3.3.5.1zm-.5.3l-.3-.2v.4z"/><path d="M223.7 73.6v-.3h-.3zm2.4.4l.2.3.2-.3zm-.4-.9l-.1.7.7-.2z"/><path d="M225.4 73.6l.3.2.1-.4zm-2.4.9l-.2.3h.3zm1.8-1.6l-.3-.1.1.4zm-.6 1.8l.2.3.2-.4zm.8 1.3l-.1.2.3.1zm-2.1-2.2l-.2.3.4.1z"/><path d="M223.8 76l-.3-.1.1.3zm-1.1-1.6l.3-.1-.2-.3z"/><path d="M222.4 75.5h.2l-.1-.3zm.2-1l.2-.1-.1-.2zm.7-.3v.3l.3-.2zm-1 .9h.4l-.2-.4zm.6.1v.2l.3-.2zm2-1.3l-.3.2.3.2zm1.4 1.5l.1.4.3-.2zm-2-2.2l.1.4.3-.3zm1 1.1l-.2-.2-.1.3z"/></g><g xmlns="http://www.w3.org/2000/svg" fill="#633535"><path d="M227.6 46.8l.9.7.2-1.2zm8.7 4.9l-.5-.1.1.5zm4.2-1.4v-.4l-.3.2zm-9.9-4.1l-.1.7.8-.1zm8.7 2.5l-.2.6.7-.2zm-12.8-1.2l-.7.5.9.5z"/><path d="M225.8 48l-.8.6.9.5zm-.4 2.3l-.7 1 1.3.4zm-1.5-.7l-.7.6.9.4zm11.5-3.3l-.9-.2-.1 1.1zm-3.3 1.3l-.2-1-.8.6zm1.6.2v-.9l-.9.4zm1.6.5l.5.9.6-1.2zm.3-1.9l.2 1.4 1.2-.6zm-.5 2.8l-.3.4.5.1zm-6.8 1.6l-.1.5.5-.1zm-1.9 0l-.1.5.5-.1zm.1-.8l-.2.4h.5zm-1.5 1.9l-.2.4h.5zm-.7-.3l-.2.4h.6zm-.7.3l-.2.5h.5zm16.2-1.5l-.1.4h.4zm-2.6-.5l.4.3.1-.5zm-10.5 2.8l.4.1-.1-.5zm.7-2.3v.3l.4-.2zm2.7 1.8h-.3l.2.3zm-.9-.8l.1.3.3-.3zm3 1.7l-.3.1.2.2zm1.2-.5l-.1-.3-.3.2zm-.1-6.8l.3 1 .8-.8zm-6.1 2.9l.4.5.3-.6zm11.2-.7l-1.1-.7.1 1.5z"/><path d="M239 48.5l-.5-.3-.2.5zm-1.5-1.1l-1.1.6.2-1zm-.9 1.6l.5.4.1-.7zm.3-.8l.3.4.2-.7zm-4 1.8l-.1.5.4-.1zm6.1-1.1h-.5l.2.6zM223.9 51l-.2.5.6-.1zm-.5-.5l-.2.5.6-.1zm-.7 1.2l.7.2-.1-.9zm-.4 0l-.3.6h.8z"/><path d="M227.3 47.9h-.4l.3.4zm-4.6 3.9l-.3-.8-.7.7z"/><path d="M223.4 51.2l-.3-.9-.8.7zm2.1-2.4l.9.5v-1.1zm.7.7l.7.5.2-.9zm2-.9l.3.2.1-.6z"/><path d="M227.8 47.2l-.6 1.2h1.5zm-2.9 1.5l-.7.5.8.6zm2.8-1.9l-1.1.6.8.3zm1.2 2.5h-.4l.2.3zm-3.2 1.3l.4.2v-.6zm-.6-.8l.9.1-.6-1zm-2.2 3.5l-.2.3h.4zm1.8-3.1h-.5l.4.7z"/><path d="M224.7 49.7l-.6-.3v1.1zm-.4 3.4l.5.2-.1-.5zm2.3.6v.5l.4-.2zm-5.3-1.3l-.2.9 1-.1z"/><path d="M221.7 51.7l-.6.7.9.3zm3.2 2.8h-.4l.2.5zm-2.5-1.3l.4-.2-.3-.3zm3.4-.7l.3-.1-.3-.4zm-5.4.7l.9.2-.3-.9zm-.6.8l.9.2-.3-.9zm-.8 1l1.1.1-.5-.9zm-.8 1l1.1.2-.4-1.1zm7.2-2.6l.2.3.2-.4zm1-1.1l.4-.2-.3-.4zm-3.5 1.8l.1.3.3-.3zm5.4-2.4l-.3.3.4.2zm-.2 2l-.3.3.5.1zm.5-6.2l.3.4.2-.5zm2.3-1.9l-1 .2.5.9zm-1.2.3l-.9.4.8 1zm1.3 2.7l-.7-.5-.2.9zm6.5 2.7l-.2-.2-.1.4zm-7.1-3.4l-.3-.1v.4zm1.7-2.4l.4 1 .7-.8zm-.6 3.8l.3.4.3-.5zm-.5-3.7l.5.8.5-.9zm2.3 3.2l.3.5.3-.4zm.7 1.3l.1.5.4-.4zm1.3-3.4l-.4.2.4.2zm-1.2.5l-.3-.2v.4zm1 1.2l-.3-.3v.5zm4.7 1.4l.5-.2-.5-.4zm.9.7l-.2.3h.5zm-1.4-.7l-.4-.2v.5zm-7.7.7l.2.4.3-.4zm.9-2.2l-.2.3.3.2zm1 3.6l-.4-.3v.4zM222 58l-.3-.1.2.4zm4-.1l-.3.2.3.1zm-3.9 3.8h-.3l.2.3zm5.5-4.9l-.2-.2-.2.3zm-6.3 6.4l-.2-.2-.2.2zm2-4.3l-.2-.2-.2.2zm1.1-3.3l.4.4.1-.5zm3 .6l-.4-.2.1.4zm8.3-8.6l-.3-.2-.1.5zm-3.1-.2h-.8l.4.9zm.3-.7l-.5.1.2.5zm-2.8 2.9l-.2-.5-.3.4z"/><path d="M229.1 48.2l-.3 1.1 1.2-.2zm-.5 0v.3l.3-.1zm1.5 1l.1.4.2-.2zm.3-2.1l-.5-.1.2.5zm-.2-.8l-.6-.1.1.7zm-1.1.4l-.6-.1.2.7zm3.3-.7l-.6-.3v.8zm1.1.1l-.6-.3v.7zm-2.3 1.6l-.1-.4-.4.3zm-.1 1.5l-.1-.4-.4.3z"/><path d="M230.8 47.8l.4.4.2-.7zm3.2.6l.5.2-.1-.7zm-6.7 1.3h.5l-.1-.5zm2.5-1.5l.4.3.1-.5zm3-.8l-.3.4h.4zm-.7 1l-.5-.1.1.5zm1.1.8l-.3-.3.1.5zm-2.5 1l-.2.4h.5zm2.8-2l-.3-.1v.5zm2.2 1.6l.2.5.4-.4zm2.4 0l.2.4.3-.5zm-.9-.6l-.4.2.4.2zm-.8-.1l-.3-.2-.1.5zm1.7 1.1l-.4-.1.1.5zm0-1.1l-.4-.1v.5zm11.3 1h-.4l.2.5zm-1.3.2v-.5l-.5.2zm-2-.6l-.2.5h.6zm1.8-1.2l-.2 1.1 1-.3z"/><path d="M247 47.8l-.1 1 1-.3zm-3.2-1.5l.3 1 .9-.7zm3.9 5.2l-.2.4h.4zm-6.1-3.9l.3.3.1-.6zm3.4 1.6l.4.3.1-.5zm2.3-.1l-.5-.1.2.5zm-1.2-1.9l-1.1-.5.2 1.4zm-4.6-.9l.7.9.5-1z"/><path d="M243.8 46.3l-1.2-.1.7 1.2zm-4.4.9l1 .6.1-1.1z"/><path d="M241.6 46.3l-1.2.4 1.2.8zm5.4 1.5l-.9-.6-.4 1zm-3-.2l-.4-.3v.6zm-5 .3l-.2-.2-.3.2zm7.8.3h-.5l.3.5zm-1.8-1.1h-.5l.3.6zm-2.1-.5l-.5.1.3.6zm-2 .5l-.4.2.4.5z"/><path d="M239.4 47.2l-.4.3.5.4zm8.1 2.2l.5-.3-.5-.3zm-3.9-2.1l.5-.3-.6-.2zm4.5 3.1l-.2.5h.6zm1 1.2l.1.2.2-.2zm-.8-1.7l.5.3.1-.6zm1.2.4l-.3.6h.7zm-2.1-.4l-.3-.2v.5zm-4.5-2.5l-.1.5.6-.1zm3 1.7l.2.4.3-.5zm-.9-1.2l-.3-.1.1.5zm-5-.2l-.3-.1.2.5zm5.9.7l-.4-.1v.5zM230 50.2l-.3-.2-.1.5zm-17.4 16.4l1.1-.1-.5-1.1zm3.3 4.5l-.4.1.3.3zm-6.5 9.3l-.2-.5-.4.4zm5.6-16.2l.6.8.6-1zm4.8-8.8l.5.1-.1-.7zm2.3-2l.3.5.3-.5zm-10.7 16l-.5 1.7 1.4-.1zm-.6 2.1l-.3 1.1.8-.6zm2.2-.3l-.1.5.7-.1zm-1.5.7v.5l.5-.2zm4.8-12.6l-.4.7 1.2.2zm.5 4.3l-.3-.2-.1.5zm1.1-1.8l-.8-.3v.9zm.8-3l.3-.3-.6-.3zm.9 1.1l.4.4.2-.5zm-5.6 9.9l-.1.4.5-.1zm-2.1 3.8l-.1.4.5-.1zm16.5-21.3l.2.5.3-.5z"/><path d="M221.7 56.4l.1.5.3-.3zm-.7 1.3l-.3.1.3.4zm0-1.6l.3.3.1-.4zm2-.2l-.2.4h.5zm.2-1.5l.4.3.1-.5zm-1.8.5l.3-.4-.6-.1zm-2 1.7l.3-.4-.6-.1zm.5-2.4v.5l.5-.2zm-7.2 18.1h.3l-.1-.4zm.5-2.7l.1.3.4-.2zm3.8 1l-.3.1.3.3zm-2-.5l.1.3.3-.2zm-1 2.9l-.2.3.3.1zm-1.3 2.4l-.2-.2-.1.4zm8.1-14.8h.5l-.3-.6zm-5.5.4l1.4.2-.9-1.1zm-2.5 7.2l.4.4.1-.7zm5.5-12l.4.3.2-.4zm3.5-1.1l-.3.4h.7zm-.3-1.7l-.3.7h.9zm-.9.9l-.4.8 1.1-.1zm-2.1 3.8l-.9-.9-.7 1z"/><path d="M219.2 56.2l.3-.6-.7.4zm-1.1.3l-.5.7 1.2.1zm-.2 7.3l.4.5.5-.5zm1.4-8.8v.4l.5-.3zm-7.2 17.5l-.1.4.5-.2zm.8-4.5l-.3.1.3.3zm-2.2 5.9l-.4.1.2.4zm.8-.7l-.1-.4-.3.4z"/><path d="M211.8 69.4l.5.1-.1-.5zm1.7-1.8h.5l-.1-.5zm-1-.8l-.3 1h1.2zm.1 3.2l-.1.7.7-.2zm1.8-2l-.8.3.6.7zm-2.8.8h.8l-.4-.7zm-1.2 4.3l-.3 1 1.2-.2zm2.1-1.9l-.8.1.7.8zm-1.8 1.7l.4.1-.1-.5zm1.8.6l-.1.5.5-.3zm-1.3.9l-.4.1.3.3zm6.3-12.2l-.1.7.7-.2z"/><path d="M215.9 62l-.1.5.7-.1zm.8-1.5l-.1.6.5-.2zm-.1 3l-.1.4.5-.1zm.6-.9h.5l-.2-.4zm-4.6 6.3l.5.7.5-.8zm1.8-2l.2.3.2-.3zm3-8.2l.4-.1-.2-.5zm-.1 1.2l.3-.1v-.4zm-2.8 6l.3.2.1-.4zm2.2-3.2l-.1.5.6-.2zm-.6.5l-.3-.6-.5.5zm.9-1.4l-.4.2.2.3zm.2 1.8v.3l.3-.2zm-2.1.7h-.8l.5.9zM211.6 76l.3-.3-.3-.2zm-2.1 1.2l.2-.4-.3-.1z"/><path d="M211.3 75.6l.3-.1-.4-.3zm-1.6 3.7l.4.2.1-.4zm1-2.5l.4-.3-.4-.3zm-1-2.1l.6.5.3-.8z"/><path d="M209.7 75.6l-.1 1 1.1-.3zm.3 2.6l-.2.3h.4zm3.8-11.7l.3.2.1-.5zm-.1-2.3l-.4 1 1.1-.1zm.6 1.1l-.2.4h.5zm2.8.9h-.8l.2.7zm3.6-10.2l-.1.3h.4zm-.4.8l.3-.4h-.6zm-2.5 4.7h.9l-.5-1zm1.7-2.8h.7l-.4-.7zm-1.5 1.5l1-.7-1.2-.6zm-1.6 4.9l.6-.3-.5-.4zm2.4-7.1l.5-.4-.6-.3zm3.3-2.8l.9-.6-1.1-.7zm-1.8 1l1-.7-1.2-.6zm-4.9 5.7l1.1-.2-.8-1z"/><path d="M221.6 59l-.4.3.5.2zm-1.9-2.4l-.8.5 1 .4zm1.5-3.3l-.7.5.9.4zm-1.1 5.6l-.4.2.4.2zm-4.6 7.5l-.4-.1.2.5zm-.7-4.2h1.3l-.9-.9zm5.2-4.4h1l-.5-.9zm-6 5.8l1.4.2-.9-1.2zm5-1.7h.4l-.2-.6zm-5.5 9.2l.4.4v-.6zm2.9-11.9l.9.1-.6-.7zm1.2 1.3l-.4.2.4.3zm1.3-.8l-.3.2.4.2zm-.9 8.1l.4.3.1-.5zm-.2-1.4l-.1.4.5-.1zm-1.9-.4l-.3-.4-.3.4zm.6 2.9l-.1.5.6-.3zm-.4-3.7l-.5.3.7.4zm2.3.2l.3.2.1-.3zm-3.6 1.6l-.5.5.8.2zm-.1 1.7l.4.3.1-.5zm2-1.7l.4.3.1-.5zm-7.6 11.5l.4.3.1-.4zm6.3-11.6l-.1.4.5.1zm5 .9h-.4l.1.4zm-2.5-9.2l-.3.4.5.1zm-1.5 10.3l-.4-.2.1.5z"/></g><defs xmlns="http://www.w3.org/2000/svg"><path id="hd-E" d="M217 109.2h-.1a.55.55 0 0 1-.3-.5l4.7-14.4c.9-3 3.6-13.1 3.6-13.1a.55.55 0 0 1 .5-.3.55.55 0 0 1 .3.5l-3.6 13.1c-.8 2.7-4.7 14.3-4.7 14.3 0 .3-.2.4-.4.4z"/></defs><g xmlns="http://www.w3.org/2000/svg" fill="#e79a7a"><path d="M248.6 443.3c-5.3 0-.8-11.3-.6-20.8-.3-1.8-2.8-29.2-6.1-54.4-2.3-17.4-3.3-42.1-3.7-44.5-.8-5.8-5.9-51.5-5.9-51.5l31.8-46s5.9 74.2 5.3 94.8c-.2 6.9-2.5 97.9 1.1 101.6 2.4 2.1 8.5 6.5 22.8 11 6.7 1.9 10.8 2.6 10.5 5.5s-1.4 2.8-1.4 2.8l-53.8 1.5z"/><path d="M183.9 440.9c-5.3-.8-4.6-8.7-2.4-13.5.3-2.1 4.7-33.9 7-61.6 1.7-20.5 10.4-50.8 10.8-56.5.5-6.5 0-100.7 0-100.7H260l-29.3 108.8c-2.8 14.4-29.4 100.9-27.6 103.6 2.4 2.1 9.3 11 23.7 15.5 6.7 1.9 10.8 2.6 10.5 5.5s-1.4 2.8-1.4 2.8l-52-3.9z"/></g><g xmlns="http://www.w3.org/2000/svg" fill="#c9755b"><path d="M200.7 407.8l-.6 1 1.1.2zm2.1 2.3l-.6 1.1 1.1.1zm1.7-3.6l-.6-.5-.2.7zm-4.5 2.1l-1.5-.1.4 1.3zm3.2 4.8l-1.6-.1.4 1.3zm-.3 3l-1.6-.2.4 1.3zm1.7-6.5l-1.5-.1.5 1.2zm-1.5-1l-1.5-.1.4 1.3zm-.8 2.8l-1.5-.1.5 1.3zm1.4-6.3l-1.5-.2.5 1.3zm.3 1.7l-1.4-.2.4 1.3zm-5.5 5.7l-.7 1.1h1.2zm1.9-6.6l-.6 1.2 1.1.1zm-1.7 8.8l-.4.8h.9zm1-4.1l.5.5.2-.6zm-5.5 2.7l.6-.4-.6-.4zm2.7 7.9l-.7-.4-.1.7zm4.1 1l-.5.5.7.2zm-2.7-5.5l.5.6.3-.6zm.2 2.7l.5.5.3-.5zm3-4.8l-.6 1.2 1.2.1zm1.8 3.2l-1.6 1.1 1.5.9zm-1.8-4.8l-1.9-.2.4 1.7zm-4.1-5l-.7-.4-.1.8z"/><path d="M198.6 407.9l.2-.7-.7.1zm-4 .6l-.5.5.7.2zm4.6 4.2l-.6.5.6.2zm1.7 2.2l2.3 1.7.5-2.6zm.6-2.9l2.3 1.8.6-2.5zm1.1-3.4l2.2 1.9.7-2.5zm-1.1 10.2l-.3-1.3-.8.7zm3.1-27.2l-.6 1.1 1.1.1zm2.1 2.3l-.6 1.2 1.1.1zm-2.7-1.4l-1.6-.1.4 1.3zm3.3 4.5l-1.5-.2.4 1.3zm-.3 3.1l-1.5-.1.4 1.3zm1.6-6.3l-1.6-.1.5 1.3zm-1.6-1l-1.5-.1.4 1.3zm-.5 2.5l-1.5-.2.5 1.3zm1.4-4.3l-1.5-.1.4 1.2zm-5.4 13.8l-1.6-.2.5 1.4zm.2-2.2l.6-1.4-1.4-.1zm.2 2.3l.6-1.4-1.4-.1zm-.2-8.2l-.6 1.1 1.1.1zm1.6-6.5l-.7 1.1 1.2.1zm-1.5 8.2l-.3.8.7.1zm1-3.9l.6.4.2-.6zm-5.5 2.5l.6-.4-.5-.3zm-1.2-3.5l-.8-.4-.1.8zm4 1l-.5.7.6.1zm-2.6-5.5l.4.6.4-.6zm-6.2 13.1l-.8-.4-.1.9zm3.9 1.1l-.5.5.6.2zm-2.5-5.6l.4.6.3-.5zm5.6 5.6l-1.1 1.2 1.4.4zm-2.2-2.3l.5.6.3-.6z"/><path d="M200.2 404.9l-.2-.9-.6.4zm1.4 3.8l-.7-.1.3.7zm3.1-5.2l-.2.6h.7zm-5.1 2.1l-1-.7-.2 1.1zm5.1 2l-.7.7.8.3zm-2.5-7.7l.5.8.5-.7zm-3.2 9.4l-.1-1.1-.9.6zm2 4.7h-1l.3.7z"/><path d="M204.5 407.4l-.2.9.8-.1zm-3.5-8.9l-.2-.9-.6.5zm1.4 3.8h-.7l.2.6zm3.1-5.2l-.3.6h.7zm.3 1.8l-.7 1.1 1.2.2zm-1-.1l-1.7 1.1 1.5 1zm.9-2l-2-.3.5 1.7zm-1.3 9.2l-2-.2.6 1.7z"/><path d="M204 401.2l-.7 1.2 1.2.1zm1.2.8l-.6 1.1 1.2.2zm-3.9-9.7l-.8-.5v.8zm1.3-.5l.1-.7-.6.2zm-3.7.1l-.5.5.6.2zm6.2 11.8l-.6-.4-.1.6zm-1.7-7.5l-.7.5.7.3zm1.8 9.7l-1.4-.2.4 1.3z"/><path d="M203.6 404.7l2.3 1.7.5-2.5zm.7-2.9l2.3 1.7.5-2.6zm.8-3.1l2.2 1.7.7-2.4zm.6-3l2.2 1.8.7-2.4zm.9-3.2l2.2 1.9.7-2.5zm-6.7 8.9l-.1-.6-.5.3zm-.6-1.8l-.2-1.2-.9.6zm-.4 3.6l-.2-.7-.4.3z"/><path d="M200.1 401.7l-.1-.6-.5.3zm-3.2-3.4l-.3-1-.7.6zm1.9 4.3h-.9l.3.7zm3.1-6.2l-.3.9.8-.2zm4.2-10.8l-.7 1.1 1.1.1zm1.8 2.5l-.6 1.1 1.2.2zm2.4-3.4l-.6-.5-.2.6zm-5.1 1.9l-1.5-.1.4 1.3zm4.8 1.3l-1.6-.2.5 1.3zm-1.6-1l-1.5-.1.5 1.2zm-.6 2.9l-1.5-.2.4 1.4zm1.8-6.2l-1.5-.3.4 1.3zm-.2 1.5l-1.4-.2.3 1.3zm-3.5-1l-.7 1.1 1.1.2zm5.1-12.2l.4 1.3 1.2-.2zm-6.9 21.1l-.4.7.8.1z"/><path d="M205.2 389l.5.4.2-.6zm-5.6 2.5l.7-.5-.6-.3zm-1-3.9l-.8-.4v.8zm4 1.2l-.5.6.6.2zm-2.4-5.5l.4.5.3-.5zm2.4 3l-.8-.4-.1.7zm1.4-.6l.2-.7-.6.2zm-3.8.6l-.5.5.6.2zm7.3 2.9l2.3 1.7.6-2.5z"/><path d="M208 386.8l2.2 1.9.7-2.4zm5-8.1l-1.4-.2.4 1.3zm-4.7 4.2l-1.5-.1.4 1.3zm.3-1.9l.7-1.4H208zm.2 1.9l.7-1.3-1.4-.1zm-3.5-1.8l-1.2 1.2 1.4.5zm1.6-4.1l.4.7.4-.6zm.6-1l-.1-.9-.7.3z"/><path d="M208.8 379.8h-.7l.2.6zm3.3-5.1l-.3.7h.6zm-7.3 12.4l-.2-1.1-.8.5zm1.6 4.8h-.9l.3.7zm4-6.3l-.3.8h.8zm-2.6-6.4l-1.7 1 1.5 1zm4.8-6.2l-.5 1.5 1.7-.7zm-1.3 2.6l-.4 1.4 1.2-.2zm.6-2.1l-1.4-.3.3 1.2zm-.6 3.8l-1.7 1.1 1.5 1zm3.1-3.1l-1.9.9 1.4 1.1zm-4.6 9.9l-1.9-.4.5 1.8zm.3-4.4l-.8 1.1 1.1.2zm1.2.8l-.7 1.1 1.1.2z"/><path d="M211 381.9l-.5-.4-.2.6zm0 2.2l-1.4-.2.4 1.3z"/><path d="M209.1 383.1l2.3 1.8.6-2.5zm1-3l2.2 1.7.6-2.5zm.9-2.8l2.1 1.8.7-2.5zm-5.3 3.2l-.1-.7-.6.4zm3.9-2l-.2-1.2-.9.6zm-4.7 2.6l-.2-.7-.5.4zm18.3-53l-.7 1.1 1.2.1zm-9.8 42.3l-.6 1.2h1.2zm-2.7-1.4l-1.6-.2.4 1.3zm4.6 1.2l-1.6-.1.5 1.3zm-1.5-.9l-1.6-.2.5 1.3zm-3 2.1l-1.6-.2.5 1.3zm15.7-44l-1.6-.1.5 1.3zm-3.6-.8l-.7 1.2h1.1zm-13.3 48.2l-.4.8.7.1zm.9-3.9l.7.5.1-.7z"/><path d="M205.1 373.4l.6-.3-.6-.4zm-1.2 2.1l-.8-.4-.1.8zm4 1l-.5.6.7.2zm-2.6-5.5l.4.6.4-.6zm2.8-2.3l-.8-.5-.1.8zm13-40.4l.2-.7-.7.2zm-15.5 40l-.5.5.6.2zm6.8 3.9l2.2 1.9.7-2.4zm1-3.2l2.2 1.9.7-2.5zm2.5-17.4l-.6 1.1 1.1.2zm2.1 2.4l-.7 1.2 1.2.1zm-2.7-1.5l-1.6-.2.4 1.3zm3.2 4.5l-1.5-.2.4 1.3zm-.4 3.2l-1.5-.2.4 1.3zm1.7-6.3l-1.5-.2.4 1.3zm-1.5-1l-1.6-.2.5 1.3zm-.5 2.5l-1.6-.3.5 1.3zm1.4-4.4l-1.5-.1.4 1.3zm-5.4 11.5l.6-1.4H213zm.2 2.3l.6-1.4h-1.4zm-.1-8.2l-.6 1.2 1.1.1zm1.8-6.4l-.7 1.1 1.1.1zm-1.7 8.2l-.3.8.7.1zm1.1-4l.6.5.1-.6zm-5.6 2.5l.6-.4-.5-.3zm-1.2-3.5l-.7-.4-.1.8zm4 1.1l-.5.6.7.1zm-2.4-5.6l.4.6.3-.5zm-6.3 16.8l-.8-.4v.8zm4 1.1l-.6.5.7.2zm-2.5-5.6l.5.6.3-.5zm8.7 4.1l-1.2 1.1 1.5.5z"/><path d="M208.3 360.7l.4.7.4-.6zm3.5 3.8l-.2-.9-.6.5zm1.4 3.9l-.7-.1.2.7zm3.1-5.2l-.2.7.6-.1zm-5.7 2.3l-.9-.7-.2 1zm5.1 2.1l-.7.7.8.3zm-2.3-7.8l.4.9.6-.7zm-1.2-1.4l-.2-.8-.6.4z"/><path d="M213.5 362.3h-.7l.2.6zm3.2-5.2l-.3.7.7-.1zm.2 1.8l-.6 1.1 1.1.2zm-1-.1l-1.7 1.1 1.5 1zm1-1.9l-2-.4.5 1.7zm-1.8 4.3l-.7 1.2 1.2.1zm1.2.8l-.6 1.1 1.1.2zm-3.7-9.8l-.7-.5-.1.8z"/><path d="M213.9 351.8l.2-.7-.7.1zm-3.7 0l-.5.5.6.2zm6 11.9l-.6-.4-.1.6zm-1.6-7.5l-.7.4.7.3zm0 8.5l2.3 1.7.6-2.5zm.8-2.9l2.3 1.7.6-2.5z"/><path d="M214.2 366.9l2.3 1.7.6-2.5zm2-8.1l2.3 1.7.7-2.5zm.7-3.1l2.2 1.9.8-2.4zm1-3.1l2.2 1.9.7-2.5zm-6.8 8.7l-.2-.6-.5.3zm-.6-1.8l-.3-1.2-.9.6z"/><path d="M207.7 364.7l-.1-.8-.5.4zm3.5-3.1l-.1-.6-.5.3zm-.7.8l-.2-.9-.8.5zm1.9 4.4l-.9-.1.3.7zm3.1-6.2l-.3.9.8-.2zm2-15l-.7 1.1 1.1.2zm1.8 2.6l-.7 1 1.2.2zm2.4-3.4l-.5-.5-.2.6zm-5.1 1.8l-1.5-.1.4 1.3zm4.7 1.4l-1.5-.2.4 1.3zm-1.5-1l-1.5-.2.4 1.3zm-.6 2.9l-1.5-.2.3 1.3zm1.9-6.2l-1.6-.3.4 1.3zm-.2 1.5l-1.5-.2.4 1.3zm-3.6-1.1l-.7 1.1 1.2.2zm5.4-12l.4 1.2 1.1-.2z"/><path d="M215.4 353l-.4.7.8.1zm1.1-4l.6.5.2-.7zm-5.6 2.4l.7-.4-.6-.4zm-.4-6.7l-.7-.4-.1.7zm4 1.3l-.5.5.6.2zm-2.2-5.7l.4.6.3-.5zm1.7 5.9l-.8-.4-.1.7zm1.4-.5l.3-.7-.7.2zm-3.8.5l-.5.5.6.2zm7.3 3.1l2.3 1.7.6-2.4z"/><path d="M219.4 346.9l2.2 1.9.7-2.4zm5.2-8l-1.5-.2.4 1.3zm-4.8 4.1l-1.5-.2.4 1.3zm.3-1.9l.7-1.4-1.3-.1zm.2 1.9l.7-1.3-1.4-.1zm-3.5-1.9l-1.2 1.2 1.4.5zm1.7-4l.4.6.4-.6zm.6-1.1v-.9l-.8.4z"/><path d="M220.4 339.9l-.7-.1.1.7zm3.3-5l-.3.6.6.1zm-7.5 12.2l-.1-1.1-.9.5zm1.5 4.9l-.9-.1.2.8zm4.1-6.3l-.3.8h.8zm-2.5-6.5l-1.7 1.1 1.5 1zm5-6l-.5 1.4 1.7-.6zm-1.4 2.6l-.4 1.3 1.2-.1zm.6-2.2l-1.3-.2.2 1.2zm-.6 3.9l-1.7 1 1.5 1zm3.2-3.1l-2 .9 1.4 1zm-4.8 9.8l-2-.4.5 1.8zm.3-4.4l-.8 1.1 1.1.2zm1.2.9l-.7 1.1 1.1.2z"/><path d="M222.5 342.1l-.5-.5-.2.6zm0 2.1l-1.5-.2.4 1.3z"/><path d="M220.6 343.2l2.2 1.8.7-2.4zm1-3l2.2 1.7.7-2.4zm1-2.8l2.1 1.9.7-2.5zm-5.4 3.1l-.1-.7-.5.4zm4-1.9l-.2-1.2-.9.6zm-4.8 2.5l-.2-.7-.5.4zm8.8-10.6l-.7 1.2 1.2.1zm-2.8-1.4l-1.5-.2.4 1.3zm4.6 1.3l-1.6-.1.5 1.3zm-1.5-.9l-1.6-.2.5 1.3zm-3 2l-1.6-.2.5 1.3zm-1.3 3.4l-.3.8.7.1zm1-3.9l.7.5.1-.7zm-5.5 2.4l.6-.3-.5-.4zm-1.2 2.1l-.8-.4v.8zm4 1.1l-.5.6.6.1z"/><path d="M217 331.1l.4.6.4-.6zm2.8-2.3l-.8-.5v.8zm-2.4-.5l-.5.5.6.3zm6.6 4.1l2.2 1.9.8-2.4zm1.1-3.2l2.2 1.9.7-2.5zm-.6-7.2l-.6 1.1 1.1.1zm1.9 2.5l-.6 1.1 1.2.1zm2.3-3.5l-.6-.5-.2.7zm-5 2.1l-1.6-.1.4 1.2zm4.7 1.2l-1.6-.2.6 1.3zm-1.5-1l-1.6-.1.5 1.2zm-.6 2.9l-1.5-.2.5 1.4zm1.7-6.3l-1.6-.2.4 1.3zm-.2 1.6l-1.4-.2.4 1.3zm-3.6-1l-.6 1.1 1.2.2zm5-12.1l.5 1.2 1.1-.2z"/><path d="M222.7 329.4l-.4.8h.8zm1-4l.5.5.2-.7zm-5.5 2.7l.6-.5-.6-.4zm-1.8-1l-.8-.4v.8zm4 1.1l-.5.6.6.2zm-2.5-5.5l.4.5.4-.5zm3.1.1l-.8-.4v.7zm1.4-.6l.2-.7-.6.1zm-3.7.7l-.5.5.6.2zm7.1 3.6l2.3 1.7.6-2.5zm.7-3.4l2.3 1.8.7-2.4zm4.9-8l-1.4-.1.4 1.3zm-4.7 4.2l-1.5-.1.4 1.3zm.4-1.8l.6-1.4h-1.3zm.2 1.9l.6-1.3h-1.3zm1.9-12.8l-1.1 1.2 1.4.4z"/><path d="M225.3 313.6l.4.6.4-.6zm.5-1.1l-.1-.9-.7.4zm1.5 3.9l-.8-.1.2.6zm3.1-5.2l-.3.6h.6zm-7.2 12.3l-.1-1.1-.8.5zm1.8 4.8h-1l.3.8zm3.8-6.4l-.3.8h.8zm-2.6-6.2l-1.6 1.1 1.5 1zm4.7-6.3l-.5 1.5 1.7-.7zm-1.3 2.7l-.3 1.3 1.2-.1zm.5-2.2l-1.3-.2.3 1.2zm-.4 3.9l-1.7 1.1 1.5.9zm2.8-3.4l-1.9.9 1.5 1zm-4.3 10l-1.9-.3.5 1.7zm.3-4.2l-.7 1.1 1.1.2zm1.2.8l-.7 1.1 1.2.2z"/><path d="M229.5 318.4l-.6-.4-.2.6zm-.1 2l-1.5-.2.5 1.3z"/><path d="M227.6 319.6l2.3 1.7.6-2.4zm.9-3.2l2.2 1.6.6-2.5zm.7-3.1l2.2 1.7.6-2.5zm-5.1 3.8l-.1-.7-.5.4zm3.9-2.1l-.3-1.2-.8.6zm-4.8 2.6l-.2-.8-.5.4zm5.9-13.4l-.7 1.1 1.1.2zm2 2.7l-.6 1.1 1.1.1zm2.1-3.7l-.5-.4-.2.6zm-5 2.1l-1.6-.1.5 1.2zm4.9 1.3l-1.6-.1.6 1.2zm-1.5-.9l-1.6-.2.5 1.3zm.9-3.6l-1.5-.2.4 1.3zm0 1.8l-1.4-.2.4 1.3zm-3.7-1.1l-.7 1 1.2.2zm-1.9 1.6l.3-.7-.7.2z"/><path d="M230.3 308.7l2.3 1.6.6-2.5zm.8-3.1l2.3 1.8.6-2.4zm.1-4.1l-1.5-.1.4 1.3zm-3.4 7.8l-1.7 1.2 1.6.9zm5.1-6.5l-2-.3.6 1.7z"/><path d="M234 302.6l-1.5-.1.4 1.3z"/><path d="M232 301.7l2.3 1.7.6-2.5z"/></g><linearGradient xmlns="http://www.w3.org/2000/svg" id="bt-A" gradientUnits="userSpaceOnUse" x1="210.3284" y1="344.5841" x2="247.0407" y2="356.0571"><stop offset="0" stop-color="#cc7a5e" stop-opacity="0"/><stop offset=".9241" stop-color="#aa5f4b"/></linearGradient><path xmlns="http://www.w3.org/2000/svg" d="M203 420.5c.3-4.4 11.9-45.7 26.6-97.4l14.4-63.8c-1-12.2-15.1 5.1-16.1 3.6l-7.6 1.8s-16.5 3.9-17 9.3c-.5 5.8 5.1 50.3 0 68.7-4.9 18.4-17.7 75.9-15.4 86.4 3.7 17.4 27.9 13.1 26.5-1.1-7.5-3.7-11.6-6.4-11.4-7.5z" fill="url(#bt-A)"/><linearGradient xmlns="http://www.w3.org/2000/svg" id="bt-B" gradientUnits="userSpaceOnUse" x1="219.3388" y1="320.4659" x2="218.1561" y2="296.0781"><stop offset="0" stop-color="#cc7a5e" stop-opacity="0"/><stop offset=".9241" stop-color="#aa5f4b"/></linearGradient><path xmlns="http://www.w3.org/2000/svg" d="M208.1 321.1c11.2.4 20.4 5.8 20.4 5.8s3.2-8.3 3.9-13.2c.5-3.4 7.4-26.1 7.4-26.1l-39.9 3.8-.6 20.1-2 9.3c.1.2 6.1.1 10.8.3z" fill="url(#bt-B)"/><g xmlns="http://www.w3.org/2000/svg" fill="#c9755b"><path d="M264.1 408.3l-.3 1.2 1.1-.1zm2.7 1.7l-.4 1.2 1.1-.2zm.6-4l-.8-.2.1.6zm-3.7 3.4l-1.5.3.7 1.1zm4.3 3.7l-1.5.3.7 1.1zm.6 2.9l-1.6.2.8 1.2zm-.2-6.7l-1.5.3.9 1.1zm-1.7-.5l-1.5.3.8 1.1zm.1 2.9l-1.5.3.8 1.1zm-.5-6.5l-1.5.2.8 1.1zm.8 1.6l-1.5.2.8 1.1zm-3.8 7l-.3 1.2 1.2-.3zm0-6.8l-.2 1.2 1.1-.2zm.9 8.8l-.1.9.7-.2zm-.2-4.1l.6.2.1-.6zm-4.5 4.1l.5-.6-.7-.2z"/><path d="M264.4 422.6l-.9-.1.1.6zm4.1-.2l-.3.6.7.1zm-4.1-4.5l.6.4.1-.6zm.9 2.5l.6.4.2-.6zm1.6-5.4l-.3 1.3 1.1-.3zm2.6 2.5l-1.3 1.6 1.7.4zm-3.1-4.1l-1.9.4.9 1.4zm-5.3-3.6l-.9-.2.1.8z"/><path d="M262.1 409.1v-.8l-.6.4zm-3.7 1.6l-.3.7h.7zm5.6 2.8l-.4.6.6.1zm2.3 1.6l2.6 1-.2-2.6zm-.2-3l2.6 1.1-.1-2.5zm0-3.5l2.7 1.3-.1-2.7zm1.9 10.1l-.7-1.2-.6 1zm-4.4-26.7l-.4 1.3 1.2-.2zm2.6 1.7l-.3 1.3 1.2-.2zm-3-.6l-1.6.3.8 1.1zm4.4 3.4l-1.5.2.8 1.1zm.3 2.7l-1.5.4.8 1.1zm.1-6.2l-1.6.3.8 1.2zm-1.8-.5l-1.5.3.8 1.2zm.2 2.6l-1.5.2.8 1.1zm.2-4.6l-1.5.3.7 1.1zm-1.7 14.5l-1.5.3.8 1.2zm-.4-2.2l.2-1.5-1.4.4zm.9 2.1l.1-1.5-1.3.4zm-2.5-7.8l-.3 1.3 1.1-.2zm0-6.4l-.4 1.3 1.2-.3zm.8 8.3l-.1.9.7-.1zm-.1-4l.7.3v-.7zm-4.6 3.9l.5-.5-.6-.2zm-2.2-3l-.8-.1.2.8zm4.2-.1l-.3.7h.6zm-4-4.6l.5.5.2-.7zm-2.6 14.1l-.9-.1.2.8zm4.1-.1l-.3.7h.6zm-4-4.6l.6.4.1-.5zm6.9 3.7l-.7 1.5h1.5zm-2.7-1.5l.6.4.2-.6z"/><path d="M262.8 405.7l-.4-.8-.5.6zm2.4 3.3l-.7.1.5.6zm1.5-5.9v.7l.6-.2zm-4.3 3.4l-1.1-.3.1 1.1zm5.5.6l-.5.8.9.1zm-4.6-6.8l.7.7.3-.8zm-.4 10l-.5-1.1-.6.9zm3.2 4l-1 .2.5.6z"/><path d="M267.7 406.9v.9l.7-.3zm-5.9-7.6l-.5-.7-.5.6zm2.4 3.3l-.7.3.3.5zm1.5-5.9l-.1.8.6-.3zm.7 1.7l-.3 1.2 1.2-.1zm-1 .2l-1.3 1.6 1.7.4zm.3-2.2l-1.9.3 1 1.5zm1.4 9.3l-1.9.3 1 1.4z"/><path d="M265.3 401.2l-.2 1.3 1.1-.3zm1.5.4l-.3 1.2 1.1-.2zm-6.2-8l-.9-.3.2.8zm1-.8v-.7l-.6.3zm-3.4 1.1l-.4.6h.7zm9 9.3l-.7-.3.1.7zm-3.8-6.7l-.5.6.7.1zm4.5 8.8l-1.5.2.8 1.2z"/><path d="M266 404.6l2.6 1-.1-2.6zm-.2-3l2.7 1-.2-2.6zm-.1-3.1l2.7.9-.1-2.5zm0-2.8l2.6 1.1.1-2.5zm.1-3.4l2.6 1.3v-2.7zm-4.3 10.2l-.3-.6-.4.5zm-1.1-1.6l-.6-1.1-.6.9zm.6 3.6l-.3-.7-.4.5z"/><path d="M261.8 402.7l-.3-.6-.4.5zm-4.1-2.3l-.5-.9-.5.7zm3.1 3.5l-.9.3.5.5zm1.2-6.8v.9l.6-.4zm1.3-11.3l-.3 1.2 1.1-.1zm2.5 1.9l-.4 1.3 1.2-.2zm1.3-3.9l-.6-.3-.1.7zm-4.3 3.3l-1.6.3.8 1.1zm4.9-.1l-1.6.3.8 1.1zm-1.7-.5l-1.6.2.8 1.1zm.1 2.9l-1.4.2.7 1.2zm0-6.5l-1.5.2.7 1.1zm.3 1.6l-1.5.2.8 1.1zm-3.7 0l-.4 1.2 1.2-.1zm1.6-13.1l.7 1 1.1-.5zm-.9 22.1l-.1.8.8-.2z"/><path d="M263.4 389.4l.6.2v-.6zm-4.7 3.9l.5-.6-.7-.2zm-2.1-3.4l-.8-.2.2.7zm4.2 0l-.3.7h.6zm-3.8-4.7l.6.4.1-.6zm3.1 2.3l-.8-.2.1.7zm1.2-1l.1-.7-.6.3zm-3.4 1.6l-.4.7h.7zm7.8.8l2.7 1-.1-2.5z"/><path d="M265.5 386.5l2.6 1.2.1-2.5zm2.6-9.2l-1.4.2.7 1.2zm-3.4 5.3l-1.4.3.7 1.2zm-.2-1.8l.2-1.6-1.2.3zm.7 1.7l.3-1.4-1.4.3zm-3.9-.8l-.8 1.5 1.5.1zm.5-4.4l.5.6.3-.7zm.2-1.1l-.3-.8-.6.5z"/><path d="M264.4 379.6l-.7.1.3.6zm1.7-5.9l-.1.7.6-.1zm-3.6 13.9l-.5-1-.6.7zm2.9 4.2l-.9.2.4.7zm2-7.2v.9l.7-.2zm-4.2-5.4l-1.3 1.5 1.7.5zm3-7.3l-.1 1.6 1.4-1.1zm-.6 2.9v1.4l1.1-.5zm-.1-2.2l-1.3.1.5 1.1zm.6 3.9l-1.4 1.4 1.7.6zm2.1-3.9l-1.6 1.4 1.7.6zm-1.7 10.8l-2 .2 1 1.5zm-1-4.3l-.4 1.3 1.1-.2zm1.4.4l-.4 1.3 1.2-.1z"/><path d="M267.1 381l-.7-.3v.6zm.6 2.1l-1.5.2.7 1.1z"/><path d="M265.6 382.6l2.6 1.1v-2.6zm0-3.2l2.6 1.1v-2.6zm.2-2.9l2.5 1.1v-2.5zm-4.3 4.6l-.3-.7-.4.5zm3.3-3.1l-.6-1.1-.7.9zm-3.9 3.9l-.3-.7-.4.5zm3.9-56.4l-.3 1.2 1.1-.2zm1.4 43.7l-.3 1.3 1.2-.3zm-3-.6l-1.6.3.8 1.1zm4.7-.1l-1.5.3.8 1.2zm-1.7-.5l-1.6.3.9 1.2zm-2.3 2.9l-1.5.2.8 1.1zm3.9-46.9l-1.5.3.7 1.1zm-3.7.2l-.4 1.2 1.2-.2zm-.4 50.3l-.1.9.7-.1zm-.2-4l.8.3-.1-.7z"/><path d="M259 374.4l.5-.5-.7-.2zm-.6 2.4l-.8-.2.1.8zm4.1-.2l-.2.8.6-.1zm-3.9-4.5l.5.4.2-.7zm2-3l-.9-.3.2.8zm2.3-42.8l-.1-.8-.6.3zm-4.8 43l-.3.7h.6zm7.6 2l2.6 1.1v-2.5zm.1-3.4l2.6 1.2v-2.6zm-2-17.8l-.4 1.2 1.1-.1zm2.5 1.8l-.3 1.3 1.1-.2zm-3-.8l-1.5.3.7 1.1zm4.3 3.6l-1.5.2.7 1.1zm.4 3.1l-1.5.3.7 1.1zm.1-6.5l-1.6.2.8 1.2zm-1.7-.6l-1.6.3.8 1.1zm.1 2.5l-1.6.2.8 1.2zm.3-4.5l-1.5.3.7 1.1zm-2.4 12.5l.3-1.5-1.4.3zm.8 2.2l.3-1.5-1.4.3zm-2.1-7.9l-.4 1.3 1.2-.3zm0-6.8l-.4 1.3 1.2-.2zm.5 8.4l-.1.9.7-.1zm0-4l.8.3-.1-.7zm-4.7 3.7l.5-.5-.6-.2zm-2-3.1l-.9-.2.2.8zm4.1.1l-.3.7h.6zm-3.8-4.8l.5.5.3-.6zm-1.8 17.8l-.9-.2.2.8zm4.1.1l-.4.6.7.1zm-3.8-4.8l.6.4.2-.5zm9.4 1.8l-.8 1.4h1.5zm-6.5-3l.6.5.2-.7zm4.4 2.7l-.4-.8-.5.6zm2.3 3.4l-.7.1.4.6zm1.8-5.8l-.1.7.6-.2zm-4.9 3.7l-1.2-.4.1 1zm5.4.8l-.5.8.9.1zm-4.2-7l.6.7.4-.8zm-1.5-1.1l-.4-.8-.5.6z"/><path d="M264.2 361l-.8.2.4.5zm1.7-5.8l-.1.7.6-.2zm.7 1.7l-.4 1.2 1.2-.1zm-1 .1l-1.4 1.6 1.7.5zm.4-2.1l-2 .2.9 1.5zm-.6 4.7l-.4 1.3 1.2-.2zm1.4.5l-.3 1.2 1.1-.1zm-6.1-8.6l-.9-.3.2.8z"/><path d="M261.8 350.8v-.8l-.6.4zm-3.5.9l-.4.6.6.1zm8.8 10l-.7-.2.1.6zm-3.5-6.8l-.5.6.7.1zm2.2 8.2l2.7 1.1-.1-2.6zm0-3l2.7 1.1-.1-2.6z"/><path d="M266 365.3l2.6 1.1-.1-2.6zm-.1-8.4l2.6 1.1v-2.5zm-.1-3.1l2.5 1.3.2-2.5zm.1-3.3l2.6 1.3.1-2.6zm-4.4 10.2l-.3-.6-.4.5zm-1-1.6l-.6-1.1-.7.8z"/><path d="M259.1 364.8l-.3-.7-.4.5zm2.7-3.8l-.3-.6-.4.4zm-.6 1l-.4-.9-.6.7zm3 3.7l-.9.2.4.5zm1.4-6.8v.9l.7-.3zm-1.8-15l-.4 1.2 1.1-.1zm2.5 2.2l-.4 1.2 1.2-.1zm1.5-3.9l-.6-.3-.1.6zm-4.6 2.9l-1.6.2.7 1.2zm5.1.4l-1.6.1.8 1.2zm-1.9-.8l-1.6.2.8 1.1zm0 2.9l-1.4.2.6 1.2zm.5-6.3l-1.6.1.7 1.2zm.2 1.6l-1.5.1.7 1.2zm-3.9-.4l-.4 1.2 1.2-.1zm2.1-13l.7 1.1 1.1-.5z"/><path d="M263.5 351.5l-.1.9.8-.2zm.2-4.1l.6.3.1-.6zm-4.8 3.8l.5-.6-.7-.2zm-2.1-6.4l-.9-.2.2.7zm4.2.2l-.4.6.6.1zm-3.7-4.9l.6.5.2-.6zm3.2 5.3l-.8-.2.1.7zm1.2-.9l.1-.7-.6.3zm-3.5 1.5l-.3.6h.6zm8 1.3l2.6 1.1.1-2.6z"/><path d="M266 344.8l2.7 1.3.1-2.5zm2.9-9.2l-1.5.2.7 1.1zm-3.6 5.2l-1.5.2.7 1.2zm-.1-1.9l.3-1.6-1.3.3zm.6 1.8l.3-1.5-1.3.3zm-3.9-1l-.8 1.5 1.4.1zm.7-4.3l.5.5.3-.7zm.3-1.2l-.3-.8-.6.5z"/><path d="M265.1 337.7l-.7.1.3.6zm1.9-5.8l-.1.7.6-.1zm-4 13.9l-.4-1-.6.7zm2.7 4.4l-.9.1.5.7zm2.4-7.1l-.1.9.8-.3zm-4.2-5.8l-1.4 1.4 1.7.6zm3.3-7.2l-.2 1.6 1.5-1.1zm-.7 2.9l-.1 1.4 1.2-.4zm0-2.3l-1.3.1.5 1.2zm.4 3.9l-1.4 1.5 1.7.6zm2.3-3.7l-1.7 1.3 1.7.7zm-2 10.8l-1.9.2.8 1.5zm-.8-4.3l-.4 1.3 1.1-.1zm1.4.5l-.4 1.3 1.1-.1z"/><path d="M267.9 339.4l-.6-.3-.1.6zm.5 2.1l-1.5.1.7 1.2z"/><path d="M266.3 341l2.6 1.2.1-2.6zm.2-3.2l2.6 1.1v-2.5zm.1-3.1l2.5 1.2.1-2.5zm-4.4 4.4l-.3-.7-.4.5zm3.3-2.9l-.5-1.1-.7.8zm-4 3.7l-.3-.8-.4.6zm5.8-12.5l-.3 1.3 1.1-.2zm-3-.8l-1.5.3.7 1.1zm4.8.2l-1.6.2.8 1.2zm-1.7-.6l-1.6.3.8 1.1zM265 329l-1.6.1.8 1.2zm-.4 3.6l-.1.9.7-.1zm0-4l.7.3v-.7zm-4.7 3.7l.5-.5-.6-.2zm-.7 2.3l-.8-.2.1.8zm4.2.1l-.4.7h.7z"/><path d="M259.6 329.9l.5.5.2-.6zm2.1-2.9l-.9-.3.2.8zm-2.4.2l-.4.6.6.1zm7.4 2.3l2.6 1.2.1-2.5zm0-3.3l2.5 1.3.1-2.6zm-2.3-7.2l-.4 1.3 1.1-.2zm2.5 1.9l-.4 1.2 1.2-.1zm1.2-4l-.7-.2v.6zm-4.3 3.4l-1.5.3.8 1.1zm4.9-.2l-1.5.3.8 1.1zm-1.7-.5l-1.6.3.9 1.1zm.3 3.3l-1.4.2.7 1.2zm-.2-6.8l-1.5.2.7 1.1zm.3 1.5l-1.5.3.8 1.1zm-3.7.1l-.4 1.2 1.2-.1zm1.5-13.1l.8 1.1 1-.6zm-.6 22.3l-.1.9.8-.2zm0-4.1l.6.3.1-.7zm-4.7 3.9l.5-.6-.6-.1zm-1.9-.4l-.9-.2.2.7zm4.2 0l-.4.7h.7zm-3.9-4.7l.6.4.2-.6zm2.9-.9l-.9-.1.2.7zm1.2-.9v-.8l-.6.4z"/><path d="M259 321.4l-.4.7h.7zm7.8 1.5l2.7 1-.1-2.6zm-.2-3.4l2.7 1.2v-2.5zm2.6-9l-1.4.2.7 1.1zm-3.5 5.3l-1.5.3.8 1.1zm0-1.8l.2-1.6-1.2.4zm.8 1.8l.2-1.5-1.3.3zm-1.8-12.9l-.8 1.5h1.5z"/><path d="M262.9 310.7l.6.5.2-.7zm.2-1.2l-.3-.8-.6.6zm2.5 3.3l-.7.2.3.5zm1.5-5.9l-.1.7.6-.1zm-3.4 14.2l-.5-1.1-.6.8zm2.9 4.2l-.9.2.5.6zm2-7.2v.9l.8-.3zm-4.3-5.6l-1.2 1.5 1.7.5zm2.8-7.4v1.6l1.4-1.2zm-.5 2.9v1.4l1.2-.5zm-.1-2.2l-1.4.2.7 1.1zm.7 3.9l-1.4 1.5 1.8.5zm1.7-4.1l-1.6 1.4 1.7.6zm-1.4 10.9l-2 .3 1 1.5zm-.8-4.2l-.4 1.3 1.1-.2zm1.4.4l-.3 1.3 1.1-.2z"/><path d="M268.3 314.1l-.7-.2v.6zm.4 2.1l-1.5.2.7 1.1z"/><path d="M266.7 315.9l2.7 1-.1-2.5zm0-3.4l2.6.9-.1-2.5zm.1-3.1l2.6 1.1-.2-2.6zm-4.1 5l-.3-.6-.4.5zm3.2-3.1l-.6-1.1-.7.9zm-3.9 3.8l-.4-.6-.4.5zm1.9-14.4l-.4 1.2 1.2-.2zm2.7 1.9l-.3 1.2 1.1-.1z"/><path d="M267.6 298.5l-.7-.2v.6zm-4.2 3.4l-1.6.4.8 1.1zm5-.1l-1.5.3.8 1.1zm-1.7-.4l-1.6.3.9 1zm.4-2.1l-1.5.3.8 1.1zm-3.9.1l-.3 1.2 1.1-.2zm-1.3 2v-.7l-.6.3zm4.6 3.4l2.7.9-.2-2.6z"/><path d="M266.2 301.4l2.7 1.1V300zm-2.1 4.5l-1.3 1.6 1.8.5zm3-7.7l-1.9.3 1 1.5z"/></g><linearGradient xmlns="http://www.w3.org/2000/svg" id="bt-C" gradientUnits="userSpaceOnUse" x1="259.715" y1="348.6085" x2="287.0917" y2="349.4135"><stop offset="0" stop-color="#cc7a5e" stop-opacity="0"/><stop offset=".9241" stop-color="#aa5f4b"/></linearGradient><path xmlns="http://www.w3.org/2000/svg" d="M269.8 422.2c-1.6-5-2-35.6-.9-71 .4-12.8.5-24.8.6-40.3-.1-5.1-1.6-37.6-3.1-47.1-2.5-9-13.8.7-15.3-.5l-.2-.1v.1c.3 1.5-14.7 8.3-13.5 13.7 1.2 5.6 10.4 56.3 11 75.4s3.1 76.1 10.8 83.3c3.2 3.1 10.6 1.6 19.9 0 4.3-.6-8.4-11.8-9.3-13.5z" fill="url(#bt-C)"/><linearGradient xmlns="http://www.w3.org/2000/svg" id="bt-D" gradientUnits="userSpaceOnUse" x1="256.6315" y1="329.2186" x2="252.3834" y2="293.1438"><stop offset="0" stop-color="#cc7a5e" stop-opacity="0"/><stop offset=".9241" stop-color="#aa5f4b"/></linearGradient><path xmlns="http://www.w3.org/2000/svg" d="M256 326.5c10.6-2 13.6-5.7 13.6-5.7l-.9-41.6-35.3 3.7 5.2 45.7c2.1-.1 8.6-.5 17.4-2.1z" fill="url(#bt-D)"/><path xmlns="http://www.w3.org/2000/svg" d="M203.4 417.9l-1-.3c.1-.5 14.1-53.4 23-82.9 3-10 5.2-18.9 7-26l2.3-9.1 9.3-34.2 1 .3c-.1.3-7 25.7-9.3 34.2l-2.3 9.1c-1.8 7.1-4 16-7 26-8.9 29.5-22.9 82.4-23 82.9z" fill="#ba6858"/><linearGradient xmlns="http://www.w3.org/2000/svg" id="bt-E" gradientUnits="userSpaceOnUse" x1="196.8836" y1="256.5081" x2="333.8839" y2="256.5081"><stop offset="0" stop-color="#874130"/><stop offset="1" stop-color="#531700"/></linearGradient><path xmlns="http://www.w3.org/2000/svg" d="M180.4 292.1c-.6.9-.4 2.2.4 2.9 4.1 3.7 16.1 9.1 50.4 10.1 36 1 47.5-4.7 52.4-7.6 1.1-.7 1.9-2.5 1.6-3.7-1.6-6.2-4.5-21.7-10.1-49.5l-7.9-36.5h-71.7s-.8 27.6-5 50.7c-2 11.2-7.7 29.9-10.1 33.6z" fill="url(#bt-E)"/><linearGradient xmlns="http://www.w3.org/2000/svg" id="bt-F" gradientUnits="userSpaceOnUse" x1="234.2503" y1="235.2115" x2="236.5502" y2="192.0004"><stop offset="0" stop-color="#330900" stop-opacity="0"/><stop offset=".9975" stop-color="#330900"/></linearGradient><path xmlns="http://www.w3.org/2000/svg" d="M192.3 247.4s14.1-7.3 26.5-9.7c33.8-6.7 56.3 6 56.3 6l-4.1-18.9c-.8-4.5-3.8-17-3.8-17h-71.6l-1.2 21.4c-.5 6.8-2.1 18.2-2.1 18.2z" fill="url(#bt-F)"/><g xmlns="http://www.w3.org/2000/svg" fill="#491913"><path d="M243.2 212.7l.2 1.4-1.6-.4zm2.2-3.2l.2 1.4-1.6-.4zm-5.9.5h-.9l.5-.9zm5.4 5.2l-1.4.9-.3-1.9zm4.4-5.4l-1.4.9-.4-1.8zm3.8-.5l-1.5.9-.2-1.9zm-8.1 0l-1.5.9-.3-1.8zm-.6 2.1l-1.5 1-.3-1.9zm3-.2l-1.3.9-.4-1.8zm-7.7.1l-1.5.9-.3-1.8zm2-.4l-1.5.9-.3-1.8zm18.7 2.3l-1.5.9-.3-1.8zm-6.3 1l-.4-1.6 1.9.3zm2.9-1.2l-.6-1.6 2.1.3zm-7.4.6l.3 1.4-1.7-.4zm-8.2 0l.2 1.4-1.6-.5zm18.1 1.6l.2 1.4-1.6-.4zm-7.7-2.3l.2 1-1.2-.2zm-6.7 0h.9l-.5.9zm4.6 6.7l.2-.8.7.6zm-2.3 3.3l-1 .2.3-1.1zm0-6.4v.9l-.8-.4zm-7 4.3l.8.2-.7.7zm18.8 5.3l-1 .2.3-1zm.1-6.3v.8l-.8-.4zm-7.1 4.3l.9.2-.7.7zm15.9 1.2l-1 .2.3-1.1zm0-6.4v.9l-.9-.5zm-7 4.3l.8.3-.7.7zm1.7-1l-1 .1.3-1.1zm1.7-6l-.3.8-.7-.7zm-8.1 2.4l.8.4-.8.5z"/><path d="M267.3 215.5l-.6.9-.6-.9zm-4.6-4.5l.6.6-1 .3zm-2 7.8l.7-.4.1.9zm-1.4-3.1v1.8l-1.9-.9zm-4.2 3.3l.8.2-.6.7zm6.2-2.4l-.4-.9h1.1zm-4.2-.1l-.8-.7 1-.4zm5.5-3.6l-.8.5-.1-.9z"/><path d="M254.9 209.8l.2.8-1-.1zm4.4 7.4l-1.4.1.6-1.4zm1.4-8.4l-.2 1.1-1.1-.7zm-10.4 4.5l1.2.4-1.1.8zm10.2 3.1l-1-.8 1.3-.5zm6.7-4.4l-.8.5-.2-1zm-9.6-3.8l.3 1-1.1-.2zm-6.4 8.7l-.7-.6 1.1-.5zm5.6-3.6l-.8.5-.1-.9zm-7.9-3l.3.8-.9-.1zm2.5-1l.2 1.4-1.6-.4zm1.5 1.6l-.7 2.1-1.9-1.6zm-2.7 1.2l-1.9 1.1-.4-2.4zm9.6-.7l-2 1.1-.3-2.4zm5 .1l-2 1.1-.3-2.4zm-1 3.2l.4-1.6 1.5 1.2z"/><path d="M266.2 215.3l.6-1.5 1.4 1.1zm-6.7-1.9l.5-1.5 1.5 1.1zm4.9-.2l.5-1.5 1.4 1.1zm2-3.3l-2 1.1-.3-2.4zm-11.3.7l.2 1.4-1.6-.4zm.5-1.8l.2 1.4-1.6-.4zm-11.2 9.5l-1 .1.2-1zm-2.3-1.4l-.4-.8h1zm2.8 3.1l-.1.8-.9-.4zm12-9.7h-.9l.3-.9zm-8.1 3.2l-.1.8-.8-.5zM261 209l-1.5.9-.3-1.8z"/><path d="M256.2 207.9h3.3l-1.4 3.2zm3.6 0l3.3-.1-1.4 3.2zm4.1 0l3.3-.1-1.4 3.2zm-11.8-.1h3.3L254 211zm15.6 12.2l1.7-1.3.7 2.2zm-19.5-12.1l3.1-.1-1.2 3.3zm-4.1 0h3.2l-1.5 3.2zm-3.7 0h3.4l-1.6 3.2z"/><path d="M263.6 208.5l.4 1.6-1.9-.5zm3.6.1l.7 2.8-1.8-.2zm.8 3.3l.6 2.4-2.4-.4zm1 4.6l.5 2.2-2.1-.4zm-5.6-4.9l.7 3-3.1-.6zm7.3 12.3l.2 1.5-1.2-.2zm-1.8-2.3l.3 1.3-1.3-.3zm-4.4-3.5l-.1 1.1-.9-.4z"/><path d="M259.4 212.7l.4 2.1-2.1-.4zm6.6 3.4l-.8 2-1.6-1.3zm1.3.3l.3 1.8-1.8-.3zm-6.8.8l-.7-.7 1-.4zm5.5-3.6l-.6.4-.2-.8zm-7.8-3l.4.7h-1zm-3.3 6.7l-.7-.5.9-.4zm-2.3 1.9l-1.1-.8 1.4-.7z"/><path d="M257.3 218l-.6-.5.8-.4zm-2.1-1l-.6-.5.8-.4zm6 1.2l.2.6h-.7zm-9.2 4.1l-.9-.7 1.1-.6z"/><path d="M257.9 217.9l-.8.5-.2-1zm-9-2.9l.3.8h-1zm-27-2.3l.2 1.4-1.6-.4zm2.2-3.2l.2 1.4-1.6-.5zm-.4 5.6l-1.5.9-.3-1.8zm4.3-5.3l-1.4.9-.4-1.8zm4.1-.6l-1.4.9-.3-1.9zm-8.4 0l-1.5 1-.3-1.9zm-.6 2.2l-1.5.9-.3-1.8zm3-.2l-1.3.9-.4-1.8zm-5.7-.3l-1.5.9-.3-1.8zm-3.6-.5l.2 1.7-1.8-.5zm-1.9.6l-.7-1.5 1.9-.1zm24.6 2l-1.5.9-.3-1.8zm-6.2.9l-.5-1.6 2 .3zm2.7-1l-.4-1.6 1.9.2zm-7.2.4l.2 1.4-1.6-.4zm-8.7.2l.3 1.4-1.7-.4zm-1.8-1.1l.2 1.4-1.6-.4zm12.2.5l.2.9-1.2-.2zm-6.7 0h.9l-.5.8zm4.6 6.7l.2-.8.7.6zm-2.3 3.2l-.9.2.2-1zm.1-6.3l-.1.8-.8-.4zm-7.1 4.3l.8.2-.5.7zm-.7 1l-1 .1.3-1zm.1-6.4v.8l-.8-.3zm-7.1 4.3l.9.2-.7.7zm27 6.1l-.9.3.2-1.1zm.1-6.3v.8l-.8-.4zm-7.1 4.3l.8.2-.6.7zm7.1-8.4l-.1 1.8-1.8-.9z"/><path d="M234.3 218.7l.8.2-.6.7zm3.8-2.4l-.7-.6 1-.5zm5.5-3.6l-.7.4-.2-.8zm-7.8-3l.3.7-1-.1zm4.5 7.2l-1.2.2.4-1.4zm1.3-8.3l-.2 1-1.1-.6zm-10.3 4.5l1.2.5-1.1.8zm12 3.2l-1-.8 1.3-.5z"/><path d="M250.1 211.9l-.9.6-.2-1.2zm-9.7-3.8l.4 1-1.2-.1zm-10.4 8.8l-.8-.6 1.1-.5zm5.5-3.6l-.8.4-.1-.8zm-7.9-3l.3.7-.9-.1zm3-1.3l.2 1.4-1.6-.4zm1.4 1.8l-.7 2.1-1.9-1.6zm-3.1 1.3l-1.9 1.1-.4-2.4zm11.9-1l-1.9 1.2-.5-2.4zm-6.7-.7l.2 1.4-1.6-.4zm.5-1.7l.2 1.4-1.6-.4zm-11.5 9.6l-1 .1.3-1zm-5.1-.7l-1 .2.3-1.1zm2.9-.8l-.4-.7h1zm-5.9-.8l-.4-.8h.9zm8.6 4v.8l-.9-.4z"/><path d="M235.9 210.1h-.9l.4-.9zm-8.4 3.4l-.1.8-.8-.6zm12.4-4.1l-1.5.9-.3-1.8z"/><path d="M235.3 207.9h3.4l-1.4 3.3zm-4.4 0h3.3l-1.4 3.2zm-3.9 0h3.3L229 211zm-10.9.1h3.3l-2.2 2.5z"/><path d="M212.4 208h3.4l-2.2 2.5zm10.7-.1h3.3l-1.5 3.2zm-3.7.1l3.1-.1-1.4 3.4zm14.7 9l-.7-.5.9-.4z"/><path d="M231.9 218.9l-1.2-.8 1.5-.7zm4.6-1.2l-.6-.5.8-.4zm-2.1-1l-.6-.5.8-.4zm-3.2 5.3l-.9-.7 1.1-.6z"/><path d="M237.1 217.6l-.8.5-.2-1zm-9.1-2.9l.5.8h-1.1zm-21.5-1.6l.2 1.4-1.5-.5zm2.3-3.2l.2 1.4-1.6-.5zm-5.9.4h-.8l.3-.9zm5.3 5.3l-1.5.8-.3-1.8zm.1-5.9l-1.3.9-.4-1.9zm-.6 2.1l-1.5.9-.3-1.8zm3.6-.4l-1.5.9-.2-1.8zm1.5-1.7l-1.5.8-.3-1.8zm-9.8 1.9l-1.4.9-.4-1.8zm2.1-.4l-1.5.9-.2-1.8zm-.4 2.7l.2 1.4-1.5-.5zm10.9-.8l.2 1-1.1-.2zm-6.6-.1h.8l-.4.9zm4.3 6.8l.3-.8.8.6z"/><path d="M214.3 211.2l.2 1-1.1-.2zm-6.7-.1h.9l-.4.9zm4.4 6.8l.4-.8.7.6zm-.9 5.1l-1 .2.2-1zm.2-6.3l-.1.8-.9-.4zm-7.2 4.2l.8.2-.6.7zm3.5-2.2l-1 .1.4-1.1zm-2.1-1.5l-.4-.7h.9zm3 2.9v.8l-.8-.4zm-.3-12.1h3.3l-1.4 3.2zm-4.2 0h3.4l-2.1 2.7zm-1.2 5.3l-1.5.9-.3-1.9zm-6.9.8l-.2-1.7 1.9.6zm3-.5l-.4-1.6 1.9.3zm1.5.2v1.7l-1.9-.9zm-1.6 4.9l.8.2-.6.7z"/><path d="M202.4 217.8l-.7-.6.9-.5zm5.5-3.5l-.7.4-.1-.9zm-7.7-3.2l.3.8-1-.1zm2.5 4.8l-.9-.8 1.3-.5zm10.2-3.2l-.9.6-.2-1.2zm-9-3.8l.4 1-1.3-.1zm64.7 5.8l.4 1.5-1.8-.5zm-70-.1l-.5 1.7-1.5-1.3zm-.8-4.1l.3 1.4-1.6-.4zm.6-1.7l.2 1.3-1.6-.4z"/><path d="M199.3 210.3h-.9l.4-.8zm3.9-.6l-1.4.8-.2-1.8z"/><path d="M199.4 207.9l3.2.1-1.5 3.3zm-3.9-.1h3.1l-1.3 3.4zm3.3 9.3l-.6-.5.8-.3zm.6 4.7l-1.1-.8 1.5-.7zm-1.9-3.2l-.6-.5.8-.3z"/></g><g xmlns="http://www.w3.org/2000/svg" fill="#9b583b"><path d="M186 282.1l.2.3.3-.4.3.1-.1-.3v-.1h-.1l-.1-.3.2.1.9 1.9.7-1.4v.1l1.3-.9-1.6-.7.2.9h-.9l.1-1.1.6-.1 1.9.5-.1-.6h.1l-.1-.1-.3-1.8-.7.8-.6-.6 1.7-1.7-3-1 .2 1.5-.9-.5-.6 2-.7 1.9.8-.3-.2.4h.2l-1.1 1.2 1.4.2zm.1-1.8h0l-.2.2-.1-.1.3-.1zm2.4 6.7l.5-1.9-2.4.4.7.5-.6.6 1.1.3-.3-.8 1 .9z"/><path d="M187.3 275.7l.9-.1.1.9 1.2-.9.1.8.1-.1.4 1.6-.9.3.8.5.1-.7 1.4-1.1.1.3.7-1-.3-.1-1.3-.6.5-.4-.6-.2.7-.8-.8-.2 1.1-.1-.5-.6.5-.3-.8-.4-.1.4-.7-.7-.6-.5-1.1-1.1v.1l-.5.3-.5 2.1-.4 1h.1l-.1.1.6.3.2.6-.6-.7.2 1.3zm2.2-1.4l.1.6-.9-.4v-.2h.8zm14.7-40.5h1l-.4-.9-.6.9zm-5.1 1.5h-.2l.2-.2-2.4-.7 1 2.2.6-.9.8-.4zm.2 18.9l-.4-1.6-1.3 1.2 1.7.4zm-.9 8.3l-.2-1.6-1.3 1.2 1.5.4zm12-6.4l-.2-1.6-.3.2-1.1-.4.2 1 .9-.6-1.1.8 1.6.6zm-8.2-11.4l-1.4 1.1 1.5.4-.1-1.5zm-1.1-2.1l-.3-1.6-1.4 1.1 1.7.5zm-3.1 26.5v-.4l.1.3 1.3-1-1.6-.3v.2l-1 .9 1.2.3zm-2.4-37.8l.1.2-.7.2.6.6.3-.5.5-1.1.2-.4-.6.2-.5-.4v-.1l-.1.1-.2-.2.3-.2-.7-.1v.2l-.4-.9-.3 2.6.7-.3.8.1zm0-.5h0zm-1.2-2.4l1.2.4-.2-1.4-1 1zm14.8 3.7l-.7.4.5.3-.2.3.7-.1-.2-.3-.1-.6zm-12 .2l.1-1-.9.6.8.4zm1.7-4.5l1-.2-.8-.6-.2.8zm16.1 1.5l-.4.6h.6l-.2-.6zm-1.4-2.7l.5-.4-.7-.1.2.5z"/><path d="M218.4 227.8l.6.3-.1-.6-.5.3zm-17.6-2.6l.3-.8-.8.1.5.7zM198 251h0l.6 1.1 1.4-1.6-2.3-.6.3 1.1zm7.6 4.5l-.9.1.5.9.4-1zm-10 1.4l.4 1.1 1.4-1.5.2.6-.1.1.2.1v.1l.8.2-.1-.5 1.1.3-.4-1.9-1.1 1.1-.8-.2.5-.6h-.1l1.1-.3-1-.6-.1 1-.9-.2.4.9h.1v.2l-1.4-.5-.1-.2-.1.1-.6-.2.3.9-.1.2.4-.2zm3-13.4l-.5 1.1h.3l.1 2.1.4-.3-.2.3h.1l.1.3-.2-.1.5 1.4.2-.1h.5l-.2-.4.8-.7-.9-.1.1-.2-.7-.1.5-.1-.4-.7 1-.7-1.7-.6h.4l-.2-1.1zm10.4 7.1l-1.3.1.8.8.5-.9zm-1.9-5.2l.9-.5-1.1-.3.2.8zm-3.5 14.9l.1.8.9-.5-1-.3zm-6-1.3l-1.1.1.7.6.4-.7zm6.6-10.8l.2-.6-.8.1.6.5zm-1-4.5l.1.5.5-.4-.6-.1zm-.6-7.1v-.8l-.6.3.6.5zm2.2 2.6l.7-.1-.4-.4-.3.5zm-5.6-.1l.3.6.4-.4-.7-.2zm8-11l-.6.3.6.4v-.7zm-3 3.8l.4-.4-.7-.1.3.5zm-5.9-5.3l.1-.7-.6.3.5.4zm2.4 2.6l.6-.1-.4-.4-.2.5zm-.2-6.5l-.3.4.5-.1-.2-.3zm-4.1.4l-.5-.1.2.5.3-.4zm19.4 13.4l.6-.5-.7-.2.1.7zm-3 5.5l-.6.2.6.3v-.5zm-4.3-4.9l-.2.5.6-.1-.4-.4zm5.3 15.7l.5-.2-.5-.4v.6zm-2.7-5.8l.4-.5-.6.1.2.4zm-8.1 9.2l.3-.1-.8-.6-.2 1.1.4-.2-.5.6-.6-.9-.6.9-1.1-.3 1 1.9-.3.3-.1-.2-.5.9 1.1-.1-.1-.2.5-.1-.3-.5 1.3-1.4 1.6-.1-1.1-1zm-.9 1.2h0zm-4.3 13.2l1-.7-1.9-.8.1 2.3.8-.8.6 1.5 1-1.1-1.6-.4zm-3.2 4.8l-1.4-.4 1.7-1.4h-.1l.4-.3.1.2.7-.7-1.1-.3.2.6-.6-.2v.7l-1.7-.6.1 2.3.1-.1.6 1.3.3-.3.6 1.4 1.3-1.5-1.5-.3.3-.4zm5.4-4.7v-.6l-.6.4.6.2zm6.8-14.8l-.8 1.1 1.5-.1-.7-1zm-4.9 6.1l-.2-.3-.5.9.6-.1.2.5.7-.7-.8-.3z"/><path d="M199.2 253.3l.9.5.1-1.1-1 .6zm.3-21.4l-1.3.2.6.8.7-1zm3.6-4.1l-.4-.9-.6.7 1 .2zm1.8 6.6v.9l.9-.6-.9-.3zm-10.3 2.4l.5-.7 1.6-.6-.9-.6.2.1-.1-.5 1.3.4v-.1l.8-.7-1-.3-.1-.7-1.1 1v-.4l.3-.2-.6.1.6-.6-1.8-.4.3 1h-.1l.2 1.1-.2.2-.8-.5-.2 2.6.5-.2h.6zm6.7 1l-.3-.5-.4 1h.4v.3l.4-.2h.1v-.1l.3-.2-.5-.3zm-.6-2.5l-1 .7 1.3.3-.3-1zm-.8-4.7l-.4-1-.6.7 1 .3zm2.1 2.3v1l.9-.6-.9-.4zm-4.2-3l-.5-1.1-.5 1.1h1zm-.2-5.3l.2.9.8-.6-1-.3zm8.6-1.9l-.6.4.7.4-.1-.8zm-8.9 2.7l-.2-1-.7.8.9.2zm-1-5.3l.1.7.8-.4-.9-.3zm6.2 3.7l.1-.8-.7.3.6.5zm-1 4.5v1l.9-.6-.9-.4zm-5.7 57.3l-.2-1.4-1.1 1 1.3.4zm-1 1.3l-.1-1-.8.7.9.3zm-.3-5.8v.7l.8-.3-.8-.4zm5.1 4.5l.5.7.2-.7h-.7zm-4.5 10.9l.5.7.2-.7h-.7zm8.4-12.4l.3-.8-1.1.1.8.7zm-5.8-.6h.7l-.3-.8-.4.8zm4.7-4.8l.7-.5-.8-.2.1.7zm1.9-1.5l.3-.8-1.1.1.8.7zm-5.1-.5l-.3-.8-.5.7.8.1zm4-5.5l.1.7.7-.5-.8-.2zm-11.6 15.5l.3-.7h-1.1l.8.7zm-.8 2.2l-.2-.8-.5.7.7.1zm.5-7.3l-.2-1.1-1.9 1.5.4.1 1.3.4v-.1l.7.1v-.3l.5-.4-.8-.2zm-.7 3.2l-.3-.8-.5.7.8.1zm-1.4 3.2l.7-.1-.4-.8-.3.9zm4.2 2.2l.9-.4-.9-.4v.8zm-2.2 4.6l.9-.4-.9-.4v.8zm-3-2.8l.9-.4-.9-.4v.8zm7.6-6l-.1.7-.3-.1.4 1.1.7-.7h-.5l.7-.3-.9-.7zm3.3-21.9l-.5.5 1.8.5-.1-1.1.3.1.9.5.2-1.2-.4.2-.6-1.3-.6 1-.2-.3-.3.4-.4-.7-.2.6v-.1l-.6.7.7.2zm.1-.4l-.1.1h.3l-.2.2-.1-.3h.1zm-15.9 21.8l1.9 2 1.2-3.2.2-.1-.3-.3.2-.5h-.4l-1.7-.8-.6 2h1.3l-1.8.9z"/><path d="M201 255.2l-.4-1.9-1.4 1.5 1.8.4zm-.6 21.8l-.4.3h-.1l-1.1 1 1.8.4-.1-1.1.9.7.4-1.5-1.4.2zm-1.9-9.6v-1.3l-1.1.9 1.1.4zm-.3-7.1l1.1-.3-1-.6-.1.9zm7.6 6.4l.4-1.1-1 .2.6.9zm5.3-4.3l-1.4.1 1 1 .4-1.1zm-7.8-.7l-.6 1 1.1.1-.5-1.1zm9.8 15.8l.5-1.2-1.4.1.9 1.1zm-7.4-1.8l-.6 1 1.1.1-.5-1.1zm6.1-5.6l1-.5-1.1-.4.1.9zm-9.4 20.9l1.1.1-.3-1.1-.8 1zm-7.5 2.6l1.1.1-.3-1.1-.8 1zm14.3-9.3l1-.6-1.2-.4.2 1zm-1.5 3.8l.4-1h-1.4l1 1zm-16.8 5l.4-1h-1.4l1 1zm-4.4-4.5l1-.6-1.2-.4.2 1zm-4.1 2.7l1.5-.9-1.8-.6.3 1.5zm-1.9 1.3l1.7.5-.7-1.7-1 1.2zm4.8-3.3l1.3 1.1.1-1.8-1.4.7zm-.3 3.1l.4-1H184l1 1zm14.6-5.1l1.1.1-.4-1.1-.7 1zm-14.1 6.6l1.1.1-.4-1.1-.7 1zm20.7-13.1l1-.6-1.1-.4.1 1zm-4.1-4.5l-.8-2.3-.9 1.2-.3-.4-.7 1.1.5-.1-.1.1 2.3.4zm3.7-4.3l-1.1-.4.1 1 1-.6zm-9.6 8.9l-1.1-.3.4 1.1.7-.8zm5.6-14.8l-.7 1.2 1.5-.2-.8-1zm-6.4-2.3l.1-1.1-1 .7.9.4zm-3.1 21.7l.8-2.2-2 .3 1.2 1.9zm1.5-6.4l-.1-.5-.7.7-1.2.1 1.3 1.9.5-1.4.2.1-.1-.6.1-.3zm11.9-21l-1.4.1 1.1 1 .3-1.1zm1.8 2.1l1.1.1-.4-1.1-.7 1z"/><path d="M188.1 270.2l2.1-.6.4.1v-.1l.4-.1-.3.3-.8.2.4.3-.1.1.5.1.2.2-.6.6.3.1.6.4-.1.1.9.4.1-1.1-.4.2.1-.4h-.2l.1-.3h.1v-.3l.2-1.1-.4.1v-.2l.6-.2.3.6.9-.9h.2l-1.2 1.2 1.7.3-.3-1.8.3-.5.5-.6-.5-.1 1.8-.4-1.9-2.4-.7 2.3-.2-.4.5-.9h-.6l-.1-1 1.1-.2.4.2v-.8l-.5.4-1.5-1.1.9-1 .2.2.3-.4.6 1.3-.2-.1.5 1.4.1-.1.1.3 1.7-2.2-3-.7.3-.5-1.3.2-.5-.1v-.2l-.1.1-.4-.2 2.3-.7.3.9 1.4-1.6-.8-.2-.7-1.8-.3.3-.1-.8-.9 1-.1-.7.9-.9-1.9-.4 1.2-.3-.1.2.9-.4 1.5-.5-.6-.3 1.4-1.6-.3-.1 1.2-1.4-.5-.1.5-.6-2.2-.6.3.9-.1-.1v.1l-.5-.1.1-.1-1.9-.4 2.2-.6.9.8.3-.9-1.2.1 1.1-.3-1.4-1.1.1-.3.3.2.1-1.1-.4.2.1-.4-1.1.3.6.4-.2.1.3.2-.2.1-1.6-1.5-.3 3.6-.4 1.9.9-.4.3 1 .5-.6.4.3.1-.8.1-.1.3.8h-.4l.7.6v.1l-1-.3.4 1.1-1.5-.1-.3-.5-.7-.6-.6 3.9.9 1.3-.5.5-.5-.7-.7 4 1.3-.2.2.5-.4.3-1.2-.1-.8 3.4 1.1-.1.4 1-1.8-.6-.9 4.2zm5.7-16.5l.4 1.1-.9-.6.5-.5zm-1.5 4.8l-.2.1 1 .3-.2.3-1.5-1.1.9.4zm-.6 4.2h0l-.1-.1.1.1zm-.2 2.4h.3l-.5.5.2-.5zm-.2 1.9l.5.1.4.6.3-.4.4.1-.1.3.6-.1.2.5-.8.2-1.5-1.3zm-1.3-1.6l.6-.2.4.3h-.1l.1.2-1-.3zm12 5.1l-.2.2-.4-.2v.4l-.5.7 1.2-.1-.1-.3.6-.1-.6-.6zm2.3-3l-1.1 1.5 2-.1-.9-1.4zm-7.6 11.1l-.1-.2-.1.1-.5-.1.5-.3-1-.7-.3 1.3.8-.4.2.6-.4.5.5-.1.4 1.1 1.4-1.5-1.4-.3zm6.6 1.7l-.8.6.7.3.1-.9zm4.4-11.6l1.7-.1-.8-1.1-.9 1.2zm-4.1 5.4l-.9-.3-.3-.4-.2.2-.5.7.7-.1.2.6 1-.7zm-6.8-24.4l1.8-1.6-1.9-.7.1 2.3zm5.1-9.4l-.4-1.9-1.4 1.4 1.8.5zm13.4 12.4l.4-1.1-1.4.1 1 1zm-7.7-1.9l-.6 1 1.1.1-.5-1.1zm6.9-6.3l-1.1-.4.1 1 1-.6zm-11.4 4.7l-.8 1.1-.3-.3-.3.4v-.1l-.2.2-.5-.7-.6 1 1.1-.1-.3.3h.7l1.9.1-.7-1.9zm3.5-1.4l1-.6-1.2-.4.2 1zm-2.5 4.7l-1.9.4 1.4 1.2.5-1.6zm-21.4 34.6l-.9 2.4 3.1-.4-2.2-2z"/><path d="M200.1 244.1l1.3-1-1.6-.3.3 1.3zm3.9-3.5h0v-.4l-.8.4.6.4-.4.8 1.5-.2-.9-1zm-7.2-2.4l.3 1.1 1.5-1.1-1.2-.2v-.6l-.7.5-.2.1.3.2zm-3.8 3.9l-.5 3.8.7-.2v.6l-.1.1-.1.3.5-.2 1.2.4-.1-.7h.1l-.1-.1-.1-.7 1.2-.3.4.3-.8.7.5.1.9.5v-.3l.4.2-.2-1.5.2-.3h-.2v-.1l-.1.1-.5-.4 1.2.1-.4-1.1 1.8-.4-1.8-2.5-.6 1.5v-.1l-1.1 1.7-.9-.7.5-.6h.1l.4-.3.4.2-.1-1.3.1-.1h-.1v-.1l1.7-.5-2.1-1.3.1-.1v.1l.9-1 .1-.2.3-.3h-.1l.2-.4-.9.2-1.4-.4.8 1.7-.5-.1v.1l-1.2-.9-.5 3.8 1.9-.6v.1l-.7.6-1.1-.3.3.8v.1h-.6zm3.8 2.6h0zm-2.7.8l-.1.1-.1-.1h.2zm9.6.2l-.4.5-.1-.2-.5.9 1.2-.1-.2-.3.6-.1-.6-.7zm2.4-3.1l-1.2 1.5 2-.2-.8-1.3zm3.3 1.2l1.7-.2-.8-1.1-.9 1.3zm-4 5.2l-.9-.3-.3-.4-.2.2-.5.7.7-.1.2.6 1-.7zm-2.4-9.6l.7-.6-.5-.1v-.1l-.2.1-.1-.1v.1l-.9.5 1 .6v-.4zm-6.6-16.5l-1.1.3 1 .7.1-1z"/></g><g xmlns="http://www.w3.org/2000/svg" fill="#441b18"><path d="M245.9 446.2c0 1.5 1.2 2.6 2.6 2.6l56.7-.1c1.5 0 2.6-1.2 2.6-2.6l-.1-2.4-61.8-.5v3z"/><use xmlns:xlink="http://www.w3.org/1999/xlink" xlink:href="#bt-H"/></g><g xmlns="http://www.w3.org/2000/svg" fill="#cf8580"><path d="M245.8 442.9l61.8-.2.1 1-61.8.2z"/><use xmlns:xlink="http://www.w3.org/1999/xlink" xlink:href="#bt-I"/></g><g xmlns="http://www.w3.org/2000/svg" fill="#823d3d"><path d="M262.8 433.4l2-.5-.3 2.1zm2.3-.7l2.1-.8-.3 1.6zm7.3-2.7l-1.7-1.5 1.5-.5zm1.9 1.6l-1.7-1.4 1.5-.6z"/><path d="M275.9 432.9l-1.6-1.3 1.5-.6zm-5.9-5.1l-.7-1h1.3zm-.8-1.3v-1.1l1.1.4zm-8.7 7.6l2.1-.6-.5 2.3zm-2.6.4l2.2-.4-.6 2.2zm-2.8.1l2.3-.1-1.1 2.1zm-5.6-1.4l1.9.6-1.5.9zm3 .9l2.1.3-1.4 1.3z"/><path d="M262.2 435.4l.6-.7.5.9zm-.5 1.2l.2-.9.7.6zm-1.2-1.4l.6-.8.5 1zm-2.6 1.5l.1-1.2 1.2.5zm-1.6-.4v-1.2l1.1.5zm1.2 1.6l-1.2-.3.9-1zm-1.9-1.4l-1.1-.4.7-1zm-2.6-.4l-1.1.4v-1.2z"/><path d="M251.3 435.1l-1 .6v-1.4zm3.2 1.7l-.6.8-.7-.8zm.1-1.6l-.4.9-.7-.8zm-1.8-1l-.5.9-.6-.8zm5.9 3.5l-1.2-.3.8-1zm-3.8.8l-1.2-.4.8-1zm10.2-3.4l-.2-1 1 .1zm2.6-2.1l-.4-.9 1.1.1zm-1.1 1.7l.4-.9.6.8zm-2.5 2.4l-.2-.6h.8zm-2 0l-.6-.3.5-.4zm-1.6-.1l-.7-.2.7-.5zm-.2-1.1l-.7-.2.6-.5zm-2.4-.2l-.7-.3.7-.6zm5.8-.7l-.7-.3.7-.6zm1.8.9l-.8-.3.6-.5z"/><path d="M267 435.4l-.6-.4.4-.5zm1.6-1.5l-.7-.3.7-.5zm4.8-4.1l-.8-.3.8-.8zm-.9-.7l-.3-.9 1 .1zm-1.8-.5l-.7-.8 1-.3zm-2.3 8.3l-.6-.3.6-.6zm1.6-4.6l-.7.4-.1-.8zm-1-.3l-.6.3-.1-.7zm2.3 4.6l-.7-.5.7-.4zm4-5.3l-.9-.4.8-.7zm1.4 2.3l-.8-.7 1-.4zm-5.8 0l-.4.4-.1-.5zm.9-5.6l-.6.4-.1-.6zm5.3 3.8l-.5.4-.1-.6zm-2.2-1.9l-.4.3-.2-.6zm-5.9 9.9l-.4.3-.2-.6zm-18.1-1.1l-.4.4-.3-.6zm15.3-5l-.6-.4.6-.4zm-9.8 3.5l-.7-.3.5-.5zm-4.7-.9l-.6-.3.7-.5zm-4.5-4.1l1.7.9-1.5.8z"/><path d="M248.9 434.4l-1.2.3.4-1.3zm-2.8 2.8l-.9.5-.1-1.1zm-.2-1.4l-.7.2-.1-1zm3.2-.2l-.6-.5.6-.3zm-2.2-1.6l-.5-.4.6-.3zm-1 .7l-.7-.4.6-.4zm20.4 3.5l-.6-.2.5-.4zm-2.3 0l-.5-.3.4-.4zm8.4-11.2v.8l-.6-.3zm-2.1-.9l-.1.7-.5-.4zm.9.5l.1.9-.8-.4zm4 1.7l.4.3-.4.4z"/><path d="M273.5 426.9v.5l-.5-.2zm-2.2-.5l-.4.3-.1-.4zm.2.6l-.4-.3.5-.3zm-1.4-1.4l-.3-.3.4-.2zm4.3 3.3v.5l-.5-.2zm-4-4.7v.5l-.5-.2zm-20.3 12.9l-.4-.3.4-.4zm5.8 2.6l-.4-.2.4-.3zm-3.5-1.1l-.4-.3.3-.4zm9.8-.1l-.2.4-.3-.4zm-6.5-.9l-.2.5-.4-.5zm4.1-.5l-.2.5-.3-.5zm-1.5 2.7l-.2.4-.3-.5zm2.4-1.4l-.2.4-.4-.4zm-2.1-.1l-.2.4-.4-.5zm-8.1-2.3l-.3.5-.4-.6zm-3.5 1.2l-.3.5-.3-.4zm-1.3 1.2l-.5.3-.1-.6zm.6 1l-.5.3v-.6zm2.7-3.6l-.4.5-.3-.5zm-1.9 0l-.2.5-.3-.5zm-1.2.3l-.2.5-.4-.5zm1.7-1.5l-.2.4-.5-.4zm-1.1.2l.4.3-.5.2zm-.6-.6l.3.3-.4.3zm0-.8l-.2.4-.4-.4zm1.4-.6l-.2.3-.4-.4zm-1.5 2.3l-.3.5-.1-.5zm3.4-1.5l-.3.4-.3-.4z"/></g><g xmlns="http://www.w3.org/2000/svg" fill="#441b18"><path d="M179.3 446.2c0 1.5 1.2 2.6 2.6 2.6l56.7-.1c1.5 0 2.6-1.2 2.6-2.6l-.1-2.4-61.8-.5v3z"/><use xmlns:xlink="http://www.w3.org/1999/xlink" xlink:href="#bt-H" x="-66.5"/></g><g xmlns="http://www.w3.org/2000/svg" fill="#cf8580"><path d="M179.3 442.9l61.7-.2.1 1-61.8.2z"/><use xmlns:xlink="http://www.w3.org/1999/xlink" xlink:href="#bt-I" x="-66.5"/></g><g xmlns="http://www.w3.org/2000/svg" fill="#823d3d"><path d="M196.2 433.4l2-.5-.2 2.1zm2.3-.7l2.1-.8-.2 1.6zm7.3-2.7l-1.6-1.5 1.5-.5zm1.9 1.6l-1.7-1.4 1.6-.6zm1.7 1.3l-1.6-1.3 1.5-.6zm-6-5.1l-.6-1h1.2zm-.7-1.3v-1.1l1.1.4zm-8.7 7.6l2.1-.6-.5 2.3z"/><path d="M191.4 434.5l2.1-.4-.6 2.2zm-2.8.1l2.2-.1-1 2.1zm-5.7-1.4l1.9.6-1.5.9zm3.1.9l2.1.3-1.5 1.3zm9.7 1.3l.6-.7.4.9zm-.5 1.2l.2-.9.7.6zm-1.3-1.4l.7-.8.4 1zm-2.5 1.5l.1-1.2 1.1.5z"/><path d="M189.8 436.3v-1.2l1.1.5zm1.2 1.6l-1.2-.3.8-1zm-1.9-1.4l-1.2-.4.8-1zm-2.6-.4l-1.2.4.1-1.2zm-1.7-1l-1 .6v-1.4zm3.2 1.7l-.6.8-.7-.8zm.1-1.6l-.5.9-.7-.8zm-1.9-1l-.5.9-.6-.8zm6 3.5l-1.2-.3.8-1zm-3.8.8l-1.2-.4.8-1zm10.2-3.4l-.3-1 1 .1zm2.5-2.1l-.3-.9 1.1.1zm-1.1 1.7l.5-.9.6.8zm-2.4 2.4l-.3-.6h.8zm-2 0l-.7-.3.6-.4zm-1.7-.1l-.6-.2.6-.5z"/><path d="M193.7 435.9l-.6-.2.5-.5zm-2.3-.2l-.7-.3.6-.6zm5.7-.7l-.6-.3.7-.6zm1.8.9l-.7-.3.5-.5zm1.5-.5l-.6-.4.5-.5zm1.6-1.5l-.6-.3.7-.5zm4.9-4.1l-.8-.3.8-.8zm-1-.7l-.2-.9 1 .1zm-1.7-.5l-.8-.8 1.1-.3zm-2.3 8.3l-.7-.3.6-.6zm1.5-4.6l-.6.4-.2-.8zm-.9-.3l-.6.3-.2-.7zm2.3 4.6l-.7-.5.6-.4zm4-5.3l-.9-.4.8-.7zm1.3 2.3l-.7-.7.9-.4zm-5.7 0l-.4.4-.2-.5zm.8-5.6l-.5.4-.2-.6zm5.3 3.8l-.4.4-.2-.6zm-2.2-1.9l-.4.3-.1-.6zm-5.8 9.9l-.4.3-.2-.6zm-18.1-1.1l-.5.4-.2-.6zm15.3-5l-.6-.4.5-.4zm-9.9 3.5l-.6-.3.4-.5zm-4.6-.9l-.7-.3.7-.5zm-4.6-4.1l1.8.9-1.5.8z"/><path d="M182.4 434.4l-1.2.3.3-1.3zm-2.9 2.8l-.9.5-.1-1.1zm-.1-1.4l-.7.2-.1-1zm3.2-.2l-.6-.5.6-.3zm-2.2-1.6l-.6-.4.6-.3zm-1.1.7l-.7-.4.6-.4zm20.4 3.5l-.5-.2.5-.4zm-2.3 0l-.4-.3.3-.4zm8.5-11.2v.8l-.7-.3zm-2.1-.9l-.1.7-.5-.4zm.9.5v.9l-.7-.4zm4 1.7l.4.3-.4.4z"/><path d="M207 426.9l-.1.5-.4-.2zm-2.3-.5l-.4.3-.1-.4zm.3.6l-.5-.3.5-.3zm-1.4-1.4l-.4-.3.4-.2zm4.3 3.3l-.1.5-.4-.2zm-4-4.7l-.1.5-.4-.2zm-20.3 12.9l-.5-.3.5-.4zm5.8 2.6l-.5-.2.4-.3zm-3.5-1.1l-.5-.3.4-.4zm9.8-.1l-.3.4-.2-.4zm-6.5-.9l-.3.5-.3-.5zm4.1-.5l-.3.5-.3-.5zm-1.5 2.7l-.3.4-.2-.5zm2.4-1.4l-.3.4-.4-.4zm-2.1-.1l-.2.4-.4-.5zm-8.2-2.3l-.2.5-.4-.6zm-3.5 1.2l-.2.5-.3-.4zm-1.2 1.2l-.5.3-.2-.6zm.5 1l-.5.3.1-.6zm2.7-3.6l-.3.5-.3-.5zm-1.8 0l-.2.5-.3-.5zm-1.2.3l-.2.5-.5-.5zm1.6-1.5l-.2.4-.4-.4zm-1.1.2l.5.3-.6.2z"/><path d="M179.4 434.2l.3.3-.5.3zm0-.8l-.2.4-.4-.4zm1.4-.6l-.2.3-.4-.4zm-1.6 2.3l-.2.5-.2-.5zm3.4-1.5l-.3.4-.3-.4z"/></g><g xmlns="http://www.w3.org/2000/svg" fill="#ad5c49"><path d="M256 311.8l.9-.9-1.5-.4zm-3 .7l.9-.9-1.4-.4zm2.7-3.9l.9-1-1.5-.4zm-10 3.7h.8l-.5-.8zm-.4-5.5l.3.6.5-.4zm7.1 3.6l-.5.3.6.4zm2.3 2.3l.8-.9-1.4-.3zm-10.9-4.1l1 .5v-1.2zm12.6-1.7l.3-1-1.2.1zm-15.6 6.4l1.3.1-.6-1.2zm-1-2.1l1.3.1-.6-1.3zm2 .1h1.2l-.5-1.2zm13.4 2.4l1.2.2-.4-1.3zm-16.9-.9l1 .2-.3-1.1zm-1.5-3.6l1.1.2-.4-1.1zm19.7-4.6l1 2 1.5-2.1zm-3.2.4l.7 2.2 2.4-2.6zm-7.1.3l.8 1.9 1.4-2zm3.4 2.1l.9-1.6-1.8-.6zm6.9 4.1l.7.5.1-.9zm-15.2 4.2l1-.1-.5-.9zm-.9-1.8l.3.8.6-.6zm12.8-9l-2.8.2 1.8 2.7zm-7.5.5h-2.9l1.7 2zm6.1 3.3l.6.7.5-1zm-14.6-3.4l.9 2 1.6-1.8zm5.3 1.9l-1.6 1.3 2 1.3zm8.7-.1l-1.7 1.3 2.3 1.1zm-1.2 2.4l-.6-.5-.2.9zm-5.9 2l-.6-.6-.3.9z"/><path d="M238.7 307.7l-.7-.6-.2.9zm4.9 3.9l1.2.5-.1-1.3zm-1.5-2.8l1.2.1-.5-1.2zm9.9 4.7l.8.2.2-.9zm-4.2-.8l.9.4.1-1zm10.6-2.5l.3-2.6-2.2 1.6zm-18.7-4.8l1.2 2.2 1.7-2.2zm-1.2 3.3l.7 1.4 1-1.4zm20.7 2.6l.8-.2-.6-.7zm8.2-7l.4.6.4-.5zm-1.2 2.1l1.1.3-.2-1.2zm-3.8 5.5l1.3-.2-.8-1zm.4-2.2l1.3-.1-.8-1.2zm2-.3l1.2-.2-.7-1zm-5 3.4h1.1l-.6-1zm-.9-4.3h1l-.5-1zm1.4 1.9l1-.2-.7-.8zm-2.2 2.8l.3.7.6-.7zm9.4-10.3l-2.8.6 2 1.5zm-8.5 1.4l1.2 1.7 1.3-2zm5.7 1l-1.3 1.6 2.2.8zm2.4 3.9l-.7-.4-.1.9zm-6.1-2.7l-.7-.5-.1.9zm5.9 1.6l1.2.3-.3-1.3zm-1.5-2.3l1.3-.1-.8-1.1zm-3.8-1.8l1.6 2 1.3-2.5zm-.6 3.5l1 1.2.7-1.5zm-14.8 1.6l2.4.1-1-2.3zm7 1.4l2.4.3-.9-2.4zm-1.7 1.7l.2 1.2 1.2-.6zm-33.6-.6l1-.8-1.4-.6zm-5.3-.2l1-.8-1.3-.6zm5.5-3l1.1-.8-1.4-.7zm-10.5 1.8l.8.2-.3-.9zm.6-5.5l.2.7.6-.3zm6.4 4.9l-.6.2.5.5zm1.9 2.7l.9-.8-1.3-.6zm-10.1-6l.9.6.2-1.2zm12.7.5l.5-.8-1.2-.1zm-16.4 3.7l1.3.3-.3-1.3zm-.6-2.2l1.3.3-.3-1.4zm2 .3l1.2.3-.3-1.2zm22.5 4.5l1.1.4-.1-1.3zm-26.2-3.5l.9.3-.1-1.1zm-.4-3.6l.9.3-.1-1.1zm19.7-1.4l.7 2.1 1.8-1.9zm-3.3-.3l.2 2.4 2.9-2.1zm-7-.8l.5 1.9 1.7-1.7zm2.9 2.6l1.2-1.4-1.7-.9zm6.1 5.3l.6.6.3-.8zm-15.5 1.5l1 .2-.3-1zm-.6-1.8l.1.7.8-.4zm14-6.8l-2.8-.3 1.3 3zm-7.4-.9l-2.9-.4 1.4 2.1zm5.4 4.4l.4.8.7-.9zm-13.8-5.8l.6 2.1 1.8-1.5zm4.9 2.8l-1.7 1 1.7 1.5zm8.6 1.3l-1.9 1 2.1 1.5zm-1.6 2.2l-.6-.6-.3.8zm-6.2 1.1l-.5-.7-.4.9z"/><path d="M201.6 304.6l-.5-.7-.4.9zm4.1 4.8l1.1.8.1-1.3zm-.9-3.1l1.2.3-.3-1.3zm8.8 6.2l.8.4.3-.8zm-3.9-1.5l.8.5.3-.9zm10.8-.5l.7-2.6-2.4 1.2zm-17.5-8l.8 2.4 2.1-1.9zm-1.7 3.1l.5 1.4 1.1-1.1zm19.8 6.1l.8-.1-.5-.8zm9.3-5.4l.3.7.5-.5zm-1.5 1.9l1 .4v-1.1zm-4.8 4.7l1.4.1-.6-1.2zm.8-2.1l1.3.1-.5-1.3zm2 0l1.3.1-.5-1.2zm-5.4 2.5l1 .2-.4-1.1zm-.2-4.4l1 .2-.3-1.1zm1.1 2.1h.9l-.5-1zm-2.8 2.4l.3.7.6-.6zm11.2-8.2l-2.9-.1 1.6 2zm-8.7-.4l1 1.9 1.5-1.8z"/><path d="M227.6 306.8l-1.6 1.3 2 1.2zm1.6 4.3l-.6-.6-.2.9zm-5.4-3.8l-.7-.6-.2.9zm5.4 2.6l1.2.5-.1-1.3zm-1-2.5l1.3.1-.6-1.2zm-3.5-2.5l1.3 2.3 1.7-2.2zm-1.1 3.4l.8 1.4.9-1.4zm-14.9-1.2l2.3.6-.5-2.4zm6.3 1.6l2.2.8-.3-2.5z"/></g><defs xmlns="http://www.w3.org/2000/svg"><path id="bt-H" d="M246.9 432c-.5-.3-1.4 0-1.5.6-.2 1.3-.4 3-.4 4.8.1 3 .9 5.9.9 5.9l61.6-.5s-.1-3.2-4.8-6.2c-4.6-2.8-31-14.5-31-14.5s-1.3-.3-2.2 1.6c-.8 2-.5 3.6.8 4.7 1.4 1.1 5.7 4.9 5.7 4.9s-.9 1.8-2.5.9c-1.6-1-4.6-2.8-5.4-2.7-.7.1-5 2.4-10.1 3-4.9.3-9.2-1.4-11.1-2.5z"/><path id="bt-I" d="M282.5 427s-.4 3.1-2.8 6.2c-.9 1.2-2 2.3-2.9 3.2-1 1-.5 2.6.9 2.8 2.5.5 6.2.6 11.2.7l17.7.4s-1-2.4-3.9-3.8c-2.7-1.4-20.2-9.5-20.2-9.5z"/></defs><path xmlns="http://www.w3.org/2000/svg" d="M297.5 211.2c17.7 9 35.9 15.7 35.9 15.7s5.2 4.9 12.9 5.5c.6.2 1.4-.5 2.3-1.1.5-.4 0-1.4.4-1.8.2-.4 1.2.1 1.5-.2.4-.5 1.5-1.3 1.1-1.9-1.4-2.1 1.1-1.8 1.4-2.5.4-1-.2-1.9-.4-2.1l-4.7-2.8c-.9-.5 1.9-.6 3.5-.6 1.8-.1 3.4-1.4.4-2.1s-5.4-1.7-6.3-1.7c-.8-.1-4-.9-6.2-.5-1.4.2-3.3 1.1-6.4-.5-5-2.7-20.6-15.5-28.2-21.8-3.8-3-20.1 11.9-7.2 18.4z" fill="#ea9d7d"/><linearGradient xmlns="http://www.w3.org/2000/svg" id="tp-A" gradientUnits="userSpaceOnUse" x1="333.016" y1="219.26" x2="323.949" y2="231.244"><stop offset=".005" stop-color="#cc7a5e" stop-opacity="0"/><stop offset=".924" stop-color="#aa5f4b"/></linearGradient><path xmlns="http://www.w3.org/2000/svg" d="M313.1 218.7c11.4 4.9 20.2 8.3 20.2 8.3s5.1 4.3 12.9 5.5c2.7.4-1.6-7.2-5.4-9.6-25.7-16.5-32.6-6.3-27.7-4.2z" fill="url(#tp-A)"/><g xmlns="http://www.w3.org/2000/svg" fill="#ad5c44"><path d="M328.9 222.7l-.3-.8.7-.2zm2-3.1l-.6-.7.9-.4zm-.3 2l-.3.9-.8-.5zm-.5 1.2l-.4 1.2-1-.7z"/><path d="M329.1 221.1l.5-1.3.6 1.1zm.5 4.3l-1.7-.5 1.4-.9zm-2.2-1l.7-1.5.8 1.3zm1.2-1.4v-.6l.6.2zm3.9-3.9l-.1.4-.3-.2zm-1.9 1h.5l-.1.5zm-.6 4.5l-.6-.3.4-.4zm2.7-3.7l-.1-.6.4.3zm-1.7 4.2l-.7.6-.4-.9zm7.3 4.2l-.6-.5.7-.4zm-4.7-3.4l-.6.8-.3-1zm-.3-1.6l.1.8-1-.1zm2.4 2l.9.1-.5 1zm-.5 1.1l-1.1-.7 1-.6zm-2.6-.8l-1.7-.7 1.3-.8zm4.4 2l-.8-.5.8-.4z"/><path d="M331.9 224.7h-.3v-.4zm.2-2.2l-.1.3-.2-.2zm-2.5 1.4l.3-.1-.2.4zm7.8 2.6l-.2-.5.5.1zm2.1 2.8l-.1.4-.3-.3zm-8.1-4.9l-.1-.4.6.1zm2.9 1.9l-.1-.5.5.1zm4.5 1.5l-.5-.3.4-.4zm-4.1-3.5l-.3.1.1-.6zm-3.9-1.6l-.1-.5.5.2zm2.6.6l-.4-.2.3-.4zm7.7 7.4l-.5-.1.4-.4zm-4.8-6.6l-.3.3-.2-.3zm3.2 3.8l.3.3-.5.1z"/></g><path xmlns="http://www.w3.org/2000/svg" d="M353.8 219.5c-1.2.8-4.8.7-6 .7-.6.7-2.6 2.6-5.5 2.4-3.6-.3-4.7-2.1-4.8-2.2-.1-.2-.1-.5.2-.7.2-.1.5-.1.7.2.1 0 1.1 1.4 4 1.7 2.8.3 4.9-2.2 4.9-2.2.1-.1.3-.2.5-.2 1.9.1 5.7.1 5.5-.8 0-.2-.5-.2-.8-.3-.6-.2-1.4-.3-2.4-.7-.4-.1-.9-.2-1.3-.4-2.8-.9-6.5-1.9-9.3-1.3-2.8.7-4.2.5-6-.1-.3-.1-.4-.3-.3-.6s.3-.4.6-.3c1.7.6 2.9.7 5.5.1 3-.6 6.9.5 9.8 1.4.5.1 1 .3 1.3.4l2.3.6c.5.1.7.1.9.2.6.2 1.2 1.3.2 2.1z" fill="#cc7a5e"/><path xmlns="http://www.w3.org/2000/svg" d="M346.2 221.9c-.5 1.1.8 2.2 2.6 3 1.8.9 3.5 1.3 4.1 0 .7-1.6-.8-2.2-2.6-3-2-.7-3.5-1.4-4.1 0z" fill="#ea9d7d"/><path xmlns="http://www.w3.org/2000/svg" d="M353.4 224.8c0 .1-.1.3-.1.4a1.65 1.65 0 0 1-1 1c-.8.3-2 .1-3.6-.7-1.1-.5-2.6-1.2-2.9-2.4-.2-.5-.2-.9.1-1.3.9-1.8 2.7-1.1 4.4-.3l.2.1c1.5.6 2.6 1.1 2.9 2.2.1.2.1.6 0 1zm-6.9-2.5c-.2 1 1.1 1.6 2.4 2.2 1.4.7 2.4.9 2.9.7.1 0 .4 0 .6-.4.1-.5 0-.7-.1-.9-.2-.7-1.5-1.2-2.5-1.6l-.2-.1c-1.9-.9-2.5-.8-3-.4 0 0-.1.4-.1.5z" fill="#cc7a5e"/><path xmlns="http://www.w3.org/2000/svg" d="M344.7 225.2c-.5 1.1.8 2.2 2.6 3 1.8.9 3.5 1.3 4.1 0 .7-1.6-.8-2.2-2.6-3-1.9-.9-3.3-1.5-4.1 0z" fill="#ea9d7d"/><path xmlns="http://www.w3.org/2000/svg" d="M352 228c-.1.2-.1.3-.2.4a1.65 1.65 0 0 1-1 1c-.8.3-2 .1-3.6-.7-1.1-.5-2.5-1.2-2.9-2.4-.2-.5-.3-1 0-1.4.8-1.8 3.1-.9 4.8-.1 1.5.6 2.6 1.1 2.9 2.2.1.2.1.6 0 1zm-4.5-.2c1.4.7 2.4.9 2.9.7.2 0 .8-.5.5-1.3-.2-.7-1.5-1.2-2.5-1.6-2.2-1-2.9-1.1-3.4-.2h0c-.1 1.2 1.2 1.8 2.5 2.4z" fill="#cc7a5e"/><path xmlns="http://www.w3.org/2000/svg" d="M343.1 228.1c-.5.9.6 1.9 2.3 2.5 1.6.7 2.9 1.1 3.4 0 .5-1.2-.6-1.9-2.3-2.5-1.4-.8-2.8-1.2-3.4 0z" fill="#ea9d7d"/><path xmlns="http://www.w3.org/2000/svg" d="M349.4 230.5c0 .1-.1.2-.1.4-.9 1.8-3.1.7-4.1.2-1.3-.5-2.2-1.2-2.6-2-.2-.5-.2-.9 0-1.2h0a1.65 1.65 0 0 1 1-1c.9-.3 2 .2 3.1.7 1.3.5 2.3 1.1 2.6 1.9.2.3.2.6.1 1zm-5.9-2.1c0 .1-.1.2 0 .3.2.5 1 1 2 1.4 2.1 1 2.6.7 2.8.3.2-.3.1-.5.1-.6-.2-.5-1.2-1-2-1.3-.9-.5-1.8-.8-2.4-.7-.1.1-.3.2-.5.6h0z" fill="#cc7a5e"/><path xmlns="http://www.w3.org/2000/svg" d="M181.3 216.5c3.5 19.5 9.1 38.2 9.1 38.2s-.8 7.1 3.4 13.5c.3.6 1.3.7 2.3 1.1.5.2 1.1.7 1.6.7.4 0 .42-.64 1.02-.54.8 0 1.95.5 2.55.2 1.1-1.8 1.83-.25 2.53-.45 1.1-.3 1.4-1.3 1.5-1.5-.2-2.3-.3-4.4-.5-5.4-.3-1 1.6 1 2.5 2.3 1.2 1.4 3.2 1.9 1.9-.9-1.3-2.9-2-5.4-2.4-6.1-.4-.8-1.8-3.7-3.4-5.2-1-1.1-2.9-2.1-3.5-5.4-.8-5.6-.1-25.8.3-35.6.3-5.2-21.4-9-18.9 5.1z" fill="#ea9d7d"/><linearGradient xmlns="http://www.w3.org/2000/svg" id="tp-B" gradientUnits="userSpaceOnUse" x1="196.476" y1="249.666" x2="181.449" y2="249.691"><stop offset=".005" stop-color="#cc7a5e" stop-opacity="0"/><stop offset=".924" stop-color="#aa5f4b"/></linearGradient><path xmlns="http://www.w3.org/2000/svg" d="M185 233.5c2.9 12.1 5.6 21.2 5.6 21.2s-.4 6.8 3.4 13.5c1.3 2.4 4.8-5.6 4.5-10.1-2.7-30.5-14.8-29.9-13.5-24.6z" fill="url(#tp-B)"/><path xmlns="http://www.w3.org/2000/svg" d="M193.7 268.8c-.82-1.16-2-4-2.6-5.7-.8-2.4-.9-8.3-1.1-8.5.1-.3.2-.5.4-.6.3.1.5.2.6.4 0 0 .2 6 .9 8.3 1 2.9 2.1 5.1 2.9 5.7.6.4.9.3.9.3.2-.1.3-.2.4-.1.1 0 .22.18.3.3.15.23.25.7.85.7.84-.04.93-.6.95-.7.05-.3.12-.54.4-.6.3-.07.5.1.6.4 0 .2.2.9 1.2.7.4 0 .7-.2.8-.3.3-.4.3-1 .3-1 0-.2.1-.5.4-.6.2 0 .42.12.5.3.05.13.3.7 1.2.6.8-.1.9-.3.8-2.1l-.4-5.1c0-.2.1-.5.3-.5s.4 0 .5.2c1 1.5 2.9 4 3.8 4.3h.2s.1-.1 0-.4c0-.1-.8-1.9-1.2-3 0 0-2.7-7.4-5-9.4-2.1-1.8-2.9-3.1-3.6-4.9-.1-.3 0-.6.3-.6s.6 0 .6.3c.5 1.6 1.3 2.7 3.2 4.4 2.6 2.1 4.1 6.4 5.1 9.3 0 0 .9 2.3 1.2 2.7.7 1.4.5 2.22.08 2.46-1.9.92-3.48-1.86-4.38-3.16.1.9.3 3.4.3 3.4.1 1.6.23 2.86-1.55 3.26-.7.16-1.35-.16-1.75-.46-.03.4-.38 1.23-1.66 1.4-.9.1-1.54-.3-1.94-.7-.26.5-.5.75-1.2.75-.8 0-1.44-.33-1.63-.8-.63.28-1.6-.44-1.96-.95z" fill="#cc7a5e"/><g xmlns="http://www.w3.org/2000/svg" fill="#ad5c44"><path d="M191.3 248.5l.3-.7.7.4zm3.6-.4l.2-.9.8.6zm-1.8 1.1l-.8.4-.2-1.1zm-1.3.2l-1.1.5-.1-1.3z"/><path d="M192.5 247.6l1.5-.2-.5 1.1zm-3.1 3l-.5-1.6 1.4.4zm-.5-2.2l1.7-.3-.6 1.2zm2 0l.2-.4.3.6zm5.3.7l-.4.2.1-.5zm-2-.9l.4.4-.5.3zm-3.9 2.2v-.6l.5.3zm4.6-.1l.4-.3.1.5zm-4.3 1.1h-1.1l.6-.8zm.9 8.6l.1-.8.9.1zm-.1-5.8l-.9-.2.6-.8zm1.2-1.3l-.6.5-.4-.8zm-.2 3l.4.9-.9.2zm-1 .5l-.3-1.5 1.1.5zm-1.1-2.7l-.5-1.7 1.5.5zm1.1 4.9l-.1-1.1.9.5zm0-6.6l-.2-.2.4-.2zm1.9-1.1l-.2.1-.1-.3zm-2.6-1.2l.2.3-.4-.1zm2.5 7.7l.5-.3.1.5zm-.9 3.5l-.3.3v-.7zm-.9-9.4l.2-.4.3.5zm.1 3.4l.3-.4.4.5zm1.7 4.6l-.2-.7.6.2zm.3-5.3l-.2-.4.5-.1zm-1.2-4.3l.4-.3.1.5zm1.2 2.5l-.2-.4.5-.1zm-1.3 10.7l-.3-.6h.8zm2.3-8l-.4.1.1-.4zm-1 4.9l-.1.3-.4-.1z"/></g><linearGradient xmlns="http://www.w3.org/2000/svg" id="tp-C" gradientUnits="userSpaceOnUse" x1="328.234" y1="211.61" x2="320.949" y2="224.464"><stop offset=".298" stop-color="#f5b02a"/><stop offset="1" stop-color="#e46c26"/></linearGradient><path xmlns="http://www.w3.org/2000/svg" d="M332.5 214.5l-4.3 10c-.4 1.1-1.7 1.7-2.9 1.1l-9.7-4.3 8-14.4 8 4.8c1 .7 1.4 1.9.9 2.8z" fill="url(#tp-C)"/><linearGradient xmlns="http://www.w3.org/2000/svg" id="tp-D" gradientUnits="userSpaceOnUse" x1="320.191" y1="154.32" x2="253.434" y2="166.147"><stop offset=".298" stop-color="#f5c52a"/><stop offset="1" stop-color="#e46c26"/></linearGradient><path xmlns="http://www.w3.org/2000/svg" d="M227.9 101.6c8-4.9 27.7 6.1 44.2 33.7 15.7 26.1 24.5 38.9 36.4 45.9 13.1 7.7 18.7 10.8 20 18.9s-5.5 19.7-8.6 24.4-15.5 10-34.2-1.2c-18.8-11.1-26.5-38.3-33.8-54-7.4-15.7-20.5-30-22-42.1-1.7-14.3-11.3-19.9-2-25.6z" fill="url(#tp-D)"/><linearGradient xmlns="http://www.w3.org/2000/svg" id="tp-E" gradientUnits="userSpaceOnUse" x1="262.806" y1="152.063" x2="201.098" y2="161.361"><stop offset=".298" stop-color="#f5c52a"/><stop offset="1" stop-color="#e46c26"/></linearGradient><path xmlns="http://www.w3.org/2000/svg" d="M269.3 153.2c-.4-4.9-1.1-15.8-5.8-26.7-6.4-14.2-18.3-27.3-33.2-26.6-3.6.1-15 .3-21.4 26.6-.8 3.4-15.4 81.3-15.4 81.3h79.3c0-.1-3.1-50.8-3.5-54.6z" fill="url(#tp-E)"/><g xmlns="http://www.w3.org/2000/svg" fill="#f4a627"><path d="M263.1 149l-.4 1.6 1.4-.3zm3.3 1.9l-.4 1.6 1.4-.3zm1.1-4.8l-.9-.3.1.8zm-4.9 4.3l-1.9.3 1 1.4zm6.1 3.8l-2.1.4 1.2 1.6zm.7 4l-2.2.3 1.1 1.6zm-.9-8.1l-1.8.5 1 1.2zm-2.2-.6l-1.8.5 1 1.4z"/><path d="M266.7 152l-2.1.5 1.2 1.5zm-.4-6.9l-1.9.4 1 1.4zm.4 1.9l-1.8.4 1 1.4zm-1.4 19.3l-2.1.5 1.1 1.4zm-.9-3.2l.2-2.2-1.8.6zm1.5 3l.2-2.2-1.8.6zm-3.9-11l-.4 1.8 1.7-.4zm.2-7.7l-.4 1.6 1.4-.3z"/><path d="M261 168.1l-.4 1.8 1.6-.3zm2.4-10.2l-.1 1.3 1-.3zm-.7-5.6l1 .2v-.9zm-5.9 6l.5-.8-.9-.2zm-1.9-4.2l-1-.2.2.9zm5.1-.3l-.4.8h.8zm-5.1-5.5l.8.5.1-.7zm-4.5 18.7l-1.3-.2.4 1.1zm5.8-.3l-.4.9.9-.1zm-5.9-6.3l.9.6.2-.9zm1.7 20.2l-1.2-.1.2 1zm5.8-.3l-.4.9.9-.1zm-5.9-6.4l.9.7.2-.9zm2.8 3.4l-1.2-.1.3 1zm5.9-.3l-.5.9 1 .1zm-5.8-6.3l.8.7.1-1zm6.3 11.9l-1 .8 1 .5zm4-4.2l.3 1 .7-.7zm-8.5-.5l1-.2-.5-.8zm3.7-12.6l-1 2.1 2.1-.2z"/><path d="M256.3 163.2l.9.7.2-1zm5.5 9.1v-1.2l-1 .6zm0-5.1l-.6-1.1-.7.9zm3.6 4.6l-1 .2.5.7zm1.8-8.3v1l.8-.3zm-5.9 4.9l-1.7-.4.2 1.5zm7.7.7l-.7 1.2 1.2.1zm-6.6-9.5l.9 1 .5-1.1z"/><path d="M262.8 172.8l-.6-1.5-1 1zm4.3 5.7l-1.3.2.7 1zm2.5-10.3v1.2l1-.3zm-8.8-9.3l-.6-1.2-.6.9zm3.7 4.5l-1.1.2.6.8zm1.7-8.4v1l.8-.3zm.9 1.8l-.5 1.8 1.7-.3zm-1.3.4l-1.7 2.2 2.4.7zm.5-2.6l-2.6.4 1.3 2.1zm1.8 12.5l-2.8.4 1.4 2.1zm0 5.5l-2.6.4 1.3 2.1zm.1 5.2V175l-2.2.9z"/><path d="M263.6 176.2l1.4-1.6-1.9-.5zm1.2-4.6l1.3-1.6-1.8-.5zm5.3 2.5l-2.7.6 1.3 2zm-4.3-13.2l-.4 1.7 1.6-.3zm2.1.4l-.5 1.8 1.6-.3zm-9.6-10.7l-1.3-.2.4 1.1zm2.4-.6l-.1-.9-.7.5zm-5.8 1.3l-.4 1 .9-.1zm13.5 12.4l-1-.3.1.9zm-5.4-9l-.6.9.9.1zm6.5 11.9l-2.1.4 1.1 1.6z"/><path d="M266.5 166.2l3.8 1.3-.2-3.5zm.5 5.6l3.8 1.3-.2-3.7zm-.7-10.6l3.7 1.3-.2-3.5zm.8 17.5l3.8 1.4-.2-3.7z"/><path d="M265.9 157.1l3.8 1.3-.3-3.6zm-.2-4l3.7 1.3-.3-3.6zm0-3.8l3.4 1.1-.3-3.2zm4.6 26.2l-2.1.4 1.1 1.6zm-.7-2.3l-.5 2.1 1.9-.4zm-.3 5.8l-.4 2 1.8-.4zm-.9 2.8l1.6 1.4.5-1.9zm-2.3-2.1v2l1.7-.8zm1.3 3.2v2.1l1.6-.8zm-6.2-9.8l-.5-1.2-.8.9zm3.7 4.5l-1.1.2.5.7zm1.8-8.4l-.1 1 .9-.3zm-6.4-6.5l-.5-.9-.6.7zm-1.6-2.3l-.9-1.5-.9 1.3z"/><path d="M259.7 165.5l-.5-1-.5.8zm1-2.5l-.5-.9-.5.8zm.5 8.9l-2.1.5 1.2 1.4zm-2.9-.8l-.1.9.7-.4z"/><path d="M254.9 159.9l-.7-1.2-.7 1zm4.5 4.9l-1.2.3.6.8zm1.3-9.6l.1 1.2.8-.5zm2.3-24.1l-.1 1.5 1.2-.5zm3 3l-1.6.6 1 1.1zm1.2 4.2l-1.5.4 1.1 1.3zm-3-8.3l-1.4.9 1.3.9zm-2 .3l-1.5.9 1.3.9z"/><path d="M264.1 132.2l-1.5.5.9 1.2zm-1.5-3.9l-1.4.8 1.1.9zm1.9 16.7l-1.9.3 1 1.4zm-.7-1.9v-1.9l-1.5.6zm1.2 2v-1.9l-1.5.7zm-3.8-9.1l-.2 1.4 1.2-.4zm-1.2 8.7l-.6 1.9 1.8-.1z"/><path d="M261.4 146.4l-.6-.9-.5.8zm3.3 3.7l-.8.3.5.6zm1.2-7.4v.9l.7-.2zm-4.5 5.2l-1.4-.2.3 1.3zm6.8-.1l-.5 1.1h1.1zm-6.6-7.7l1 .8.2-1zm.2 10.8l-.6-1.2-.8.9zm4 4.9l-1.1.2.6.9zm1.9-9.1v1.1l.9-.4zm2.6 30.9l-2.1.4 1.1 1.6zm.9 4l-2.1.5 1.1 1.5zm-4 8.4l-2.1.4 1.2 1.6zm-.9-3.4l.2-2.2-1.8.7zm1.5 3.2l.2-2.2-1.8.6zm-4.2-10.9l-.4 1.8 1.6-.5zm-.8 12.9l-.4 1.9 1.6-.4zm2.1-10.1l-.1 1.2 1-.3zm-.5-5.8l.9.3v-.9zm-6.2 6l.7-.8-.9-.2zm-3.3-4l-1.1-.2.2 1.1zm5.9-.6l-.4 1h.9zm-6.1-6l.9.6.3-1zm-2.4 19.7l-1.3-.1.4 1zm5.8-.5l-.4 1h.9zm-6-6l.9.5.1-.9zm2 20.1l-1.2-.2.3 1.1zm5.8-.6l-.4 1h.9zm-6-6l.8.6.3-1zm2.9 3.3l-1.3-.2.4 1.1zm5.8-.5l-.4.9h.9zm-6-6.2l.8.6.2-.8zm6.5 10.7l-1 .7 1 .6zm3.9-4.4l.3 1 .6-.7zm-8.7-.3l1.1-.2-.5-.7zm3.8-11.6l-.8 2.2 2-.2zm-3.9-1.9l.8.6.2-.9z"/><path d="M263.7 196.1l-.1-1.2-1 .5zm0-5.2l-.7-1.1-.6 1zm3.6 4.5l-.9.3.5.7zm1.7-8.3v1l.8-.4z"/><path d="M263.1 192.2l-1.5-.3.2 1.4zm7.9.4l-.7 1.2 1.2.2zm-6.9-9.2l1 1 .4-1.2zm.2 13.3l-.7-1.4-.8 1.1z"/><path d="M268.9 202.2l-1.3.3.8 1zm2.1-10.4l-.1 1.3 1.1-.5zm-8.4-9.4l-.5-1.2-.8.9zm3.7 4.5l-1.1.2.6.8zm1.7-8.4l-.1 1 .9-.3zm.8 1.8l-.3 1.8 1.6-.3zm-1.1.5L266 183l2.3.6zm.4-2.7l-2.7.6 1.4 1.9zm1.7 12.5l-2.7.7 1.4 2zm.3 5.5l-2.7.6 1.4 2zm-.1 5.4l-.1-2.8-2.3 1zm-4.4-1.5l1.3-1.8-1.8-.3z"/><path d="M266.8 195.3l1.2-1.8-1.9-.3zm5.2 2.4l-2.7.5 1.5 2zm-4.3-13.3l-.4 1.8 1.5-.3zm2.1.5l-.5 1.7 1.6-.3zm.4 2.4l-.9-.4.1.9zm-5.7-8.9l-.6 1 1 .1zm6.9 11.7l-2.1.5 1.2 1.5z"/><path d="M268 189.2l3.8 1.2-.4-3.6zm.5 6.3l3.7 1.2-.3-3.6zm-.8-11l3.7 1.4-.2-3.7zm1.3 17.7l3.6 1.4-.1-3.5z"/><path d="M267.5 180.4l3.9 1.4-.4-3.6zm4.5 18.7l-2.1.5 1.1 1.5zm-1.3-3.5l-.4 2.1 1.9-.6zm.5 6.9l-.3 2.2 1.8-.6zm-.8 2.9l1.7 1.4.5-1.9zm-2.4-2l.2 2 1.6-.9zm1.3 2.1l.1 2.1 1.6-.8zm-6.2-8.7l-.5-1.2-.7.9zm3.8 4.4l-1.1.3.7.7zm1.6-8.4v1.1l.8-.4zm-6.3-6.3l-.6-.9-.5.8zm-1.7-2.2l-1-1.5-.8 1.3z"/><path d="M261.6 189.2l-.6-.8-.5.7zm.9-2.4l-.5-.8-.5.7zm.6 8.9l-2.1.4 1.2 1.5zm-3-.8l-.1.9.8-.4z"/><path d="M256.7 183.9l-.9-1.3-.6 1.2zm4.5 4.7l-1.2.3.7.8zm1.1-9.7v1.3l1-.5zm.8-5.2l-.7-1.4-.8 1.1zm4.6 5.7l-1.3.3.7.8zm2.1-10.5v1.3l1-.4zm-9.6-30.3l-.6-.8-.4.8zm3.4 3.4l-.9.3.6.6zm.6-7v.9l.8-.3zm1.4 2.3l-.2 1.6 1.3-.4zm-1.3.4l-1.3 2.1 2.1.3zm0-3l-2.2.7 1.3 1.5zm2.4 10.9l-2.3.6 1.1 1.8zm-2-4.8l-.2 1.7 1.4-.5zm1.8.3l-.2 1.6 1.4-.4zm.5 1.8l-.9-.2.1.8z"/><path d="M261.6 135.1l-.4.8.7.1zm6.6 10.1l-1.9.4 1 1.4z"/><path d="M265.1 144.6l3.4 1-.5-3.1zm-.4-3.4l3.4.9-.6-3.1zm-.9-4.1l3.2.7-.6-3zm-1-3.7l3.2.5-.8-2.8zm-.6-3l2.9.3-.8-2.4zm-2.2 12.1l-.4-.7-.5.7z"/><path d="M259.6 145l-.5-.8-.4.7zm.7-2.1l-.3-.8-.6.6zm-1.9-24.4l.2 1.3.9-.7zm-2.1-3l-.7.2.4.5zm1.8 4l-.7 1 1 .2zm.6 4l-.7.9 1 .3zm2.5 3.1l-.6.7.9.3zm-.9 2.9l-.9-.5-.1.9z"/><path d="M260.2 126.8l-.8-.4v.8zm-2.5-7.6l-1-.4v.9zm-1.6-4.2l-.5-.3v.6zm-1.7-.8l.4-.5-.6-.1zm-.6-.8l.3-.4-.5-.1zm4.4 7.4l-1.1 1 1.2.5zm3.1 4.1l-1.5-.4.1 1.3zm-.8-3l-1.5-.3.3 1.2z"/><path d="M257.9 121.4l2.9-.2-1.3-2.3z"/><path d="M259.2 123.8l2.8-.3-1.2-2.3z"/><path d="M260.3 125.9h2.8l-1.1-2.5zm1 2.4h2.9l-1-2.5zm-4.1-9.7l1.7-.2-.9-1.5zm-.5-2.9v1.5l1.3-.5z"/></g><g xmlns="http://www.w3.org/2000/svg" fill="#dd6d22"><path d="M233 161.7l1.4-1-1.3-.7zm-1.7-4.5l1.1-1.1-1.3-.4zm4.6 2l2 .2-.8-1.7zm-1.6-1.6l-1.2 1.5 1.8.4zm-.4-2l1.8.1-.5-1.6zm-6.5 14.4l2-.1-.7-1.5zm3.7-16.2l1.8.7-.1-1.7zm2.3-4.2l1.7 1.2.3-1.7z"/><path d="M229.6 156.6l1.7.8.2-1.6zm1.7 1.3l1.6 1 .3-1.8zm.7-2.2l1.8.6-.2-1.7zm-1.2 5.3l1.9.3-.4-1.7z"/><path d="M229.8 160.9l1.9.6-.2-1.8zm6.5-5l.9-1.5-1.5-.1zm1.2-8l1.2-1.1-1.5-.4zm.2 5l.9-1.3-1.5-.2zm1.2-11.4l.7-1-.5-.4zm-1.5 2.7l1.3-1.1-.9-1zm1.7 4.5l.6-1.5-1.5.2zm-2.7-1l.5-1.7-1.4.2zm-4.2 15l1.5-.8-1.1-.9zm3.5-9l.6-1-1-.1zm-1.5 5.1l-.8-.7-.3.8zm7.2-2.9l-.9.5.8.4zm-.5 12l1.1.4-.1-.9zm-5.2-.5l.5-.8-.8-.1zm4.3 6.4l-.7-.6-.3.8zm-2-17.9l-.3 1.1 1-.2zm.2-5.2l.8.4v-.9zm-6.2 4.6l.7-.6-.8-.3zm1.5-3.5l.9-1.2-.6-1z"/><path d="M233.9 153.1l2.1-1.4-1.9-1.3zm-.9 1.3l2.5.9-.3-2.3zm3.7-3.7l1.4-.8-1.2-.9zm-1.1-1.9l1.5-.8-1.1-.9zm3.9 10.1l.9.5.1-1zm-3.6 3.2l-.6.9h.9zm5.2-3.9l.7-.7-.9-.2zm-8.3 29.7l.8-.7-.8-.3z"/><path d="M216 197.7l.9-.4-.7-.5zm19.9-42.7l.6-.7-.7-.3zm-.8-2.2l-2.5-2.6-1.6 3zm-2.3 3.6l-2.1-3-1.7 2.9zm4.9-10.4l1.8.3-.5-1.7zm-.3-.7l-.7-1.5-1.1 2zm2.6-1.3l-.9-.8-.2.9zm-13.1 35.2l1.3-.7-1.1-.9z"/><path d="M236 148.7l-1.2-1.8-1.3 2.1zm-5.1 10.1l-1.9-2.6-1.5 2.7zm-1.3 3.2l-2.3-2.9-1.5 2.8z"/><path d="M228.4 164.6l-2.5-2.7-1.4 2.6zm8.7-9.2l.1 1.7 1.3-.6zM233 162l2 .5-.4-1.7zm-10.4 14.4l1.9.5-.3-1.8z"/><path d="M226.5 175.5l1.8.4-.3-1.6zm5.9-13.5l-.9 1.6 1.6.2zm-7.8 2.5l-.9 1.7 2.8.2zm3.8.9l-1.1 1.5 1.8.3zm1.1-2.7l-1 1.5 1.7.3zm3 4.1l.1-1.2-1 .4zm.7 5.1l-.9-.2.1.7zm5.3-5.8l-.6.9.9.1zm-11.1-.1l.1-1.1-.9.3zm.8 5.3l-1-.4.2.9zm5.3-5.9l-.6.9.8.1zm4.3 11.2l1.1-.1-.5-.8zm-5.1 1.6l.2-1-.9.3zm6.5 4.2l-.9-.3.1.8zm-9.3-13.9l1.3-1.7-2-.3zm2 2.1l1.2-1.6-1.6-.3z"/><path d="M225.2 168.4l1.2-1.6-1.8-.3zm8.7-3.2l1.1-1.6-1.8-.3zm-8.6 16l1.1-1.6-1.6-.3zm18.6-18.2l-.7-.6-.1.8zm-8.7.2l-.2 1.1 1-.3zm-.6-5.2l.9.3v-.9zm-5.5 5.3l.6-.8-.8-.1zm14.5-18.7l.9.8.3-1zm-4.7-2.3l.8-.6-.8-.4zm1.6 7.7l-.3-1-.6.6zm3.4-1.3l.9.8.3-1zm-4.7-2.4l.8-.6-.7-.4zm1.7 7.6l-.3-.8-.7.6zm-1.6-14.1l1.6 1.1.3-1.7zm3.9-1.8l.7-.7-.8-.2zm.5 4.9l1-1.3-1.5-.2zm-.3-11.4l.6-.8-.6-.3zm-1.6 2.8l1-.7-.6-.7zm3.3.6l.3-.9-.8.1zm-3.9 2.4l.3-.9-.8.1zm-.5 11.7l.5-1-1-.1zm-1.6 5.1l-.8-.7-.2.8zm7.2-3.1l-.9.5.8.5zm-2.3-5.1l-.3 1.1 1-.2zm.3-5.2l.7.4.1-.9zm-6.2 4.6l.6-.6-.8-.3zm1.6-2.1l2.2-1.4-1.9-1.3zm1.9 2.9l-.1-2.6-2.1.9zm1-5.3l1.4-.9-1.3-.9zm-1.3-1.9l1.1-.6-.8-.6zm2.1-2.5l1.1.1-.3-1zm-1.3-.9l-.5-.8-.6 1.3zm2.5-1.9l-.7-.6-.2.8zm-3.8 5.4l-.8-1.2-.8 1.4zm6.5.4l.1-1.1-.9.2zm.4 5.3l-.8-.3v.7zm3.1-3.5l-.6.8.9.1zm-6.8-12.5l-.6.8.9.2zm-.6 3.3l-1.1.4.8.7zm-.5 4.2l-1.1.4.7.7zm3.7 13l.8.6.3-1zm-4.8-2.6l.8-.5-.6-.3zm1.7 7.7l-.4-.8-.5.7zm-8.2 21.5l-.6 1 .9.1zm1.7-5l.6.6.3-.7zm-7.3 2.9l.8-.6-.8-.4zm3.5-8.1l-.5 1.1.9.1zm1.8-4.9l.6.6.3-.7zm-7.4 2.9l.9-.6-.8-.5zm1.4-1.4l2.5.8-.2-2.2zm-.5-2.4l1.8.3-.3-1.6zm1.4 4.6l.9 1.5.7-1.2zm11-3.4l.4.8.5-.7zm1.3 4.3l.6 1 .7-.9zM238 161l1-.3-.5-.7zm-1.1 8.6v-1l-.8.6zm-6.5 10.4l1.2.7.2-1.2zm-5.6-1.9l.8-.7-.9-.3zm3.2 8.2l-.6-1-.6.8zm.1-18.3l-.4-1.6-1.1.9zm-2.9 2.4l1.2-1.2-1.3-.6z"/><path d="M226.8 170.1l-.4-1.7-1 .9z"/><path d="M225.2 168.7l-1 2.4 2.3-.1zm-1.4-2.4l-1 1.9 2.7.4z"/><path d="M225.9 170.9l1.9.8-.1-1.8zM224 173l1.7.9.1-1.8zm2.7.6l1.3-.9-1.2-.7zm-2.5-1.4l1.1-1.2-1.3-.6z"/><path d="M229.8 168.8l.3.9.7-.7zm-4.7 2l-2.3-2.8-1.4 2.8zm-5.5 10.5l.7-.7-.8-.5zm-.3-1.7l1.3.8.2-1.3z"/><path d="M220 177.4l1.4.7v-1.5zm.1 3.2l1.2.5.1-1.1zm4.5-3.4l-1.3 1.1 1.4.7zm-7.6 10.6l-1.5-1-.3 1.6z"/><path d="M222.8 178.8l-1.4 1.2 1.5.6zm2.6-5.3l-1.3 1.2 1.5.6zm3.6 1.7l-.2 1 .8-.1zm.1-4.8l.8.5v-.8zm-5.5 4.4l.6-.7-.9-.2zm5.8 7.4l-.3 1 .9-.3zm-.2-4.8l.8.3v-.7zm-5.3 4.5l.6-.6-.8-.1zm6-2.1l-.2 1.1.8-.2zm.4-4.8l.7.5.2-.7zm-5.8 4.2l.6-.6-.7-.3zm-3.6 0l1.2-.6-1-.8z"/><path d="M221.5 178.3l2-.4-.9-1.4z"/><path d="M222.8 177.7l1.1-.8-1.1-.6zm-1.2-2.4l1.2-.9-1.2-.7zm1.1-1.2l.5.8.4-.7zm1-.9l-2.2-2.3-1.4 2.7zm-1.6 2.8l-1.8-2.1-1.1 2.4zm-.8 2.4l-2.2-1.9-.8 2.3zm-1.1 2.1l-1.8-1.6-.8 2zm2.6 2.5l1.3-1-1.2-.6zm-3.2-.1l1.2-1.1-1.5-.6z"/><path d="M220.4 182.4l1.3-1-1.4-.7zm.2 2l1.7.9.1-1.7zm-2 1.6l1.4 1.2.5-1.7zm2.3 1.3l1.4-.8-1.1-.8zm-2.2-2.7l1.2-1.1-1.3-.7zm5.1 1.8l-.6.6.8.3z"/><path d="M220.3 183.7l-2.7-2.8-1.1 2.5zm-.8 3l-1.6.8 1.3 1zm2.6 2.8l-.4 1h.8zm1.2-4.6l.7.6.2-.8zm-6.4 3.1l.7-.6-.7-.4zm4.1 8.5l-.5.9.9.2zm1.9-4.4l.6.7.3-.7zm-6.8 2.1l.8-.4-.6-.5zm6.6-1.3l-.5.9.9.2zm1.9-4.4l.6.6.3-.6zm-6.7 2l.7-.3-.5-.5zm24.2-20.5l1.1.3-.2-1zm-5.3 0l.4-.7-.9-.1zm5 6l-.7-.6-.3.9zm-7.7 15.3l.7-.6-.9-.3zm5.8-8.7l1.2-.1-.5-.8z"/><path d="M234.9 183.9l.3-.8-.8.2zm6.3 4.6l-.8-.4v.7zm-13.9-1.6l1.3-1.6-1.7-.4zm-8.5 5.2l1.7-1.1-1.6-.8zm-2 4.5l1.6-1.2-1.4-.9zm.9-4.4v2l1.6-.8zm1.8-5.1l.4 1.9 1.3-1.2zm-5.7 18.6v1.3l1.2-.4zm-.5-.3l2.3-1.6-2.3-1.2zm12.1-18.8l1.4-1.6-1.8-.4zm-11.8 11.9l2.6-2.6-2.3.1zm-.2 3.9l2.3-1.5-2.2-1.7zm2-2l.4-1.2-1.3.1zm.3-5.2l.5-1.2-1.4.1zm.6-2.6l.4-1.2-1.4.1zM237 179l-.6 1.1 1 .1z"/><path d="M238.2 174.1l.7.5.3-.8zm-7.1 3.2l.8-.6-.7-.4zm1.4 8.5l1.2.7.2-1.1zm-5.4-2.1l.8-.7-1-.4zm2.7 8.4l-.4-1.1-.6.8zm1.3-4.6l-.2 1 .9-.1zm.1-4.7l.7.4v-.8zm-5.5 4.4l.6-.6-.7-.2zm6-4v1l.8-.3zm0-4.9l.7.4v-.8zm-5.4 4.7l.5-.7-.7-.2zm-4.7 6.5l1.6 1 .3-1.7zm.2 3l1.5-.8-1.1-.9zm-7.2 6.3l1.5-.5-.9-1.1zm1.5-3.4l1.6-.5-.9-1.2zm8.9-3.5l-.7.6.8.3zm-1.9 3.1l-.5.9h1zm1.4-4.6l.6.5.3-.7zm-6.5 2.7l.7-.5-.6-.4zm5.2 8l-.4.9.9.1zm1.5-4.5l.6.5.3-.8zm-6.6 2.7l.7-.5-.5-.4zm-.5-6.3l.4-1.3-1.1.1zm-1.7-2.7l.8-1.2-1.3-.2z"/><path d="M216.5 186.8l-.1.9.8-.3zm2.1-1.6l-2.1-1.6-.7 2.7zm-2.5 8.9l-1.7-1.7-.5 3.3zm1.4-3.2l-2.5-1.4-.3 2.6z"/></g><linearGradient xmlns="http://www.w3.org/2000/svg" id="tp-F" gradientUnits="userSpaceOnUse" x1="195.739" y1="162.038" x2="256.658" y2="163.959"><stop offset="0" stop-color="#dd6d22"/><stop offset="1" stop-color="#dd6d22" stop-opacity="0"/></linearGradient><path xmlns="http://www.w3.org/2000/svg" d="M241.6 117.9s9.3 12.4 11.4 40.9c1.5 20.4 2.7 48.9 2.7 48.9h-57.5s-4.1-24.6 6.8-48.4 36.6-41.4 36.6-41.4z" fill="url(#tp-F)"/><linearGradient xmlns="http://www.w3.org/2000/svg" id="tp-G" gradientUnits="userSpaceOnUse" x1="184.93" y1="241.686" x2="202.927" y2="239.422"><stop offset=".298" stop-color="#f5b02a"/><stop offset="1" stop-color="#e46c26"/></linearGradient><path xmlns="http://www.w3.org/2000/svg" d="M199.4 245.6l-10.8 2c-1.2.2-2.4-.6-2.5-1.8l-1.9-10.4 16.4-1.2.5 9.3c.3 1-.6 2-1.7 2.1z" fill="url(#tp-G)"/><linearGradient xmlns="http://www.w3.org/2000/svg" id="tp-H" gradientUnits="userSpaceOnUse" x1="184.213" y1="151.632" x2="249.968" y2="210.437"><stop offset=".298" stop-color="#f5c52a"/><stop offset="1" stop-color="#e46c26"/></linearGradient><path xmlns="http://www.w3.org/2000/svg" d="M235.8 102c8.9 5.1 16 18.3-1.3 45.3s-21.3 42.8-21.3 60.1 2.7 21.6-3.2 27.6-20.9 6.2-26.7 6-16.7-.8-19.1-25.8c-2.4-25.1 5.9-52 14.1-68.5s17.5-30.8 26.5-39.4c10.7-10 20.5-11.1 31-5.3z" fill="url(#tp-H)"/><g xmlns="http://www.w3.org/2000/svg" fill="#ffe05f"><path d="M167.1 223.5l1-.4-.8-1zm-.3-3.7l-.2-.6-.5.4zm-1 4.8l.9-1-1.4-.4zm2.7-2.1l.3-1.2-1.5.3zm.7 2.5l.1-1.3-1.3.3zm-1.2-3.7l.2-1.4-1.4.3zm8.4-2.3l.8-.3-.8-.6zm-11.5.9l.3 2.5 2.3-1.4zm2.3-11.8l1.1.1-.5-1.1zm-1.9.6h1.1l-.4-1.1zm-.4-2.4l1.1.1-.4-1.1zm.7 1.1h1.1l-.5-1.2zm2.7 2.9l.6-1.2-1.4-.1zm-2.8 1.5l.6-1.2-1.5.1zm-.3 2.8l.5-1.2-1.5-.1zm-1.3-8.4v1.6l1.8-.9zm3 .2l.8-1.1-1.5-.1zm-.5 3.9l.7-1.2h-1.5zm0-5.8l.6-1.3h-1.4zm2.6 14.4l.3-1.2-1.4.3zm-.7-4.3l-1.2.1.5 1.3zm-.2 2h-1.2l.5 1.4zm-1.6-3.7h1l-.6-1.2zm.3-8.1h1.1l-.5-1z"/><path d="M164.9 204.7h.9l-.4-1.1zm3.3 12.8h.8l-.3-.8zm-.8-4.9l.1.6.6-.4zm5.6 2.4l-.5.3.5.5zm-3.6 3.9l1.3-.5-1.1-1.1zm2.7-4.9l.3.4.4-.5zm-1.6-2.7l.5.6.3-.8zm.3-7.6l.2.7.5-.6zm4.1-2.8l-.7.6.7.2zm-1.9 7.5l-.5.3.6.4zm1.8-1.1l-.4-.4-.3.6zm-.1-2l-.4.5.8.1zm2.3 1.5l-.3.6h.7zm-12.1 6.7l1.1.1-.5-1.3z"/><path d="M165.9 214.6l1.4-.8-1.4-1.2zm1.3-2.6l.7-1.5-1.9.1zm0 11.3l.4-1.6-1.8.5zm-1.4-7.3l1.2-.1-.6-1.1zm-1 .8l1-.2-.6-1zm5.1-10.9l-.6-.3.1.7z"/><path d="M166 217.1l-.1-.6-.6.3zm1.5-6l.5-.3-.5-.4zm-1 9l.2-1.1-1.4.2z"/><path d="M164.5 217.2l.3 2.4 2.3-1.4zm-.5-3.2l.4 2.3 2.2-1.3zm-.1-3l.3 2.4 2.3-1.3zm0-3.1l-.1 2.6 2.5-1.1zm-.1-4.1l.1 2.4 2.4-1.1zm7 10.4l-.5-.3-.1.7zm-1.8-.3l-.9-.6-.1 1.2zm.2-3.2l-.4-.4-.3.9zm2.7 5.1l-.6-.4-.1.7zm-3.2-15.3l.8.4v-.9zm-2.2-7.3l.5.6.4-.7zm1.8-2.6l-.4.4.6.3zm-1.2-3.5l-.4.5.7.2zm-.8-3.1l-.4.5.6.2zm4 14.1l-.6-.3v.8zm-2.3-.7l-.5-.3-.2.6z"/><path d="M166.1 195.1l1 1 .3-1.6zm5.4-.7l-.2.7h.6zm-4.5-8.6l-.3.6.7-.2zm-.8-2.7l-.2.6.7-.1zm3.6 12.1v-.5l-.6.3zm-1.6-1.1v-.6l-.6.3zm2.7 8.2l-.1-.6-.7.3zm-.3 12.2l-.6-.3v.7zm-6-20.2h.7l-.2-.8zm1.1 3.1l.7-.8-1.1-.3zm-1 2l.5-.8-1.1-.3zm-.2-6.1l.9-.4-.7-.7zm3.3 6.4l-1.2-.2.4 1.2zm-.3 2.3l-1.1-.1.4 1.2zm2.7 1.2l-.4-.4-.3.8zm-1.9 4l.2-.4-.7-.1zm-2.9-4.8l.6.1-.2-.7zm-.1-3.7h.8l-.4-.8z"/><path d="M165.3 200l1.3-.6-1.2-1zm.2.5h.9l-.2-.8zm-1.4 1l1.1.1-.5-1zm1.7.5v-.7l-.6.4z"/><path d="M163.9 201.5l.1 2.2 2.2-.8zm0-2.5v2l2-.8zm.5-2.2l-.2 1.8 1.8-.7zm.5-6.2l-.1 1.6 1.6-.6zm-.5 4.1l-.1 1.7 1.7-.6zm1.2-6.9l.3.6.4-.6zm1.1 2.4l.8.6.3-1.3zm-1.1-4.6l1 .6.1-1.2zm.5 5.2l.5-.7-1-.2zm-.9-2.2l-.2 1.3 1.4-.5zm.2-2.6v1l1.1-.3zm5.5 43.8l.9-.4-.8-.8zm-1.7 1.4l1.1-.5-.9-.8zm-1.3-2l1-.3-.7-.9zm1.1.6l1-.4-.9-.9zm3.9 1.2l-.1-1.2-1.3.7zm-1.8 2.8v-1.3l-1.3.7zm1.6 2.6l-.2-1.3-1.2.7zm-5.4-6.8l.5 1.6 1.4-1.3zm2.6-1.2l.1-1.3-1.4.5zm1.4 3.7l-.2-1.3-1.2.6zm-2.7-5.3v-1.4l-1.2.6zm8.2 8.6l-.9.8 1.2.7zm-3.8-1.1l.9-.8-1.1-.5zm-3.8-7.4l1-.4-.9-.8zm-2 .7l1-.3-.9-.9zm8.2 3.3l.7.3v-.9zm-3.1-6.3l.6.5.4-.8zm2.9-4l-.3.4.7.2zm.9 6.5l-.3.5.7.3zm1.4-1.1l-.6-.2.1.7zm-1-1.9l-.1.7.7-.2z"/><path d="M179.5 224.7l-.1.6.7-.2zm-5.4-2.5l.5-.4-.6-.4zm-1.3 1.2l.4.4.2-.7zm-2.9-.9l.6.3.2-.6zm1.5.6l.3-.6h-.7zm-.2 3.1l.6-1-1.4-.1zm3 3.2l.3-1.2-1.3.3zm-4-5.5l.2-.5-.7-.1zm1.7 11.7l.9-.6-1.1-.7zm1.5.3l.8-1.6-1.9-.1zm-.2-2.8l-.3-1.6-1.6.9zm1.8 3.9l.8-.8-1.1-.4zm-.1 1.9l.8-.8-1.1-.4zm-2.5-12.1l-.6.1.3.6z"/><path d="M175.8 237.7l-.5-.4-.2.7zm-3.2-5.4l.2-.6-.6-.1zm-.5 4.8l1.8 1.5.8-2.5zm-2.4-2.9l1.4 1.9 1.3-2.4zm-1.7-2.8l1.2 2.3 1.5-2.3zm-1.5-4.1l.7 2.3 2.1-1.7zm11.2 5.8l-.5-.1.2.6zm-1.7.6l-.9-.1.3 1.2z"/><path d="M174.2 231.1l-.7-.2.2.7zm3.5 2.3h-.6l.4.6zm-9.2-9.2l-1.1.3.9 1zm3.2.1l-.7-.2.1.7z"/><path d="M171.4 228.7v-.5l-.6.2zm-4.4-3.3l.4-.1-.3-.6zm.8.5l.9-.4-.6-.7zm-.9 1.4l.9-.4-.7-.8z"/><path d="M168.5 227.1l-.2-.5-.4.5zm-2.6-2.1l.5 1.7 1.7-1.3zm12 15.3l-.2-1.3-.9 1zm.9-2.9l-1-.8-.3 1.4z"/></g><g xmlns="http://www.w3.org/2000/svg" fill="#ea8f2d"><path d="M240.7 123.7l-.5-.6-.4.9zm-4.4 5.6l-1.2-1.1-.5 1.9zm4.3-.2l-1.3-1-.3 1.7zm-1.3 1.6l-1.5 1.2 1.9 1z"/><path d="M241.6 126.4l-1.1 1 1.7.7zm.1 5.3l-1.6.9 1.6 1.3zm-3.4-2.7l-1.7.8 1.5 1.4zm1.4-1.2l-1.3 1.2 1.9.8zm-1.2 6.1l-1.6.9 1.5 1.2zm0-7.9l-1.6-.3.4 1.7zm-2.1 6.5l-1.3-.9-.4 1.7zm7.9-9.5l-.9-.6-.2 1.3zm-6.7 6.2l.2-.9-1 .1zm4.3-14.7l1-.1-.4-.9zm-13.6 18.7l.2-1-1 .5zm15-17.1l-.6-.8-.5.8zm-5.9 8.1l.9.7.4-1.2zm5.1-5.1l-.9-.1.4.9zm-2.1 2.1l.5.8.8-.8zm.7 5.2l-.7-.5-.2 1.1z"/><path d="M244 125.1l-1.7-.2.5 1.7zm-11.7 5l-.4 1h1.2zm.8 1.1l.7.7.2-.9zm-2.4-2.2l-.9-.3.2 1zm6.9-3.2h-1l.5.9zm5.1 5.6l.6-1.9-1.8.6zm-2 4.8l1.1-2.6h-2.7zm2.5-16.1l.7.6.2-.9zm-5.5-2.4l.6.4.3-.9zm5.8-2.1l.7.5.2-1zm-8.4 22.3l-1.4-.8-.3 1.6zm2.7-.2l-1.3-.8-.3 1.6zm-2.3 5.7l-.4.9.9.1zm-.7-10.1l-1.6 1 1.6 1.2zm6.3-3.1l-1.2.6 1.1.9zm-.9 5.3l-1.1-.7-.2 1.5zm-1.7-3.3l-1.1-.7-.2 1.5zm-.7 6.1l-1.6.9 1.7 1.2zm-1.7.4l-1.7.8 1.6 1.3zm1.1-3.8l-1.5 1 1.6 1.2zm-3 7.4l-1.7.9 1.5 1.3zm1.4-1.5l-1.7.9 1.6 1.2zm-2.7-1.6l-1.2-.9-.4 1.6zm4.8-10.6l-.8-.6-.4 1.1zm-2.5 8.2l.4-.7-1.1-.1zm-2.7-9.9l.9.1-.3-.9zm3.3-1.9l-.7.7 1.1.4zm-3.4 7.4l-.9-.5-.1 1zm-7.9 4.1l.2-.8-1 .1zm3.7-.5l-.6.8 1.2.2zm1.6 1.5l.5.8.5-.8zm-2.8-5.2l-.8-.5-.1 1z"/><path d="M239 139.6l1.4-3-2.6.1zm-2.2 3.8l1.7-2.9-2.7.2zm-13.3 13.1l-1.3-.9-.4 1.8zm2.8.5l-1.2-.9-.5 1.6zm-1.3 3.4l-1.2-1-.3 1.8zm-.1-1.7l-1.3-1-.3 1.8zm-1.2-5.7l-1.6.9 1.7 1.3zm4.7.3l-1.6.8 1.7 1.4z"/><path d="M231 150.5l-1.7.8 1.6 1.3zm-5.2 11.2l1.2-2.1-2.9-.3zm-3.2-3l-1.8.9 1.7 1.2zm3.5-4.4l-1.4.8 1.5 1.4zm-4.7 7.3l-1.5 1.2 1.7 1zm11.9-22l-1 1.7 2.2.2zm-5 8.4l1.4 1.2.6-2.1zm2.6-2.8l1.3 1.1.7-1.9zm-2.7 5.8l-1.3-1-.3 1.9zm-7.4 9.7l-1.3-.9-.1 1.8zm3.1 1.7l-1.4-.9-.2 1.7zm6.8-19.2l-.7-.8-.5 1.1zm-4.5 7.1l.5-.8-1-.2zm-2.5-10.2l.9.3-.1-1.1zm8.1 1l-1.6-1-.1 2.2zm-7.5 1.9l.2-.8-1 .1z"/><path d="M224.7 138.2l.2 1 1-.7zm6.3-3l-.8.4.7.6zm-2 10.2l-.7-.7-.2.9zm.3-15.1v1.2l1.1-.6zm7-7.5l-.9.2.7.8zm-5.7 15.6l-.5-.8-.5.8zm0 13.2l-1.4-1-.4 1.8z"/><path d="M230.3 149.5l-2.5-.3.8 2.6zm-4.1 2.1l-1.9 1.4 2.3 1.4zm8.7-10.1l-2.2 1.1 2.2 1.7zm-3.4 4.9l-1.3-.9-.4 1.8zm2.3 1.3l-1.2-1-.4 1.7zm-16.1 9.9l.6.7.3-1z"/><path d="M232.9 145.9l-.6.9 1 .1zm-7.6 6.9l-.9-.1.3.9zm8.7-5.2l1.9-2.7-3.1-.3zm-2.6 4.5l1.8-3-3.8-.6zm-1.9 3.4l1.6-3.1-3.8-.4zm-2.6 4l2.1-3.4-3.8-.2zm-2.7 5.2l1.5-3-3.8-.2zm1.5-20.4l.1 1 .8-.6zm1.1 3.8l.3 1.4 1.5-1zm-3.4 2.7l.2 1 .9-.6zm3-9.3l.1.9.9-.7zm1.6 1l.3.8.7-.6zm-6.8 27l-1.4.5 1.2 1.2zm-3.5-3.6l1.2 1.2.7-1.9zm-1.1 3.6l1.3 1.1.6-1.8zm7.6-20.2l1.6.8.1-1.9z"/><path d="M218.6 163.6l1.4 1 .4-1.8zm-3.1-3.3l.4.9.8-.8zm5.3-3.7l-.7.6.9.4zm.3 8.3l-.6-.6-.2.9zm-1.1-18l.3.8.8-.6zm2-3.8l-.7.4.7.5zm-.9 10.6l-.6-.6-.2.8zm-4.7-2l.2 1 1-.6zm3 4l-.7.4.6.6zm-1.4 8.1l-.6-.7-.3.9zm2.1 6.5l-1-.6-.1 1.4zm.8-2.4l-1.9-.2.7 2zm.2-1.2l-1-.8-.4 1.4zm1.6.4l-1.3-.6v1.5z"/><path d="M220.8 165.3l-.2.7h.9zm1.9 2.5l1.4-2.9-3.5-.6zm-1.4 3l1-2.5-3-.1zm-1.5 3.2l1-2.6-3.1.1zm-8.3 9.5l-1.4-.7v1.8zm2.9 0l-1.3-.7-.1 1.7zm-.4 3.6l-1.5-.6.1 1.8zm-.6-1.8l-1.5-.6v1.8z"/><path d="M215.3 169.6l-1.4 1.2 2 .8zm.4 9.8l-1.3 1.1 1.8 1zm2-3.2l-1.5 1.1 1.8.9zm-2.7 11.9l.6-2.3-2.7.6zm-4-1.9l-1.2 1.3 2 .7zm2.8-5.4l-1.5 1.2 1.9.9zm-3.1 8.5l-1 1.5 1.8.5zm5.7-15.7l-1.4-.5.2 1.8z"/><path d="M210.1 188.5l-1.6-.3.4 1.6zm3.3.8l-1.5-.5.2 1.8zm4-12l-1.4-.7v1.7z"/><path d="M216.7 175.2l-2.4.3 1.4 2.4zm1-2.7l-.7.9 1.2.4zM206 185.7l.8.6.2-1zm6.7-6.2h-1l.6.9z"/><path d="M218.3 177.5l1.3-3.3-3.8.2zm-1.1 3.8l1.1-3.4-3.8.4zm-1.7 4.4l1.4-3.7-3.8.6zm-1.1 5.8l.6-3.4-3.8.8zm-1.5 5.5l-1.2 1 1.6.6zm-1.2 3.4l1.5.8v-2zm-.3 6.7l1.5.6v-1.8zm-2.8-15.1l1.6.6-.1-1.9z"/><path d="M209.6 204.6l.6.8.5-.8zm1.2-26.9l-.6.5.8.3zm.6 14.9l-.8-.4v.9zm.9-18.8l-.7-.5-.1 1zm-3.3 6.4l-.6.5.7.6zm1.2 20.4l-.6-.5-.2.8zm1.9-2.5l-1.1-.3.3 1.5zm-.1-2.4l-1.8.3 1.3 1.8zm-1.3-1.6l-1.1-.4v1.4zm2.9.1l-1.4-.2.3 1.5z"/><path d="M211.2 193v.7l.8-.2zm2.6 1.8l.4-3.2-3.4.6zm-.4 3.4l.3-2.7-3 1zm-.5 6.2l.3-2.8-2.9 1.1z"/></g><g xmlns="http://www.w3.org/2000/svg" fill="#ffe05f"><path d="M176.8 156.2l1-.8-1.1-.4zm-2 1.9l.6.5.2-.6zm-.3-3l1.4-.4-.8-.9zm2.3 1.6l1.4.6-.1-1.4zm.6-2.3l1.4.4-.2-1.2zm-1.7 3.4l1.4.5-.1-1.3zm9.1 3.6l.8-.4-.6-.4zm-8.5-4l-1.9-2-1 2.3zm-3.1 13.3l.7-1-.9-.2zm-1.6-1.1l.7-1-1.1-.1zm-1.1 2.1l.8-1-1-.2zm1-.8l.7-.9-1.1-.2zm2-2.2l1.4.2-.3-1.1zm-2.4-2.1l1.4.3-.2-1.4zm.6-3l1.4.4-.3-1.2zm-.6 6.5l-1.4-1.3-.5 1.7z"/><path d="M171.2 172l1.4.2-.4-1.2zm.5-3.8l1.3.3-.2-1.2zm-1.7 5.4l1.4.4-.2-1.3zm6.3-13.6l1.4.5-.1-1.3zm-.6 1.8l-.8 1.2 1.2.3zm.3-1.9l-.9 1.2 1.3.2zm-2.2 6l1-.9-1.2-.4zm-1.8 7.8l.8-1-1-.3zm-2-.4l.7-1-1-.3zm6.9-11.8l.4-.8-.7-.1zm-1.2 3.7l-.5-.5-.2.6zm5.4-2.2l-.7.4.6.4zm-3.1-2.1l1.2-.8-1.2-.6zm2.5 3.9l-.3-.6-.5.4zm-2.7 3l-.1-.9-.6.5zm-1.7 6.9l-.6-.7-.3.6zm2.7 2.8l-.8.3.4.4zm.2-7.4l-.7.2.4.4zm.5 1.7l.1.7.5-.2zm.4 2h-.7l.3.5zm2.9-1l-.6-.2.1.7zm-10.2-7.8l.8-1.1-1.1-.2z"/><path d="M173 164.8l1.8-.6-1.2-1.3zm-.5 2l1.9.5-.2-1.6zm2.8-10.8l1.7.6-.1-1.5zm-1.1 6.8l.9-1-1.1-.3zm-1.1-1l.9-.9-1-.4zm1.5 9.9l-.3.7.7-.2zm-2.3 18.9l-.8-.3v.6zm3.6 1.5l-.6.6.5.2z"/><path d="M173.6 197.4l-.5.5.5.2zm-.6-12.2l-.5.5.5.2zm1.2 1.4l.4.6.4-.4zm1.2 1.6l-.7.3.5.3zm2.2-2h-.6l.4.6zm-2.1-4.8l-.6.1.4.6zm-5.8 7.2v.7l.6-.5zm3.9-28l.5.4.4-.5zm.3 6.9l.6-.3-.5-.5zm.1-9l1.4.4-.1-1.3zm1.3 1.3l-1.9-1.8-.9 2.2zm-1 2.6l-1.9-1.6-.8 2.3zm-1 3.3l-2-2-.8 2.4zm-1 2.7l-1.9-2-.8 2.7zm-1 3.8l-2.1-1.8-.6 2.2zm6.6-8.4v.6l.7-.2zm-2.2-.5v1.2l.9-.5zm-.6 3.6l.1.8.7-.2zm4.2-4.6v.8l.5-.3zm-6.5 15.4l.2-.8-.8.3zm-4.1 6.1l-.2-.8-.5.5zm.8 2.1h-.7l.2.6zm-2.4 3l-.7.1.3.6zm-1.5 2.8h-.8l.4.6zm6.9-12.3l-.2.6.6-.1zm-2.4.1l-.1.7.5-.2zm-.8 3.2V181l-1.3.6zm3.8.9l-.8-.4v.8zm-6.3 6.9l-.5-.2-.1.5zm-1.3 2.3l-.7-.2.1.6zm5.6-10.2l.4.6.3-.6zm-1.9.5l.4.5.3-.6z"/><path d="M174 176.2l.6.4.1-.5zm3.9-12.8l-.1.6.6-.2zm-11.1 19.4l.3-.8-.7-.1zm.8-2.5h1.2l-.3-1zm-.5-2.6l1.2.3-.3-1.1zm-1.2 6.2l.8-.5-.6-.5zm4.7-7.6l-.7 1.1 1.2.2zm1 1.7l-.7 1.1 1.2.2zm-.5-3.9l-.8 1 1.1.2zm3 .3l-.1.7.7-.2zm-.9-3.5l.6.2v-.7zm-3.2 4.2l.4-.5-.7-.1zm8 6.3l-.6-.7-.3.6zm2.6 2.8l-.7.3.3.4zm-2.7 14.6l-.7.3.3.4zm3.9-18.3h-.8l.3.5zm-5.9 2.4l.6.4.1-.5zm0-1.8v.7l.7-.2zm-.8-3.4l.6.1-.1-.7zm-3.3 4.2l.5-.6-.7-.1zm-3.3-3l.7-.8-.8-.2z"/><path d="M168.3 178.1l1.4-.5-.9-1zm1.1-1l.6-.7-.9-.2zm-1.1-1.2l.9-.9-1.1-.2zm.8-1l.5.4.3-.4z"/><path d="M170.5 174.1l-2-1.4-.7 2.2zm-1.1 2.4l-1.7-1.4-.5 1.9zm-.5 2.5l-1.6-1.3-.5 1.8zm-1.7 6.1l-1.4-1-.3 1.6zm1-4.1l-1.4-1.1-.4 1.6zm-2.1 7.7l-.2-.7-.5.5zm1.8-1.3l.2-1.2-1.1.3zm-2.1 4.2l.3-1.3-1.1.4z"/><path d="M166.1 186.4l.9.1-.3-.8zm.6.7l-1.3-.8-.2 1.4zm-.8 2.8l-.9-.6-.2.8zm22-55.3l1-.8-1-.5zm-2.3 1l.4.6.5-.5zm.1-2.6l1.4-.3-.7-1zm2.1 2.1l1.3.6.1-1.3z"/><path d="M188.7 135.8l1.3.8v-1.4zm-2.1-.4l1.3.7v-1.3z"/><path d="M195.1 140.3l.8-.4-.5-.4zm-7.8-5.1l-1.7-2.1-1.2 2.1zm-4.8 12.7l.8-.9-1-.3zm-1.6-1.3l.9-.8-1-.3zm-1.2 1.9l.8-1-1-.3zm.9-.5l.9-.9-1-.4zm2.3-2.1l1.4.5-.1-1.3zm-2-2.5l1.4.5-.2-1.2zm.8-2.7l1.3.5v-1.4zM180 147l-1.1-1.6-.8 1.6zm.2 1.9l1.4.4-.1-1.2zm.9-3.7l1.4.5-.1-1.3zm-2.2 5.2l1.3.5-.1-1.3zm8-12.7l1.4.7V137zm-.8 1.7l-1 1 1.2.5zm.4-1.8l-1 1 1.2.5zm-2.8 5.6l.9-.8-1-.5zm-2.8 7.5l.9-.8-1.1-.4zm-1.9-.7l.8-1-1-.3zm8.3-10.8l.5-.7-.8-.2zm-1.7 3.5l-.4-.5-.4.5zm5.6-1.4l-.6.3.4.4zm-2.8-2.5l1.4-.7-1.1-.8zm1.9 4.2l-.1-.7-.6.4zm-2.9 2.6l.1-.9-.8.4zm-2.6 6.6l-.4-.8-.5.5zm2 2.6l-.7.2.3.5zm1.5-6.8l-.7.1.3.6zm.2 1.9l-.1.6.6-.2zm-.2 1.3l-.7-.1.2.6zm3.4-.1l-.8-.1.1.6zm-8.3 6.4l.6-.4-.4-.4z"/><path d="M182.7 155.8l-.1-.7-.5.3zm-2.6.6l-.1-.6-.5.3zm2-2.5h.7l-.3-.6zm-2.2-.4l1.3.1-.5-1.1zm4.8-5.8h1.4l-.4-1.1zm-5.5 7.6h.8l-.2-.6zm3.2-13.2l.9-.9-1.1-.3z"/><path d="M182.9 142.1l1.9-.5-1.1-1.4zm-.6 1.9l1.8.7-.1-1.7zm4.1-10.2l1.2.7.2-1.8zm-1.9 6.3l.8-.8-.9-.4zm-.9-1.1l1-.8-1-.5zm0 10.1l-.4.5h.7z"/><path d="M184.2 137.8l.4.6.3-.5zm-.8 6.9l.7-.2-.4-.4zm1.5-8.8l1.2.5v-1.2z"/><path d="M186 137.4l-1.6-2.2-1.2 2zm-1.4 2.7l-1.7-2.2-1.1 2.1zm-1.5 2.5l-1.7-2-1.1 2.1zm-1.5 2.6l-1.5-2.1-1.3 2.3zM180 149l-1.9-2.1-1 2.1zm8-7.4l-.1.6.6-.1zm-2.2-.8l-.1 1.3 1-.3zm-.9 3.7l-.1.7.6-.3z"/><path d="M189.6 140.4l-.2.8.5-.3zm-1.6.9l-.2.6.6-.1zm-8.1 9.6l-1 .9 1.2.5zm2.8.8v.7l.6-.2zm-.4-3.6l.6.2.1-.6zm-3.6 3.7l.3-.6-.5-.1zm-1.1 1.8l.6-.7-.9-.3zm-.6-1.3l.8-.7-1-.4zm.9-.8l.3.4.3-.4zm1-.6l-1.7-1.8-1.1 2zm-1.5 2.1l-1.5-1.4-.7 1.8zm24.1-38.8l1.1-.4-.7-.8zm-2.2 1.2l.2.7.5-.5zm.9-2.9h1.4l-.5-1.2zm1.1 2.1l1.2 1 .3-1.3zm0 2.6l1 .9.4-1.2z"/><path d="M200.2 115.5l1.2.8.2-1.2zm6.1 2.7l.9-.2-.5-.5zM201 115l-1.2-2.4-1.6 1.8zm-6.5 12.1l1-.8-1.1-.5zm-1.5-1.6l1-.7-1-.5zm-1.4 1.8l.9-.8-1-.6zm1-.5l1.1-.7-1-.5zm2.5-1.7l1.4.7v-1.3zm-1.5-2.9l1.2.8.2-1.4zm1.2-2.6l1.3.8.2-1.2zm-2.4 6.2l-1-1.6-.9 1.2zm-.4 1.9l1.3.6.1-1.3zm1.6-3.7l1.2.7.3-1.3zm-3.2 5l1.3.7.1-1.3zm10-11l1.3.8.2-1.2zm-1 1.4l-1.2.8 1 .7zm.7-1.7l-1.2.8 1.1.7zm-3.7 4.8l1.1-.6-.9-.7zm-3.9 7l.9-.6-.9-.6zm-1.9-.9l.9-.8-.9-.5zm10-9.2l.5-.6-.6-.3zm-2.3 3.1l-.3-.7-.5.5zm5.7-.3l-.7.2.4.5zm-5.9 1.5l1.4-.5-.7-.9zm4.8-.4l-.1-.7-.5.2zm-3.3 2.1l.1-.9-.7.3zm-3.6 6.2l-.2-.8-.5.5zm3.3 1.5h-.8l.4.5zm.8-5.2h-.7l.4.6zm-2.2 3.2l-.2.8.6-.1zm5.2-4.5l-.7-.3v.5zm0 5l-.7-.3v.6z"/><path d="M193.9 136.7l.7-.1-.4-.6zm-.3-1.8l.1-.7-.7.2zm-2.6.5v-.7l-.6.2zm2.3-2.2l.7.2-.1-.7zm-2-.7l1.3.2-.3-1.2zm-1.9-.2l.8 1 .5-1.1zm6.3-4.9l1.4.3-.3-1.2zm-5.3 6.7l.7.2-.2-.7zm4.9-12.9l1.1-.8-.9-.4zm.5.2l1.8-.1-.7-1.5zm-.9 1.7l1.5.9.3-1.7zm4.5-7l1.5 1.2.4-1.6zm-1.8 3.7l1.1-.7-.9-.6zm-.7-1.3l1.1-.5-.8-.8z"/><path d="M195.3 128.3l-.3.6h.7zm2.2-10.9l.2.7.4-.6zm-1.7 6.7l.7-.2-.4-.5zm2.6-8.6l1.1.9.4-1.4z"/><path d="M199.2 117.2l-1.1-2.5-1.7 1.9zm-1.8 2.3l-1.2-2.5-1.6 1.9zm-1.7 2.2l-1.3-2.2-1.4 1.8zm-1.6 2.3l-1.3-2.3-1.5 2.2zm-2.4 3.9l-1.3-2.6-1.4 2zm9.3-6.2l-.2.6h.6zm-2-1.1l-.4 1.2 1-.1zm-1.7 3.3l-.2.8.7-.1z"/><path d="M204.1 118.9l-.3.6h.6zm-3.1 2.5l-.3.5.6.1zm10.8-7.9l.9-.2-.6-.7zm6.5-12.4h.8l-.4-.7zm-.2 3.5l.9-.1-.5-.6zm-10.1 7.7l.7-.5-.8-.4zm-2.1 3.3l-.4-.6-.3.4zm5.6-.6l-.6.2.4.4zm6.2-12.9l.6-.5-.4-.4zm-1.8 2.7l-.3-.7-.5.5zm1.6 2.3l-.4-.6-.4.6zm3.8-4.7l-.2-.8-.4.5zm2.5-.4l-.2-.7-.4.4zm-1-1.4l-.2-.7-.4.4zm1.6-1.2l-.2-.7-.4.4zm-2.6 4.3l-.7.1.3.5zm-1.2-3.6l-.7.1.2.5zm-10.4 16.7l-.1-.7-.5.2zm1 2.9l-.6-.4-.1.7zm-2.8-4.5l-.2.7.6-.1z"/><path d="M208.4 114.7l-.3.8h.7zm-17.1 14.9l-.9.8.9.6zm2.8 1.2l-.2.6h.8zm.2-3.7l.5.5v-.7zm-4.2 3.3l.4-.5-.4-.3zm-1.1 1.8l.7-.6-.8-.5zm-.7-1.5l.9-.6-.9-.6zm1-.8l.4.6.2-.4z"/><path d="M190.5 129.5l-1.6-1.9-1.1 1.9zm-1.6 2l-1.4-1.6-.9 1.5zm12.3-20.6l1.6.2-.5-1.3zm9.8-3.3l1.1-.5-.9-.7zm-1.1-1.8l1.1-.5-.6-.7zM208 107l1.2-.5-.8-.7zm1.2-.1l1.1-.4-.8-.8zm2.8-.9l1.2 1 .4-1.2zm-.4-3.1l.9 1.1.7-1.1zm2.3-1.9l.8 1.3.7-1.1zm-4.5 4.8l-.4-1.8-1.4 1.1zm-1 1.8l1 1 .4-1.2zm2.6-3.2l.8 1.1.5-1.2zm-4.5 4l1 1 .5-1.2zm1.7 1.2l1.2-.4-.7-.9zm-1.4-1.5l1.2-.5-.9-.7z"/><path d="M212 108.3l1.3.7.1-1.3zm2.9-5.8l.9.9.4-1.1zm3.1-3.3l1.1.9.4-1.1zm2.8-.5l.7.6.2-.8zm-8.4 5.3l1 1.6.9-1.5zm-.9 5.1l-.6.4.6.2z"/><path d="M213.1 105.1l.7.1-.3-.6zm.9-1.4l-.1-2.8-2.2 1.1zm-2.3 1.3l-.5-2.6-2.2 1.4zm4.8-3.7l.3-1.7-1.5.6zm-13.7 14l1.2-.4-.8-.8zm-.7-1.9l1.1-.4-.8-.7zm1.9.4l.9 1 .6-1.1zm-1-1.6l1 1 .6-1.1z"/><path d="M205.6 113.5l1.2.7.1-1.1zm-.7-2.5l1.2 1.5.7-1.4zm.2 2l.6.1-.2-.6zm-1.6-.3l-.2-2.7-2.3 1.4zm4.8-5l-1-2.6-1.6 1.5zm-1.2 1.4l-1.2.5.8.8zm2.5 2l-.4.7h.7zm1.1-3.3l.4.4.3-.6zm-5 1.8l.6-.4-.4-.2zm-1.4 1.4l1-.3-.6-.7z"/><path d="M204.2 109.4l1.2-.3-.6-.9zm1.3-.4l.1.6.5-.3z"/><path d="M206.6 108.9l-.8-2.4-1.7 1.4zm-1.9 1.6l-.5-2.2-1.5 1.2z"/></g><g xmlns="http://www.w3.org/2000/svg" fill="#dd6d22"><path d="M274.8 169.1l.5-1.3-1.2.1zm-2.9-2.5l.2-1.4-1.3.4zm3.8.1l1.7-.6-1-1.1zm-5.7-2.9l1.6-.6-1-1.1z"/><path d="M269.9 159.4h1.7l-.6-1.3zm.4 7.6l1.7-.1-.8-1.3zm1.9 0l1.7-.1-.8-1.3zm-.6-1.8l1.5-.6-.9-1.1zm1.2 4.6l1.4-.6-1-1z"/><path d="M271.9 170.2l1.7-.3-.9-1.3zm2.8-8.2l.2-1.4-1.2.5zm-.2 8.5l.8-1.2-1.3-.2zm-.5-10.2v-1l-.7.3zm.6 4.5l-.8-.2.2.7zm4.7-5.1l-.5.7.8.1zm3 2.8l1 .1-.3-.8zm-4.5.8l.2-.7-.7.1zm5.1 4.5l-.7-.5-.1.8zm-6.6-6.3l.2.9.8-.5zm-1.9-4.3h.8l-.3-.6zm-3.1 6.1l.2-.8-.8.2zm-.5-2.2l.2-1.3-1.3.3zm1.2-.3l1.1-1.9-1.9-.2zm-1-8l.3-1.7-1.4.4zm.7 10.5l2.2-.7-1.4-1.6zm1.1-4.7l.6-1.4-1.3.1zm-1.5-.8l.6-1.3h-1.3zm7.2 8l1 .1-.2-.8zm-1.1 2.6v.8l.7-.2z"/><path d="M281.2 165.1l.3-.7h-.7zm-6.9-2.2l.4-.8-.7-.1zm-1.8-6.1l-3-.9.3 2.8zm.3 4.6l-3-1 .3 2.8zm.1 3.3l-2.8-1 .1 2.8zm-1.5-9.5l1.6-.4-.8-1.2zm.9-1.7l-3-1.1.2 3zm-.8-3.8l-2.5-.9.2 2.5zm-1-2.8l-1.7-.5.1 1.7zm2.9 21.2l-3.1-1.1.2 2.9zm.2 3l-3-1.1.2 2.9z"/><path d="M273.8 174l-3-1.1.1 2.9zm1.4-10.7l.5 1.4.8-.9zm-.2 6.3l1.7-.5-1-1.2zm-.6.3l-.1 1.7 1.3-.6z"/><path d="M271.4 175.1l-.1 1.8 1.3-.7zm1.5-.7l-.1 1.7 1.3-.6zm-.5-2.8v1.8l1.3-.6zm4.7 1.8l-.5-.8-.6.6zm2.8 3.7l-.8.2.4.6zm1.5-6.6l-.1.8.8-.2zm-7.3 20.3l1.1-.3-.5-.6zm6.6-26.9l-.1-.9-.7.5zm.5 14.4l-.8-.1.2.7zm-5.6-2.4l.2-1.8-1.5.5zm6.5 7.2l-.7-.2v.7zm-4.3-14.2l.5.8.5-.7zm-3.2-3.5l.8-.2-.5-.7zm-1.1 6.6v-.8l-.7.3zm3.4-20.3l1 .3-.1-.8zm-4.7-.7l.5-.6-.7-.1zm3.9 5.4l-.7-.6-.2.7zm-5.3-9.8l.1-1.4-1.1.4zm-1-1.3l.5-1h-1z"/><path d="M269.8 144.1l-1.5-.4.4 2.3zm.2 4.5l1.3-.5-.9-.8zm-.8-6.4l-1.1-.7.3 1.7zm3.1.8l.8.1-.1-.6zm-1.9-.2l.4-.7-.6.1zm-1.7-1.4l.3-.6h-.6zm0-2.1l.3-.6h-.5zm3.9 8.2l-.4-.4-.2.5zm6.4 24.8l.9.6.2-.9zm-4.4-1.9l.7-.5-.7-.3zm2.1 6.6l-.3-.6-.5.5zm-4.8-5.5l2.1-.4-1-1.7zm-.7-1.2l1.6-.7-1.1-1zm2.3 2.6l1.2.8.1-1.3zm6.4-5.2l.7.6.2-.7zm-1.8 17.9l1 .5.1-1zm1.2-19.2l.5-.6-.6-.3zm2.9 7.2l-.5-.9-.5.8zm-1.6 12.4l-.6-.5-.3.7zm3.6-5.6l.1-.7-.7.1zm-5.5 8l-.1.8.8-.1zm2.4-2.9l-.1-.8-.6.5zm-4.8 4.4l.7.7.2-.9zm6.6-6.9l.5.6.3-.7zm-4.7-1.7l.8.8.3-.9zm.9 10.3l-.4-.9-.5.7zm-5.5-14.4l-.9-1.3-.7 1.2zm.1 3.4l-.9-1.2-.5 1.1z"/><path d="M273.2 179.2l-.9-1.2-.5 1.2zm-1.9-.3v2.3l1.8-.9z"/><path d="M271 176.9l.1 2.3 1.7-.9zm3.6 9.2l1.7-.3-1-1.2zm-1.2-1.7l1.7-.1-.8-1.4zm4.4-3.3l-.7-1.3-.7 1zm-2.5 1.7l-.6-1.2-.8 1zm-2.1 1l.3-1.5-1.4.2z"/><path d="M275.9 176.2l.6.6.2-.8zm-1.6 6l-3.1-1 .4 2.8zm-.5-2.6l1.3-.3-.6-.9zm3.4-2.9l-.3 1.4 1.3-.1zm-.7-2.3l-.4 1.5 1.3-.2zm1.3.3l.5.9.5-.6zm-2.1-3.5l.7-.1-.3-.6zm-2 5.9l.1-.8-.7.2zm5.6-2.9l.3.8.6-.5zm-2.2-3.6h.7l-.3-.7zm-2 5.9l.1-.8-.6.3zm1 7.2l.6-1.1-1.1-.1zm-.8-4.2l1.4-1.2-1.4-.8zm3.4.6l.4-1-1 .1zm-3.3 12.9l-.9.1.4.6zm1.1-1.5l-.8-.2.1.6z"/><path d="M277.8 185.2l-.4 1.5 1.4-.3zm-4.1 7.8l.6-1.2-1 .1zm0-8.3l-2.1-.5v1.9zm2-7.3l-2.3-1 .1 2.4zm0 3.2l-2.3-1.1v2.4zm6.1 10.8l-.6.4.5.4zm3.3 3.6l-.7.2.4.5zm-9.5 1.3l-1.3-.6v1.3zm4.9-.9l-1.4-.6v1.2zm-6.1 0l1-.9-1.1-.6zm2-1.6l.4 1.4 1.2-.9zm1.9-9.2l.3-1.8-1.6.4zm-3.4 6.7l1.7-.3-.9-1.2zm-1.1-1.7l1.6-.2-.6-1.3zm2-1.6l-.7-1.2-.7 1zm-2.3.9l.4-1.4-1.3.2z"/><path d="M274.7 187.3l-3.1-.9.3 2.7zm1.8 1.5l.6-1-1.1-.1zm-2.5 1.1l-2.1-.6.1 2zm.3 4.1l-2.2-.5.1 1.9z"/><path d="M274.2 192.1l-2.2-.5.1 1.9zm1.9-6.3l-2.3-1.1.1 2.3zm.3 25.3l-2.3-1.1v2.3zm2.2-21.3l.4-1.8-1.6.3zm2.1 4.4l-.2-1.1-.8.6zm-5.9 8.1l1-.3-.5-.7zm4-5.2l1 .5.1-1zm2.5.4l-.7-.5-.2.7z"/><path d="M279.4 199.9l-.1.8.7-.2zm2.3-2.9l-.1-.8-.5.4zm-4.8 4.4l.7.7.2-.9zm2.9 1.6l-.5-.8-.4.6zm-4.6-5.4l1.8-.3-1-1.2zm.9 6.8l-.9.1.4.7zm1-1.5l-.7-.1.1.6zm1.4-6.2l-.4 1.5 1.3-.3zm-1.6 16.8l-.4 1.6 1.4-.3zm-2.5-9.1l.6-1.1-1 .1zm0-8.2l-2.2-.5.1 1.9zm8.3 5.3l-.7.4.6.5zm.8-2.8l-.7.1.4.6zm-9.1 8.8l-1.3-.5-.1 1.2zm4.3.8l-1.3-.7v1.2zm-3.6-1.5l1-.9-1.1-.5zm2-1.5l.3 1.4 1.2-.9zm1 9.7l.3 1.5 1.2-.9zm-.2-21.5l.3-1.7-1.5.3zm-2.3 9.3l1.7-.3-1-1.3zm-1.2-1.8l1.7-.1-.7-1.4zm2-1.6l-.6-1.1-.8 1zm-2.2 1l.4-1.5-1.4.3z"/><path d="M275.4 198.8l-3.1-.9.3 2.7zm1.7 1.5l.7-1-1.1-.1zm-2.4 1.1l-2.1-.6v1.9zm.2 4.1l-2.1-.5.1 1.9z"/><path d="M274.9 203.6l-2.2-.5.1 1.9zm1.9-6.3l-2.3-1.1v2.3zm2.4 4l.4-1.8-1.5.3zm1.8 3.2l-.2-1.1-.9.6zm-4 7l-.6.6.7.2zm-1.3 1.1l-.3-1.3-.7.8zm7-6.8l-.3.6.6.1zm-3.3 8l-1.4.5.8.9zm-.1-3.5l-1.4.5.8.9zm-1.4 3.6l.1-1.3-1.2.3z"/><path d="M274.7 207.8l1.3.8.3-1.4zm2.2 5.2l-2 1.1 1.4 1.3z"/><path d="M275.9 211.6l-2 .9 1.2 1.5zm4.9-2.9l-1-.6-.1 1zm1.5 9.7l.4-1h-.8zm-2.7-5.5l1.1-.4-.7-.7zm2.7-2.6l-.7.3.3.6zm.8 3l.6.5.4-.6zm-.9-3.6l-.7-.4v.7zm.7 6.5l1-.2-.6-.7zm3-1.3l-.9-.2.2.8zm-9.4-4.1l1.1-1.4-1.6-.2zm8.3 7.9l-.5.8h.8zm-.5-1.8l-.7.5.6.3zm-9.8-7.4l.9 1.3.7-1.2zm9.3 10.5l-.5-1.1-.6.8zm-5.4-5.4l-2 1 1.4 1.4zm8-3v.8l.7-.2zm-1.7-2.3l-.4.6.7.1zm1.6 12.6l-1.2.7.9.8zm-5.1-8.6l-1.3.6.9.8zm5 7.6l-.2-1.4-1.1.7zm-7.5-14.2l1.4.6v-1.5zm-5.4 5.2l.8-1.5-2-.1zm4.1-6.8l.8-1.6h-1.6zm4.1 12.8l1-1.3-1.5-.4zm.2-2.5l-1.4-.3.3 1.2zm-.8 2.2l-.7-1.3-.8 1.1z"/><path d="M280.7 215.7l-2.9 1.5 2.1 1.7zm2.1-.2l-.4-1.2-.8.7zm-.9 2.4l-1.9 1.3 1.5 1.2zm3.1 2.3l-1.7 1.4 1.6 1.1z"/><path d="M283.4 219.1l-1.7 1.4 1.6 1.1zM273 207.9h-2.7l1.5 2.2zm2.1 1.7l-1.2-1.4-.7 1.4zm12.7 5.2l-1-.5-.1 1z"/></g></g></svg>